NotoSerifTamil-CondensedBold.ufo
<glyph name="exclam" format="2">
  <advance width="335.8"/>
  <unicode hex="0021"/>
  <outline>
    <contour>
      <point x="143.4" y="221.70000000000002" type="line"/>
      <point x="192.4" y="221.70000000000002" type="line"/>
      <point x="245.8" y="714.0" type="line"/>
      <point x="90.0" y="714.0" type="line"/>
    </contour>
    <contour>
      <point x="168.89999999999998" y="-7.3" type="curve" smooth="yes"/>
      <point x="207.3" y="-7.3"/>
      <point x="240.4" y="10.6"/>
      <point x="240.4" y="67.8" type="curve" smooth="yes"/>
      <point x="240.4" y="124.6"/>
      <point x="207.3" y="142.9"/>
      <point x="168.89999999999998" y="142.9" type="curve" smooth="yes"/>
      <point x="128.5" y="142.9"/>
      <point x="97.39999999999999" y="124.6"/>
      <point x="97.39999999999999" y="67.8" type="curve" smooth="yes"/>
      <point x="97.39999999999999" y="10.6"/>
      <point x="128.5" y="-7.3"/>
    </contour>
  </outline>
</glyph>
<glyph name="quotedbl" format="2">
  <advance width="449.2"/>
  <unicode hex="0022"/>
  <outline>
    <contour>
      <point x="300.8" y="448.1" type="line"/>
      <point x="359.09999999999997" y="448.1" type="line"/>
      <point x="389.9" y="714.0" type="line"/>
      <point x="250.70000000000002" y="714.0" type="line"/>
    </contour>
    <contour>
      <point x="99.39999999999999" y="448.1" type="line"/>
      <point x="157.70000000000002" y="448.1" type="line"/>
      <point x="198.5" y="714.0" type="line"/>
      <point x="59.3" y="714.0" type="line"/>
    </contour>
  </outline>
</glyph>
<glyph name="numbersign" format="2">
  <advance width="486.90000000000003"/>
  <unicode hex="0023"/>
  <outline>
    <contour>
      <point x="61.3" y="0.0" type="line"/>
      <point x="130.2" y="0.0" type="line"/>
      <point x="168.89999999999998" y="201.4" type="line"/>
      <point x="258.2" y="201.4" type="line"/>
      <point x="221.2" y="0.0" type="line"/>
      <point x="290.1" y="0.0" type="line"/>
      <point x="327.8" y="201.4" type="line"/>
      <point x="438.8" y="201.4" type="line"/>
      <point x="438.8" y="268.29999999999995" type="line"/>
      <point x="341.1" y="268.29999999999995" type="line"/>
      <point x="375.8" y="450.7" type="line"/>
      <point x="470.8" y="450.7" type="line"/>
      <point x="470.8" y="518.6" type="line"/>
      <point x="388.1" y="518.6" type="line"/>
      <point x="425.1" y="714.0" type="line"/>
      <point x="356.2" y="714.0" type="line"/>
      <point x="318.5" y="518.6" type="line"/>
      <point x="229.20000000000002" y="518.6" type="line"/>
      <point x="265.2" y="714.0" type="line"/>
      <point x="195.3" y="714.0" type="line"/>
      <point x="159.60000000000002" y="518.6" type="line"/>
      <point x="48.1" y="518.6" type="line"/>
      <point x="48.1" y="450.7" type="line"/>
      <point x="146.60000000000002" y="450.7" type="line"/>
      <point x="111.6" y="268.29999999999995" type="line"/>
      <point x="16.1" y="268.29999999999995" type="line"/>
      <point x="16.1" y="201.4" type="line"/>
      <point x="99.3" y="201.4" type="line"/>
    </contour>
    <contour>
      <point x="181.20000000000002" y="268.29999999999995" type="line"/>
      <point x="216.9" y="450.7" type="line"/>
      <point x="307.2" y="450.7" type="line"/>
      <point x="272.2" y="268.29999999999995" type="line"/>
    </contour>
  </outline>
</glyph>
<glyph name="percent" format="2">
  <advance width="789.1"/>
  <unicode hex="0025"/>
  <outline>
    <contour>
      <point x="209.9" y="0.0" type="line"/>
      <point x="278.09999999999997" y="0.0" type="line"/>
      <point x="576.5999999999999" y="714.0" type="line"/>
      <point x="508.7" y="714.0" type="line"/>
    </contour>
    <contour>
      <point x="186.70000000000002" y="280.0" type="curve" smooth="yes"/>
      <point x="293.0" y="280.0"/>
      <point x="345.0" y="369.0"/>
      <point x="345.0" y="503.0" type="curve"/>
      <point x="345.0" y="637.0"/>
      <point x="293.0" y="724.0"/>
      <point x="187.0" y="724.0" type="curve" smooth="yes"/>
      <point x="75.1" y="724.0"/>
      <point x="28.400000000000002" y="637.0"/>
      <point x="28.400000000000002" y="503.0" type="curve" smooth="yes"/>
      <point x="28.400000000000002" y="369.0"/>
      <point x="75.1" y="280.0"/>
    </contour>
    <contour>
      <point x="186.70000000000002" y="326.5" type="curve" smooth="yes"/>
      <point x="142.6" y="326.5"/>
      <point x="126.7" y="390.5"/>
      <point x="126.7" y="503.0" type="curve"/>
      <point x="126.7" y="613.5"/>
      <point x="142.6" y="676.5"/>
      <point x="187.0" y="676.5" type="curve" smooth="yes"/>
      <point x="231.79999999999998" y="676.5"/>
      <point x="245.7" y="613.5"/>
      <point x="245.7" y="503.0" type="curve" smooth="yes"/>
      <point x="245.7" y="390.5"/>
      <point x="231.79999999999998" y="326.5"/>
    </contour>
    <contour>
      <point x="602.4" y="-10.0" type="curve" smooth="yes"/>
      <point x="709.4" y="-10.0"/>
      <point x="760.6999999999999" y="79.0"/>
      <point x="760.6999999999999" y="213.0" type="curve" smooth="yes"/>
      <point x="760.6999999999999" y="347.0"/>
      <point x="709.4" y="434.0"/>
      <point x="603.4" y="434.0" type="curve" smooth="yes"/>
      <point x="491.5" y="434.0"/>
      <point x="444.8" y="347.0"/>
      <point x="444.8" y="213.0" type="curve" smooth="yes"/>
      <point x="444.8" y="79.0"/>
      <point x="491.5" y="-10.0"/>
    </contour>
    <contour>
      <point x="602.4" y="36.5" type="curve" smooth="yes"/>
      <point x="559.0" y="36.5"/>
      <point x="543.1" y="100.5"/>
      <point x="543.1" y="213.0" type="curve" smooth="yes"/>
      <point x="543.1" y="323.5"/>
      <point x="559.0" y="386.5"/>
      <point x="603.4000000000001" y="386.5" type="curve" smooth="yes"/>
      <point x="647.5" y="386.5"/>
      <point x="662.1" y="323.5"/>
      <point x="662.1" y="213.0" type="curve" smooth="yes"/>
      <point x="662.1" y="100.5"/>
      <point x="647.5" y="36.5"/>
    </contour>
  </outline>
</glyph>
<glyph name="quotesingle" format="2">
  <advance width="257.8"/>
  <unicode hex="0027"/>
  <outline>
    <contour>
      <point x="99.39999999999999" y="448.1" type="line"/>
      <point x="157.70000000000002" y="448.1" type="line"/>
      <point x="198.5" y="714.0" type="line"/>
      <point x="59.3" y="714.0" type="line"/>
    </contour>
  </outline>
</glyph>
<glyph name="parenleft" format="2">
  <advance width="351.70000000000005"/>
  <unicode hex="0028"/>
  <outline>
    <contour>
      <point x="324.59999999999997" y="-136.20000000000002" type="curve"/>
      <point x="324.59999999999997" y="-76.4" type="line"/>
      <point x="217.4" y="5.6"/>
      <point x="193.5" y="158.3"/>
      <point x="193.5" y="317.3" type="curve" smooth="yes"/>
      <point x="193.5" y="476.0"/>
      <point x="217.4" y="627.7"/>
      <point x="324.59999999999997" y="710.4000000000001" type="curve"/>
      <point x="324.59999999999997" y="769.2" type="line"/>
      <point x="127.49999999999999" y="684.4000000000001"/>
      <point x="49.300000000000004" y="538.6"/>
      <point x="49.300000000000004" y="317.3" type="curve" smooth="yes"/>
      <point x="49.300000000000004" y="95.7"/>
      <point x="127.49999999999999" y="-50.7"/>
    </contour>
  </outline>
</glyph>
<glyph name="parenright" format="2">
  <advance width="351.70000000000005"/>
  <unicode hex="0029"/>
  <outline>
    <contour>
      <point x="27.1" y="-136.20000000000002" type="line"/>
      <point x="224.9" y="-50.7"/>
      <point x="302.4" y="95.7"/>
      <point x="302.4" y="317.3" type="curve" smooth="yes"/>
      <point x="302.4" y="538.6"/>
      <point x="224.9" y="684.4000000000001"/>
      <point x="27.1" y="769.2" type="curve"/>
      <point x="27.1" y="710.4000000000001" type="line"/>
      <point x="134.3" y="627.7"/>
      <point x="158.2" y="476.0"/>
      <point x="158.2" y="317.3" type="curve" smooth="yes"/>
      <point x="158.2" y="158.3"/>
      <point x="134.3" y="5.6"/>
      <point x="27.1" y="-76.4" type="curve"/>
    </contour>
  </outline>
</glyph>
<glyph name="asterisk" format="2">
  <advance width="430.59999999999997"/>
  <unicode hex="002A"/>
  <outline>
    <contour>
      <point x="168.0" y="367.7" type="line"/>
      <point x="265.70000000000005" y="367.7" type="line"/>
      <point x="234.9" y="531.8" type="line"/>
      <point x="362.5" y="429.90000000000003" type="line"/>
      <point x="402.59999999999997" y="521.9000000000001" type="line"/>
      <point x="270.40000000000003" y="564.0" type="line"/>
      <point x="402.59999999999997" y="605.8" type="line"/>
      <point x="362.5" y="698.8000000000001" type="line"/>
      <point x="234.9" y="596.1999999999999" type="line"/>
      <point x="266.0" y="760.0" type="line"/>
      <point x="168.0" y="760.0" type="line"/>
      <point x="197.5" y="594.9" type="line"/>
      <point x="69.5" y="700.8000000000001" type="line"/>
      <point x="30.1" y="606.8" type="line"/>
      <point x="163.0" y="564.0" type="line"/>
      <point x="30.1" y="520.9000000000001" type="line"/>
      <point x="69.5" y="428.90000000000003" type="line"/>
      <point x="196.5" y="533.5" type="line"/>
    </contour>
  </outline>
</glyph>
<glyph name="plus" format="2">
  <advance width="465.2"/>
  <unicode hex="002B"/>
  <outline>
    <contour>
      <point x="196.79999999999998" y="143.0" type="line"/>
      <point x="267.4" y="143.0" type="line"/>
      <point x="267.4" y="323.4" type="line"/>
      <point x="419.1" y="323.4" type="line"/>
      <point x="419.1" y="391.6" type="line"/>
      <point x="267.4" y="391.6" type="line"/>
      <point x="267.4" y="572.0" type="line"/>
      <point x="196.79999999999998" y="572.0" type="line"/>
      <point x="196.79999999999998" y="391.6" type="line"/>
      <point x="46.1" y="391.6" type="line"/>
      <point x="46.1" y="323.4" type="line"/>
      <point x="196.79999999999998" y="323.4" type="line"/>
    </contour>
  </outline>
</glyph>
<glyph name="comma" format="2">
  <advance width="259.0"/>
  <unicode hex="002C"/>
  <outline>
    <contour>
      <point x="41.5" y="-154.0" type="line"/>
      <point x="154.0" y="-120.39999999999999"/>
      <point x="196.0" y="-46.5"/>
      <point x="196.0" y="35.7" type="curve" smooth="yes"/>
      <point x="196.0" y="102.3"/>
      <point x="167.70000000000002" y="142.9"/>
      <point x="118.0" y="142.9" type="curve" smooth="yes"/>
      <point x="82.6" y="142.9"/>
      <point x="54.400000000000006" y="119.6"/>
      <point x="54.400000000000006" y="78.1" type="curve" smooth="yes"/>
      <point x="54.400000000000006" y="4.4"/>
      <point x="116.2" y="11.900000000000002"/>
      <point x="116.2" y="-24.700000000000003" type="curve" smooth="yes"/>
      <point x="116.2" y="-61.6"/>
      <point x="90.4" y="-85.2"/>
      <point x="41.5" y="-105.5" type="curve"/>
    </contour>
  </outline>
</glyph>
<glyph name="hyphen" format="2">
  <advance width="270.09999999999997"/>
  <unicode hex="002D"/>
  <outline>
    <contour>
      <point x="22.2" y="223.5" type="line"/>
      <point x="248.6" y="223.5" type="line"/>
      <point x="248.6" y="321.5" type="line"/>
      <point x="22.2" y="321.5" type="line"/>
    </contour>
  </outline>
</glyph>
<glyph name="period" format="2">
  <advance width="259.0"/>
  <unicode hex="002E"/>
  <outline>
    <contour>
      <point x="129.5" y="-7.3" type="curve" smooth="yes"/>
      <point x="167.9" y="-7.3"/>
      <point x="201.70000000000002" y="10.6"/>
      <point x="201.70000000000002" y="67.8" type="curve" smooth="yes"/>
      <point x="201.70000000000002" y="124.6"/>
      <point x="167.9" y="142.9"/>
      <point x="129.5" y="142.9" type="curve" smooth="yes"/>
      <point x="89.1" y="142.9"/>
      <point x="57.3" y="124.6"/>
      <point x="57.3" y="67.8" type="curve" smooth="yes"/>
      <point x="57.3" y="10.6"/>
      <point x="89.1" y="-7.3"/>
    </contour>
  </outline>
</glyph>
<glyph name="slash" format="2">
  <advance width="250.9"/>
  <unicode hex="002F"/>
  <outline>
    <contour>
      <point x="0.0" y="-121.0" type="line"/>
      <point x="64.3" y="-121.0" type="line"/>
      <point x="250.9" y="760.0" type="line"/>
      <point x="189.3" y="760.0" type="line"/>
    </contour>
  </outline>
</glyph>
<glyph name="zero" format="2">
  <advance width="486.90000000000003"/>
  <unicode hex="0030"/>
  <outline>
    <contour>
      <point x="243.6" y="-10.0" type="curve" smooth="yes"/>
      <point x="397.3" y="-10.0"/>
      <point x="457.1" y="132.1"/>
      <point x="457.1" y="358.0" type="curve" smooth="yes"/>
      <point x="457.1" y="585.5999999999999"/>
      <point x="398.0" y="724.0"/>
      <point x="244.6" y="724.0" type="curve" smooth="yes"/>
      <point x="81.6" y="724.0"/>
      <point x="28.400000000000002" y="583.5"/>
      <point x="28.400000000000002" y="359.0" type="curve" smooth="yes"/>
      <point x="28.400000000000002" y="130.7"/>
      <point x="82.3" y="-10.0"/>
    </contour>
    <contour>
      <point x="243.6" y="51.5" type="curve" smooth="yes"/>
      <point x="179.4" y="51.5"/>
      <point x="166.6" y="164.20000000000002"/>
      <point x="166.6" y="358.0" type="curve" smooth="yes"/>
      <point x="166.6" y="551.8000000000001"/>
      <point x="179.4" y="662.5"/>
      <point x="244.6" y="662.5" type="curve" smooth="yes"/>
      <point x="307.1" y="662.5"/>
      <point x="320.3" y="551.8000000000001"/>
      <point x="320.3" y="358.0" type="curve" smooth="yes"/>
      <point x="320.3" y="164.20000000000002"/>
      <point x="307.1" y="51.5"/>
    </contour>
  </outline>
</glyph>
<glyph name="one" format="2">
  <advance width="486.90000000000003"/>
  <unicode hex="0031"/>
  <outline>
    <contour>
      <point x="78.8" y="0.0" type="line"/>
      <point x="440.0" y="0.0" type="line"/>
      <point x="440.0" y="50.199999999999996" type="line"/>
      <point x="384.90000000000003" y="50.199999999999996" type="line" smooth="yes"/>
      <point x="347.1" y="50.199999999999996"/>
      <point x="329.7" y="69.7"/>
      <point x="329.7" y="116.6" type="curve" smooth="yes"/>
      <point x="329.7" y="718.0" type="line"/>
      <point x="230.29999999999998" y="718.0" type="line"/>
      <point x="169.4" y="668.1" type="line" smooth="yes"/>
      <point x="111.10000000000001" y="619.8000000000001"/>
      <point x="69.4" y="602.5"/>
      <point x="35.0" y="592.5" type="curve"/>
      <point x="35.0" y="550.3000000000001"/>
      <point x="57.50000000000001" y="523.4000000000001"/>
      <point x="85.30000000000001" y="523.4000000000001" type="curve" smooth="yes"/>
      <point x="120.39999999999999" y="523.4000000000001"/>
      <point x="154.9" y="561.2"/>
      <point x="198.2" y="620.4000000000001" type="curve"/>
      <point x="198.2" y="116.6" type="line" smooth="yes"/>
      <point x="198.2" y="62.400000000000006"/>
      <point x="175.9" y="50.199999999999996"/>
      <point x="143.3" y="50.199999999999996" type="curve" smooth="yes"/>
      <point x="78.8" y="50.199999999999996" type="line"/>
    </contour>
  </outline>
</glyph>
<glyph name="two" format="2">
  <advance width="486.90000000000003"/>
  <unicode hex="0032"/>
  <outline>
    <contour>
      <point x="30.800000000000004" y="0.0" type="line"/>
      <point x="446.40000000000003" y="0.0" type="line"/>
      <point x="450.7" y="201.6" type="line"/>
      <point x="397.3" y="201.6" type="line"/>
      <point x="390.0" y="172.7" type="line" smooth="yes"/>
      <point x="378.0" y="126.6"/>
      <point x="352.2" y="103.0"/>
      <point x="318.2" y="103.0" type="curve" smooth="yes"/>
      <point x="121.6" y="103.0" type="line"/>
      <point x="237.7" y="230.9" type="line" smooth="yes"/>
      <point x="364.2" y="364.20000000000005"/>
      <point x="429.90000000000003" y="443.3"/>
      <point x="429.90000000000003" y="553.8" type="curve" smooth="yes"/>
      <point x="429.90000000000003" y="656.8"/>
      <point x="359.0" y="724.0"/>
      <point x="226.79999999999998" y="724.0" type="curve" smooth="yes"/>
      <point x="97.60000000000001" y="724.0"/>
      <point x="34.1" y="658.1999999999999"/>
      <point x="34.1" y="588.3" type="curve" smooth="yes"/>
      <point x="34.1" y="521.9000000000001"/>
      <point x="84.7" y="501.2"/>
      <point x="145.3" y="501.2" type="curve"/>
      <point x="145.3" y="607.5"/>
      <point x="167.9" y="665.8000000000001"/>
      <point x="226.79999999999998" y="665.8000000000001" type="curve" smooth="yes"/>
      <point x="268.5" y="665.8000000000001"/>
      <point x="295.0" y="628.3000000000001"/>
      <point x="295.0" y="548.8000000000001" type="curve" smooth="yes"/>
      <point x="295.0" y="447.20000000000005"/>
      <point x="263.29999999999995" y="376.5"/>
      <point x="159.20000000000002" y="249.10000000000002" type="curve" smooth="yes"/>
      <point x="30.800000000000004" y="91.8" type="line"/>
    </contour>
  </outline>
</glyph>
<glyph name="three" format="2">
  <advance width="486.90000000000003"/>
  <unicode hex="0033"/>
  <outline>
    <contour>
      <point x="212.89999999999998" y="-10.0" type="curve" smooth="yes"/>
      <point x="336.90000000000003" y="-10.0"/>
      <point x="451.4" y="43.0"/>
      <point x="451.4" y="202.5" type="curve" smooth="yes"/>
      <point x="451.4" y="318.2"/>
      <point x="370.90000000000003" y="365.3"/>
      <point x="298.6" y="379.59999999999997" type="curve"/>
      <point x="372.29999999999995" y="407.2"/>
      <point x="429.2" y="469.6"/>
      <point x="429.2" y="559.5999999999999" type="curve" smooth="yes"/>
      <point x="429.2" y="665.0"/>
      <point x="352.09999999999997" y="724.0"/>
      <point x="229.0" y="724.0" type="curve" smooth="yes"/>
      <point x="99.8" y="724.0"/>
      <point x="36.0" y="662.4"/>
      <point x="36.0" y="592.1" type="curve" smooth="yes"/>
      <point x="36.0" y="536.0"/>
      <point x="78.80000000000001" y="513.6"/>
      <point x="143.6" y="513.6" type="curve"/>
      <point x="143.6" y="592.3"/>
      <point x="162.5" y="665.8000000000001"/>
      <point x="221.9" y="665.8000000000001" type="curve" smooth="yes"/>
      <point x="267.5" y="665.8000000000001"/>
      <point x="293.70000000000005" y="621.1"/>
      <point x="293.70000000000005" y="547.7" type="curve" smooth="yes"/>
      <point x="293.70000000000005" y="457.6"/>
      <point x="262.5" y="399.3"/>
      <point x="187.7" y="399.3" type="curve"/>
      <point x="129.4" y="399.3" type="line"/>
      <point x="129.4" y="340.8" type="line"/>
      <point x="183.7" y="340.8" type="line" smooth="yes"/>
      <point x="270.4" y="340.8"/>
      <point x="314.90000000000003" y="285.09999999999997"/>
      <point x="314.90000000000003" y="203.5" type="curve" smooth="yes"/>
      <point x="314.90000000000003" y="90.6"/>
      <point x="264.59999999999997" y="55.800000000000004"/>
      <point x="208.70000000000002" y="55.800000000000004" type="curve" smooth="yes"/>
      <point x="146.2" y="55.800000000000004"/>
      <point x="102.5" y="105.10000000000001"/>
      <point x="102.5" y="186.6" type="curve"/>
      <point x="61.4" y="186.6"/>
      <point x="26.6" y="160.3"/>
      <point x="26.6" y="112.10000000000001" type="curve" smooth="yes"/>
      <point x="26.6" y="44.9"/>
      <point x="80.1" y="-10.0"/>
    </contour>
  </outline>
</glyph>
<glyph name="four" format="2">
  <advance width="486.90000000000003"/>
  <unicode hex="0034"/>
  <outline>
    <contour>
      <point x="154.8" y="0.0" type="line"/>
      <point x="463.8" y="0.0" type="line"/>
      <point x="463.8" y="50.199999999999996" type="line"/>
      <point x="452.2" y="50.199999999999996" type="line" smooth="yes"/>
      <point x="412.79999999999995" y="50.199999999999996"/>
      <point x="380.7" y="59.199999999999996"/>
      <point x="380.7" y="122.2" type="curve" smooth="yes"/>
      <point x="380.7" y="188.79999999999998" type="line"/>
      <point x="469.3" y="188.79999999999998" type="line"/>
      <point x="469.3" y="252.0" type="line"/>
      <point x="380.7" y="252.0" type="line"/>
      <point x="380.7" y="714.0" type="line"/>
      <point x="253.60000000000002" y="714.0" type="line"/>
      <point x="11.6" y="244.20000000000002" type="line"/>
      <point x="11.6" y="188.79999999999998" type="line"/>
      <point x="250.8" y="188.79999999999998" type="line"/>
      <point x="250.8" y="122.2" type="line" smooth="yes"/>
      <point x="250.8" y="59.199999999999996"/>
      <point x="218.7" y="50.199999999999996"/>
      <point x="179.29999999999998" y="50.199999999999996" type="curve" smooth="yes"/>
      <point x="154.8" y="50.199999999999996" type="line"/>
    </contour>
    <contour>
      <point x="77.4" y="252.0" type="line"/>
      <point x="187.9" y="468.7" type="line" smooth="yes"/>
      <point x="207.1" y="508.40000000000003"/>
      <point x="242.7" y="581.6999999999999"/>
      <point x="256.4" y="621.1" type="curve"/>
      <point x="252.1" y="559.1"/>
      <point x="250.8" y="492.7"/>
      <point x="250.8" y="434.7" type="curve" smooth="yes"/>
      <point x="250.8" y="252.0" type="line"/>
    </contour>
  </outline>
</glyph>
<glyph name="five" format="2">
  <advance width="486.90000000000003"/>
  <unicode hex="0035"/>
  <outline>
    <contour>
      <point x="213.5" y="-10.0" type="curve" smooth="yes"/>
      <point x="316.3" y="-10.0"/>
      <point x="441.59999999999997" y="54.7"/>
      <point x="441.59999999999997" y="219.3" type="curve" smooth="yes"/>
      <point x="441.59999999999997" y="361.6"/>
      <point x="353.20000000000005" y="433.3"/>
      <point x="215.7" y="433.3" type="curve" smooth="yes"/>
      <point x="184.5" y="433.3"/>
      <point x="140.70000000000002" y="425.6"/>
      <point x="121.1" y="416.90000000000003" type="curve"/>
      <point x="137.1" y="611.0" type="line"/>
      <point x="317.09999999999997" y="611.0" type="line" smooth="yes"/>
      <point x="344.9" y="611.0"/>
      <point x="349.40000000000003" y="597.7"/>
      <point x="356.8" y="568.8" type="curve" smooth="yes"/>
      <point x="364.1" y="539.0" type="line"/>
      <point x="415.5" y="539.0" type="line"/>
      <point x="411.90000000000003" y="713.3" type="line"/>
      <point x="86.4" y="713.3" type="line"/>
      <point x="56.5" y="367.29999999999995" type="line"/>
      <point x="91.3" y="350.7" type="line"/>
      <point x="118.5" y="359.7"/>
      <point x="147.8" y="370.8"/>
      <point x="189.0" y="370.8" type="curve" smooth="yes"/>
      <point x="262.4" y="370.8"/>
      <point x="305.4" y="320.7"/>
      <point x="305.4" y="219.3" type="curve" smooth="yes"/>
      <point x="305.4" y="93.5"/>
      <point x="256.1" y="54.4"/>
      <point x="199.2" y="54.4" type="curve" smooth="yes"/>
      <point x="128.4" y="54.4"/>
      <point x="104.6" y="118.10000000000001"/>
      <point x="104.6" y="176.5" type="curve"/>
      <point x="62.900000000000006" y="176.5"/>
      <point x="33.7" y="152.1"/>
      <point x="33.7" y="108.89999999999999" type="curve" smooth="yes"/>
      <point x="33.7" y="50.4"/>
      <point x="82.39999999999999" y="-10.0"/>
    </contour>
  </outline>
</glyph>
<glyph name="six" format="2">
  <advance width="486.90000000000003"/>
  <unicode hex="0036"/>
  <outline>
    <contour>
      <point x="255.20000000000002" y="-10.0" type="curve" smooth="yes"/>
      <point x="388.3" y="-10.0"/>
      <point x="457.5" y="88.0"/>
      <point x="457.5" y="230.3" type="curve" smooth="yes"/>
      <point x="457.5" y="359.6"/>
      <point x="388.3" y="436.6"/>
      <point x="284.09999999999997" y="436.6" type="curve" smooth="yes"/>
      <point x="223.8" y="436.6"/>
      <point x="189.2" y="415.5"/>
      <point x="165.7" y="395.4" type="curve"/>
      <point x="171.6" y="570.0"/>
      <point x="208.4" y="667.8000000000001"/>
      <point x="274.8" y="667.8000000000001" type="curve" smooth="yes"/>
      <point x="320.8" y="667.8000000000001"/>
      <point x="339.4" y="609.3"/>
      <point x="339.4" y="541.6" type="curve"/>
      <point x="412.0" y="541.6"/>
      <point x="440.5" y="572.3"/>
      <point x="440.5" y="614.7" type="curve" smooth="yes"/>
      <point x="440.5" y="671.7"/>
      <point x="393.90000000000003" y="724.0"/>
      <point x="280.3" y="724.0" type="curve" smooth="yes"/>
      <point x="116.7" y="724.0"/>
      <point x="38.0" y="573.1"/>
      <point x="38.0" y="333.5" type="curve" smooth="yes"/>
      <point x="38.0" y="97.0"/>
      <point x="125.39999999999999" y="-10.0"/>
    </contour>
    <contour>
      <point x="257.5" y="51.8" type="curve" smooth="yes"/>
      <point x="205.6" y="51.8"/>
      <point x="166.7" y="141.9"/>
      <point x="165.7" y="332.5" type="curve"/>
      <point x="182.0" y="352.0"/>
      <point x="213.9" y="377.7"/>
      <point x="251.3" y="377.7" type="curve" smooth="yes"/>
      <point x="299.2" y="377.7"/>
      <point x="328.59999999999997" y="330.4"/>
      <point x="328.59999999999997" y="220.3" type="curve" smooth="yes"/>
      <point x="328.59999999999997" y="103.2"/>
      <point x="301.5" y="51.8"/>
    </contour>
  </outline>
</glyph>
<glyph name="seven" format="2">
  <advance width="486.90000000000003"/>
  <unicode hex="0037"/>
  <outline>
    <contour>
      <point x="137.0" y="0.0" type="line"/>
      <point x="218.5" y="0.0" type="line"/>
      <point x="452.5" y="669.1999999999999" type="line"/>
      <point x="452.5" y="713.3" type="line"/>
      <point x="44.099999999999994" y="713.3" type="line"/>
      <point x="39.099999999999994" y="510.3" type="line"/>
      <point x="94.2" y="510.3" type="line"/>
      <point x="99.5" y="558.9" type="line" smooth="yes"/>
      <point x="103.5" y="594.0"/>
      <point x="118.0" y="611.3000000000001"/>
      <point x="149.79999999999998" y="611.3000000000001" type="curve" smooth="yes"/>
      <point x="370.8" y="611.3000000000001" type="line"/>
    </contour>
  </outline>
</glyph>
<glyph name="eight" format="2">
  <advance width="486.90000000000003"/>
  <unicode hex="0038"/>
  <outline>
    <contour>
      <point x="238.7" y="-10.0" type="curve" smooth="yes"/>
      <point x="379.4" y="-10.0"/>
      <point x="461.8" y="64.4"/>
      <point x="461.8" y="184.1" type="curve" smooth="yes"/>
      <point x="461.8" y="279.8"/>
      <point x="418.59999999999997" y="333.2"/>
      <point x="321.0" y="385.59999999999997" type="curve"/>
      <point x="392.79999999999995" y="423.7"/>
      <point x="437.1" y="469.0"/>
      <point x="437.1" y="556.0" type="curve" smooth="yes"/>
      <point x="437.1" y="652.1"/>
      <point x="372.8" y="724.0"/>
      <point x="247.9" y="724.0" type="curve" smooth="yes"/>
      <point x="102.5" y="724.0"/>
      <point x="45.3" y="641.3"/>
      <point x="45.3" y="544.1" type="curve" smooth="yes"/>
      <point x="45.3" y="457.70000000000005"/>
      <point x="87.89999999999999" y="405.6"/>
      <point x="156.70000000000002" y="363.1" type="curve"/>
      <point x="81.3" y="326.8"/>
      <point x="25.8" y="274.3"/>
      <point x="25.8" y="175.70000000000002" type="curve" smooth="yes"/>
      <point x="25.8" y="73.9"/>
      <point x="91.30000000000001" y="-10.0"/>
    </contour>
    <contour>
      <point x="242.3" y="46.300000000000004" type="curve" smooth="yes"/>
      <point x="184.1" y="46.300000000000004"/>
      <point x="144.70000000000002" y="94.4"/>
      <point x="144.70000000000002" y="179.39999999999998" type="curve" smooth="yes"/>
      <point x="144.70000000000002" y="248.7"/>
      <point x="170.29999999999998" y="296.90000000000003"/>
      <point x="209.0" y="328.7" type="curve"/>
      <point x="293.8" y="279.6"/>
      <point x="334.0" y="234.9"/>
      <point x="334.0" y="167.79999999999998" type="curve" smooth="yes"/>
      <point x="334.0" y="92.69999999999999"/>
      <point x="297.0" y="46.300000000000004"/>
    </contour>
    <contour>
      <point x="266.3" y="415.4" type="curve"/>
      <point x="206.79999999999998" y="449.5"/>
      <point x="170.9" y="486.4"/>
      <point x="170.9" y="558.2" type="curve" smooth="yes"/>
      <point x="170.9" y="623.6"/>
      <point x="196.70000000000002" y="667.4"/>
      <point x="244.7" y="667.4" type="curve" smooth="yes"/>
      <point x="296.6" y="667.4"/>
      <point x="323.0" y="614.3000000000001"/>
      <point x="323.0" y="554.5" type="curve" smooth="yes"/>
      <point x="323.0" y="485.0"/>
      <point x="304.1" y="444.8"/>
    </contour>
  </outline>
</glyph>
<glyph name="nine" format="2">
  <advance width="486.90000000000003"/>
  <unicode hex="0039"/>
  <outline>
    <contour>
      <point x="197.6" y="-10.7" type="curve"/>
      <point x="376.7" y="-10.7"/>
      <point x="448.9" y="159.6"/>
      <point x="448.9" y="388.0" type="curve"/>
      <point x="448.9" y="627.9"/>
      <point x="355.8" y="724.0"/>
      <point x="229.0" y="724.0" type="curve" smooth="yes"/>
      <point x="103.5" y="724.0"/>
      <point x="29.400000000000002" y="626.0"/>
      <point x="29.400000000000002" y="484.09999999999997" type="curve" smooth="yes"/>
      <point x="29.400000000000002" y="350.5"/>
      <point x="99.9" y="277.8"/>
      <point x="199.5" y="277.8" type="curve" smooth="yes"/>
      <point x="260.1" y="277.8"/>
      <point x="299.1" y="306.1"/>
      <point x="325.2" y="340.90000000000003" type="curve"/>
      <point x="318.9" y="148.9"/>
      <point x="280.0" y="50.9"/>
      <point x="204.0" y="50.9" type="curve" smooth="yes"/>
      <point x="143.3" y="50.9"/>
      <point x="117.7" y="97.89999999999999"/>
      <point x="100.8" y="154.4" type="curve"/>
      <point x="67.5" y="146.7"/>
      <point x="53.9" y="121.5"/>
      <point x="53.9" y="93.2" type="curve" smooth="yes"/>
      <point x="53.9" y="39.7"/>
      <point x="92.7" y="-10.7"/>
    </contour>
    <contour>
      <point x="239.7" y="342.8" type="curve" smooth="yes"/>
      <point x="185.4" y="342.8"/>
      <point x="157.6" y="395.3"/>
      <point x="157.6" y="488.0" type="curve" smooth="yes"/>
      <point x="157.6" y="601.4"/>
      <point x="185.70000000000002" y="661.2"/>
      <point x="235.7" y="661.2" type="curve" smooth="yes"/>
      <point x="290.3" y="661.2"/>
      <point x="323.9" y="588.9"/>
      <point x="325.2" y="403.5" type="curve"/>
      <point x="309.40000000000003" y="371.2"/>
      <point x="275.8" y="342.8"/>
    </contour>
  </outline>
</glyph>
<glyph name="colon" format="2">
  <advance width="263.40000000000003"/>
  <unicode hex="003A"/>
  <outline>
    <contour>
      <point x="131.0" y="389.90000000000003" type="curve" smooth="yes"/>
      <point x="169.4" y="389.90000000000003"/>
      <point x="203.20000000000002" y="408.5"/>
      <point x="203.20000000000002" y="465.0" type="curve" smooth="yes"/>
      <point x="203.20000000000002" y="522.5"/>
      <point x="169.4" y="540.1"/>
      <point x="131.0" y="540.1" type="curve" smooth="yes"/>
      <point x="90.60000000000001" y="540.1"/>
      <point x="59.5" y="522.5"/>
      <point x="59.5" y="465.0" type="curve" smooth="yes"/>
      <point x="59.5" y="408.5"/>
      <point x="90.60000000000001" y="389.90000000000003"/>
    </contour>
    <contour>
      <point x="131.0" y="-7.3" type="curve" smooth="yes"/>
      <point x="169.4" y="-7.3"/>
      <point x="203.20000000000002" y="10.6"/>
      <point x="203.20000000000002" y="67.8" type="curve" smooth="yes"/>
      <point x="203.20000000000002" y="124.6"/>
      <point x="169.4" y="142.9"/>
      <point x="131.0" y="142.9" type="curve" smooth="yes"/>
      <point x="90.60000000000001" y="142.9"/>
      <point x="59.5" y="124.6"/>
      <point x="59.5" y="67.8" type="curve" smooth="yes"/>
      <point x="59.5" y="10.6"/>
      <point x="90.60000000000001" y="-7.3"/>
    </contour>
  </outline>
</glyph>
<glyph name="semicolon" format="2">
  <advance width="263.40000000000003"/>
  <unicode hex="003B"/>
  <outline>
    <contour>
      <point x="47.300000000000004" y="-154.0" type="line"/>
      <point x="159.79999999999998" y="-120.39999999999999"/>
      <point x="201.8" y="-46.5"/>
      <point x="201.8" y="35.7" type="curve" smooth="yes"/>
      <point x="201.8" y="102.3"/>
      <point x="174.20000000000002" y="142.9"/>
      <point x="123.8" y="142.9" type="curve" smooth="yes"/>
      <point x="89.1" y="142.9"/>
      <point x="60.900000000000006" y="119.6"/>
      <point x="60.900000000000006" y="78.1" type="curve" smooth="yes"/>
      <point x="60.900000000000006" y="4.4"/>
      <point x="122.7" y="11.900000000000002"/>
      <point x="122.7" y="-24.700000000000003" type="curve" smooth="yes"/>
      <point x="122.7" y="-62.300000000000004"/>
      <point x="96.89999999999999" y="-85.2"/>
      <point x="47.300000000000004" y="-105.5" type="curve"/>
    </contour>
    <contour>
      <point x="131.0" y="389.90000000000003" type="curve" smooth="yes"/>
      <point x="170.1" y="389.90000000000003"/>
      <point x="203.20000000000002" y="408.5"/>
      <point x="203.20000000000002" y="465.0" type="curve" smooth="yes"/>
      <point x="203.20000000000002" y="522.5"/>
      <point x="170.1" y="540.1"/>
      <point x="131.0" y="540.1" type="curve" smooth="yes"/>
      <point x="90.60000000000001" y="540.1"/>
      <point x="59.5" y="522.5"/>
      <point x="59.5" y="465.0" type="curve" smooth="yes"/>
      <point x="59.5" y="408.5"/>
      <point x="90.60000000000001" y="389.90000000000003"/>
    </contour>
  </outline>
</glyph>
<glyph name="less" format="2">
  <advance width="465.2"/>
  <unicode hex="003C"/>
  <outline>
    <contour>
      <point x="419.1" y="105.4" type="line"/>
      <point x="419.1" y="182.3" type="line"/>
      <point x="139.79999999999998" y="357.0" type="line"/>
      <point x="419.1" y="533.7" type="line"/>
      <point x="419.1" y="610.5999999999999" type="line"/>
      <point x="46.1" y="377.3" type="line"/>
      <point x="46.1" y="337.7" type="line"/>
    </contour>
  </outline>
</glyph>
<glyph name="equal" format="2">
  <advance width="465.2"/>
  <unicode hex="003D"/>
  <outline>
    <contour>
      <point x="44.1" y="415.5" type="line"/>
      <point x="421.1" y="415.5" type="line"/>
      <point x="421.1" y="483.4" type="line"/>
      <point x="44.1" y="483.4" type="line"/>
    </contour>
    <contour>
      <point x="44.1" y="230.60000000000002" type="line"/>
      <point x="421.1" y="230.60000000000002" type="line"/>
      <point x="421.1" y="298.5" type="line"/>
      <point x="44.1" y="298.5" type="line"/>
    </contour>
  </outline>
</glyph>
<glyph name="greater" format="2">
  <advance width="465.2"/>
  <unicode hex="003E"/>
  <outline>
    <contour>
      <point x="46.1" y="105.4" type="line"/>
      <point x="419.1" y="337.7" type="line"/>
      <point x="419.1" y="377.3" type="line"/>
      <point x="46.1" y="610.5999999999999" type="line"/>
      <point x="46.1" y="533.7" type="line"/>
      <point x="324.7" y="357.0" type="line"/>
      <point x="46.1" y="182.3" type="line"/>
    </contour>
  </outline>
</glyph>
<glyph name="question" format="2">
  <advance width="484.2"/>
  <unicode hex="003F"/>
  <outline>
    <contour>
      <point x="191.9" y="223.1" type="line"/>
      <point x="241.0" y="223.1" type="line"/>
      <point x="263.09999999999997" y="321.8" type="line"/>
      <point x="379.3" y="375.40000000000003"/>
      <point x="434.8" y="434.40000000000003"/>
      <point x="434.8" y="542.0999999999999" type="curve" smooth="yes"/>
      <point x="434.8" y="657.4"/>
      <point x="349.0" y="724.0"/>
      <point x="220.6" y="724.0" type="curve" smooth="yes"/>
      <point x="92.5" y="724.0"/>
      <point x="32.8" y="669.5"/>
      <point x="32.8" y="607.3" type="curve" smooth="yes"/>
      <point x="32.8" y="556.1"/>
      <point x="79.2" y="537.3000000000001"/>
      <point x="152.79999999999998" y="537.3000000000001" type="curve"/>
      <point x="152.79999999999998" y="614.4000000000001"/>
      <point x="172.8" y="666.8000000000001"/>
      <point x="223.7" y="666.8000000000001" type="curve" smooth="yes"/>
      <point x="269.59999999999997" y="666.8000000000001"/>
      <point x="292.6" y="617.9000000000001"/>
      <point x="292.6" y="551.8000000000001" type="curve" smooth="yes"/>
      <point x="292.6" y="470.0"/>
      <point x="269.8" y="394.90000000000003"/>
      <point x="170.5" y="348.90000000000003" type="curve"/>
    </contour>
    <contour>
      <point x="215.3" y="-7.3" type="curve" smooth="yes"/>
      <point x="253.7" y="-7.3"/>
      <point x="287.5" y="10.6"/>
      <point x="287.5" y="67.8" type="curve" smooth="yes"/>
      <point x="287.5" y="124.6"/>
      <point x="253.7" y="142.9"/>
      <point x="215.3" y="142.9" type="curve" smooth="yes"/>
      <point x="174.9" y="142.9"/>
      <point x="143.1" y="124.6"/>
      <point x="143.1" y="67.8" type="curve" smooth="yes"/>
      <point x="143.1" y="10.6"/>
      <point x="174.9" y="-7.3"/>
    </contour>
  </outline>
</glyph>
<glyph name="bracketleft" format="2">
  <advance width="364.3"/>
  <unicode hex="005B"/>
  <outline>
    <contour>
      <point x="86.7" y="-128.0" type="line"/>
      <point x="332.2" y="-128.0" type="line"/>
      <point x="332.2" y="-77.8" type="line"/>
      <point x="294.8" y="-77.8" type="line" smooth="yes"/>
      <point x="255.40000000000003" y="-77.8"/>
      <point x="223.3" y="-68.8"/>
      <point x="223.3" y="-5.8" type="curve" smooth="yes"/>
      <point x="223.3" y="637.8000000000001" type="line" smooth="yes"/>
      <point x="223.3" y="700.8000000000001"/>
      <point x="255.40000000000003" y="709.8000000000001"/>
      <point x="294.8" y="709.8000000000001" type="curve" smooth="yes"/>
      <point x="332.2" y="709.8000000000001" type="line"/>
      <point x="332.2" y="760.0" type="line"/>
      <point x="86.7" y="760.0" type="line"/>
    </contour>
  </outline>
</glyph>
<glyph name="backslash" format="2">
  <advance width="250.9"/>
  <unicode hex="005C"/>
  <outline>
    <contour>
      <point x="187.3" y="-121.0" type="line"/>
      <point x="250.9" y="-121.0" type="line"/>
      <point x="63.300000000000004" y="760.0" type="line"/>
      <point x="0.0" y="760.0" type="line"/>
    </contour>
  </outline>
</glyph>
<glyph name="bracketright" format="2">
  <advance width="364.3"/>
  <unicode hex="005D"/>
  <outline>
    <contour>
      <point x="32.1" y="-128.0" type="line"/>
      <point x="277.59999999999997" y="-128.0" type="line"/>
      <point x="277.59999999999997" y="760.0" type="line"/>
      <point x="32.1" y="760.0" type="line"/>
      <point x="32.1" y="709.8000000000001" type="line"/>
      <point x="69.5" y="709.8000000000001" type="line" smooth="yes"/>
      <point x="108.89999999999999" y="709.8000000000001"/>
      <point x="141.0" y="700.8000000000001"/>
      <point x="141.0" y="637.8000000000001" type="curve" smooth="yes"/>
      <point x="141.0" y="-5.8" type="line" smooth="yes"/>
      <point x="141.0" y="-68.8"/>
      <point x="108.89999999999999" y="-77.8"/>
      <point x="69.5" y="-77.8" type="curve" smooth="yes"/>
      <point x="32.1" y="-77.8" type="line"/>
    </contour>
  </outline>
</glyph>
<glyph name="asciicircum" format="2">
  <advance width="465.2"/>
  <unicode hex="005E"/>
  <outline>
    <contour>
      <point x="29.200000000000003" y="263.4" type="line"/>
      <point x="97.4" y="263.4" type="line"/>
      <point x="231.1" y="608.5" type="line"/>
      <point x="366.8" y="263.4" type="line"/>
      <point x="435.0" y="263.4" type="line"/>
      <point x="250.3" y="714.0" type="line"/>
      <point x="212.89999999999998" y="714.0" type="line"/>
    </contour>
  </outline>
</glyph>
<glyph name="underscore" format="2">
  <advance width="398.8"/>
  <unicode hex="005F"/>
  <outline>
    <contour>
      <point x="-5.0" y="-142.0" type="line"/>
      <point x="403.09999999999997" y="-142.0" type="line"/>
      <point x="403.09999999999997" y="-83.0" type="line"/>
      <point x="-5.0" y="-83.0" type="line"/>
    </contour>
  </outline>
</glyph>
<glyph name="braceleft" format="2">
  <advance width="385.3"/>
  <unicode hex="007B"/>
  <outline>
    <contour>
      <point x="276.4" y="-125.7" type="curve" smooth="yes"/>
      <point x="360.90000000000003" y="-125.7" type="line"/>
      <point x="360.90000000000003" y="-74.8" type="line"/>
      <point x="326.1" y="-74.8" type="line" smooth="yes"/>
      <point x="276.8" y="-74.8"/>
      <point x="264.9" y="-39.800000000000004"/>
      <point x="264.9" y="24.6" type="curve" smooth="yes"/>
      <point x="264.9" y="195.60000000000002" type="line" smooth="yes"/>
      <point x="264.9" y="257.7"/>
      <point x="235.8" y="298.09999999999997"/>
      <point x="169.6" y="315.7" type="curve"/>
      <point x="169.6" y="322.3" type="line"/>
      <point x="236.79999999999998" y="338.2"/>
      <point x="264.9" y="378.6"/>
      <point x="264.9" y="440.7" type="curve" smooth="yes"/>
      <point x="264.9" y="610.7" type="line" smooth="yes"/>
      <point x="264.9" y="675.1"/>
      <point x="276.8" y="709.8000000000001"/>
      <point x="326.1" y="709.8000000000001" type="curve" smooth="yes"/>
      <point x="360.90000000000003" y="709.8000000000001" type="line"/>
      <point x="360.90000000000003" y="760.0" type="line"/>
      <point x="276.4" y="760.0" type="line" smooth="yes"/>
      <point x="177.0" y="760.0"/>
      <point x="125.7" y="707.7"/>
      <point x="125.7" y="614.7" type="curve" smooth="yes"/>
      <point x="125.7" y="442.7" type="line" smooth="yes"/>
      <point x="125.7" y="366.3"/>
      <point x="81.7" y="348.2"/>
      <point x="24.4" y="346.2" type="curve"/>
      <point x="24.4" y="290.09999999999997" type="line"/>
      <point x="81.7" y="287.09999999999997"/>
      <point x="125.7" y="270.7"/>
      <point x="125.7" y="192.60000000000002" type="curve" smooth="yes"/>
      <point x="125.7" y="21.6" type="line" smooth="yes"/>
      <point x="125.7" y="-69.4"/>
      <point x="177.0" y="-125.7"/>
    </contour>
  </outline>
</glyph>
<glyph name="bar" format="2">
  <advance width="486.90000000000003"/>
  <unicode hex="007C"/>
  <outline>
    <contour>
      <point x="210.79999999999998" y="-240.0" type="line"/>
      <point x="275.09999999999997" y="-240.0" type="line"/>
      <point x="275.09999999999997" y="760.0" type="line"/>
      <point x="210.79999999999998" y="760.0" type="line"/>
    </contour>
  </outline>
</glyph>
<glyph name="braceright" format="2">
  <advance width="385.3"/>
  <unicode hex="007D"/>
  <outline>
    <contour>
      <point x="24.4" y="-125.7" type="line"/>
      <point x="108.89999999999999" y="-125.7" type="line" smooth="yes"/>
      <point x="208.3" y="-125.7"/>
      <point x="259.6" y="-69.4"/>
      <point x="259.6" y="21.6" type="curve" smooth="yes"/>
      <point x="259.6" y="192.60000000000002" type="line" smooth="yes"/>
      <point x="259.6" y="270.7"/>
      <point x="305.0" y="287.09999999999997"/>
      <point x="360.90000000000003" y="290.09999999999997" type="curve"/>
      <point x="360.90000000000003" y="346.2" type="line"/>
      <point x="305.0" y="348.2"/>
      <point x="259.6" y="366.3"/>
      <point x="259.6" y="442.7" type="curve" smooth="yes"/>
      <point x="259.6" y="614.7" type="line" smooth="yes"/>
      <point x="259.6" y="707.7"/>
      <point x="208.3" y="760.0"/>
      <point x="108.89999999999999" y="760.0" type="curve" smooth="yes"/>
      <point x="24.4" y="760.0" type="line"/>
      <point x="24.4" y="709.8000000000001" type="line"/>
      <point x="59.2" y="709.8000000000001" type="line" smooth="yes"/>
      <point x="108.5" y="709.8000000000001"/>
      <point x="120.4" y="675.1"/>
      <point x="120.4" y="610.7" type="curve" smooth="yes"/>
      <point x="120.4" y="440.7" type="line" smooth="yes"/>
      <point x="120.4" y="378.6"/>
      <point x="148.5" y="338.2"/>
      <point x="216.4" y="322.3" type="curve"/>
      <point x="216.4" y="315.7" type="line"/>
      <point x="149.5" y="298.09999999999997"/>
      <point x="120.4" y="257.7"/>
      <point x="120.4" y="195.60000000000002" type="curve" smooth="yes"/>
      <point x="120.4" y="24.6" type="line" smooth="yes"/>
      <point x="120.4" y="-39.800000000000004"/>
      <point x="108.5" y="-74.8"/>
      <point x="59.2" y="-74.8" type="curve" smooth="yes"/>
      <point x="24.4" y="-74.8" type="line"/>
    </contour>
  </outline>
</glyph>
<glyph name="asciitilde" format="2">
  <advance width="465.2"/>
  <unicode hex="007E"/>
  <outline>
    <contour>
      <point x="27.1" y="263.4" type="curve"/>
      <point x="93.8" y="263.4" type="line"/>
      <point x="96.2" y="345.8"/>
      <point x="112.7" y="380.8"/>
      <point x="145.7" y="380.8" type="curve" smooth="yes"/>
      <point x="165.0" y="380.8"/>
      <point x="177.10000000000002" y="367.6"/>
      <point x="214.0" y="328.40000000000003" type="curve" smooth="yes"/>
      <point x="263.2" y="274.79999999999995"/>
      <point x="290.3" y="263.4"/>
      <point x="324.2" y="263.4" type="curve" smooth="yes"/>
      <point x="409.8" y="263.4"/>
      <point x="436.59999999999997" y="350.59999999999997"/>
      <point x="439.2" y="449.6" type="curve"/>
      <point x="371.5" y="449.6" type="line"/>
      <point x="369.20000000000005" y="367.40000000000003"/>
      <point x="353.7" y="332.9"/>
      <point x="322.20000000000005" y="332.9" type="curve" smooth="yes"/>
      <point x="301.5" y="332.9"/>
      <point x="289.59999999999997" y="349.0"/>
      <point x="256.3" y="382.6" type="curve" smooth="yes"/>
      <point x="209.0" y="429.6"/>
      <point x="183.3" y="449.6"/>
      <point x="143.0" y="449.6" type="curve" smooth="yes"/>
      <point x="55.0" y="449.6"/>
      <point x="28.5" y="360.40000000000003"/>
    </contour>
  </outline>
</glyph>
<glyph name="twosuperior" format="2">
  <advance width="348.2"/>
  <unicode hex="00B2"/>
  <outline>
    <contour>
      <point x="27.2" y="387.0" type="line"/>
      <point x="312.3" y="387.0" type="line"/>
      <point x="315.6" y="525.0" type="line"/>
      <point x="285.6" y="525.0" type="line"/>
      <point x="280.6" y="498.0" type="line"/>
      <point x="276.6" y="478.3"/>
      <point x="268.0" y="464.3"/>
      <point x="244.2" y="464.3" type="curve"/>
      <point x="96.10000000000001" y="464.3" type="line"/>
      <point x="161.29999999999998" y="523.4" type="line"/>
      <point x="271.0" y="608.8"/>
      <point x="305.3" y="645.0"/>
      <point x="305.3" y="711.0" type="curve" smooth="yes"/>
      <point x="305.3" y="778.8"/>
      <point x="264.2" y="825.0"/>
      <point x="167.4" y="825.0" type="curve" smooth="yes"/>
      <point x="76.8" y="825.0"/>
      <point x="32.400000000000006" y="786.2"/>
      <point x="32.400000000000006" y="738.2" type="curve" smooth="yes"/>
      <point x="32.400000000000006" y="702.9000000000001"/>
      <point x="60.2" y="687.3000000000001"/>
      <point x="110.5" y="687.3000000000001" type="curve"/>
      <point x="110.5" y="738.9"/>
      <point x="119.30000000000001" y="780.0"/>
      <point x="160.4" y="780.0" type="curve" smooth="yes"/>
      <point x="191.6" y="780.0"/>
      <point x="206.0" y="753.6"/>
      <point x="206.0" y="710.6" type="curve" smooth="yes"/>
      <point x="206.0" y="651.4"/>
      <point x="180.29999999999998" y="610.4"/>
      <point x="121.80000000000001" y="551.6999999999999" type="curve" smooth="yes"/>
      <point x="27.2" y="455.5" type="line"/>
    </contour>
  </outline>
</glyph>
<glyph name="threesuperior" format="2">
  <advance width="348.2"/>
  <unicode hex="00B3"/>
  <outline>
    <contour>
      <point x="151.0" y="380.0" type="curve" smooth="yes"/>
      <point x="246.3" y="380.0"/>
      <point x="318.1" y="423.5"/>
      <point x="318.1" y="509.59999999999997" type="curve" smooth="yes"/>
      <point x="318.1" y="575.6999999999999"/>
      <point x="271.8" y="602.7"/>
      <point x="218.20000000000002" y="612.0" type="curve"/>
      <point x="218.20000000000002" y="615.6" type="line"/>
      <point x="267.2" y="630.9"/>
      <point x="303.2" y="664.9"/>
      <point x="303.2" y="723.6" type="curve" smooth="yes"/>
      <point x="303.2" y="785.6"/>
      <point x="257.9" y="824.0"/>
      <point x="166.60000000000002" y="824.0" type="curve" smooth="yes"/>
      <point x="76.4" y="824.0"/>
      <point x="34.1" y="783.3000000000001"/>
      <point x="34.1" y="737.1" type="curve" smooth="yes"/>
      <point x="34.1" y="703.5"/>
      <point x="60.8" y="692.7"/>
      <point x="107.8" y="692.7" type="curve"/>
      <point x="107.8" y="741.5"/>
      <point x="116.3" y="780.4"/>
      <point x="157.6" y="780.4" type="curve" smooth="yes"/>
      <point x="188.1" y="780.4"/>
      <point x="203.89999999999998" y="758.1"/>
      <point x="203.89999999999998" y="715.6999999999999" type="curve" smooth="yes"/>
      <point x="203.89999999999998" y="664.7"/>
      <point x="179.79999999999998" y="632.3000000000001"/>
      <point x="133.29999999999998" y="632.3000000000001" type="curve" smooth="yes"/>
      <point x="102.4" y="632.3000000000001" type="line"/>
      <point x="102.4" y="586.0" type="line"/>
      <point x="132.60000000000002" y="586.0" type="line" smooth="yes"/>
      <point x="194.39999999999998" y="586.0"/>
      <point x="216.9" y="557.3"/>
      <point x="216.9" y="511.59999999999997" type="curve" smooth="yes"/>
      <point x="216.9" y="451.5"/>
      <point x="186.2" y="428.90000000000003"/>
      <point x="145.70000000000002" y="428.90000000000003" type="curve" smooth="yes"/>
      <point x="100.2" y="428.90000000000003"/>
      <point x="79.3" y="466.0"/>
      <point x="79.3" y="513.8" type="curve"/>
      <point x="40.699999999999996" y="513.8"/>
      <point x="21.9" y="495.70000000000005"/>
      <point x="21.9" y="464.8" type="curve" smooth="yes"/>
      <point x="21.9" y="415.8"/>
      <point x="62.6" y="380.0"/>
    </contour>
  </outline>
</glyph>
<glyph name="multiply" format="2">
  <advance width="465.2"/>
  <unicode hex="00D7"/>
  <outline>
    <contour>
      <point x="101.9" y="158.6" type="line"/>
      <point x="232.79999999999998" y="308.0" type="line"/>
      <point x="362.6" y="160.0" type="line"/>
      <point x="411.90000000000003" y="203.70000000000002" type="line"/>
      <point x="277.2" y="358.7" type="line"/>
      <point x="411.90000000000003" y="513.0" type="line"/>
      <point x="361.6" y="557.0" type="line"/>
      <point x="232.79999999999998" y="409.70000000000005" type="line"/>
      <point x="102.6" y="558.0999999999999" type="line"/>
      <point x="52.300000000000004" y="514.4" type="line"/>
      <point x="188.1" y="359.0" type="line"/>
      <point x="52.300000000000004" y="202.6" type="line"/>
    </contour>
  </outline>
</glyph>
<glyph name="divide" format="2">
  <advance width="465.2"/>
  <unicode hex="00F7"/>
  <outline>
    <contour>
      <point x="46.1" y="323.4" type="line"/>
      <point x="419.1" y="323.4" type="line"/>
      <point x="419.1" y="391.6" type="line"/>
      <point x="46.1" y="391.6" type="line"/>
    </contour>
    <contour>
      <point x="233.1" y="108.4" type="curve" smooth="yes"/>
      <point x="260.6" y="108.4"/>
      <point x="283.5" y="124.4"/>
      <point x="283.5" y="168.0" type="curve" smooth="yes"/>
      <point x="283.5" y="212.60000000000002"/>
      <point x="260.6" y="227.60000000000002"/>
      <point x="233.1" y="227.60000000000002" type="curve" smooth="yes"/>
      <point x="203.9" y="227.60000000000002"/>
      <point x="182.0" y="212.60000000000002"/>
      <point x="182.0" y="168.0" type="curve" smooth="yes"/>
      <point x="182.0" y="124.4"/>
      <point x="203.9" y="108.4"/>
    </contour>
    <contour>
      <point x="233.1" y="487.4" type="curve" smooth="yes"/>
      <point x="260.6" y="487.4"/>
      <point x="283.5" y="503.4"/>
      <point x="283.5" y="547.0" type="curve" smooth="yes"/>
      <point x="283.5" y="591.5999999999999"/>
      <point x="260.6" y="606.5999999999999"/>
      <point x="233.1" y="606.5999999999999" type="curve" smooth="yes"/>
      <point x="203.9" y="606.5999999999999"/>
      <point x="182.0" y="591.5999999999999"/>
      <point x="182.0" y="547.0" type="curve" smooth="yes"/>
      <point x="182.0" y="503.4"/>
      <point x="203.9" y="487.4"/>
    </contour>
  </outline>
</glyph>
<glyph name="udatta-deva" format="2">
  <unicode hex="0951"/>
  <anchor x="0.0" y="564.4" name="_vedic"/>
  <outline>
    <contour>
      <point x="-33.0" y="934.9" type="line"/>
      <point x="33.0" y="934.9" type="line"/>
      <point x="33.0" y="1137.1" type="line"/>
      <point x="-33.0" y="1137.1" type="line"/>
    </contour>
  </outline>
</glyph>
<glyph name="anudatta-deva" format="2">
  <unicode hex="0952"/>
  <anchor x="0.0" y="0.0" name="_bottom"/>
  <outline>
    <contour>
      <point x="-197.79999999999998" y="-559.2" type="line"/>
      <point x="197.79999999999998" y="-559.2" type="line"/>
      <point x="197.79999999999998" y="-473.8" type="line"/>
      <point x="-197.79999999999998" y="-473.8" type="line"/>
    </contour>
  </outline>
</glyph>
<glyph name="danda-deva" format="2">
  <advance width="298.5"/>
  <unicode hex="0964"/>
  <outline>
    <contour>
      <point x="74.1" y="0.0" type="line"/>
      <point x="223.7" y="0.0" type="line"/>
      <point x="223.7" y="564.4" type="line"/>
      <point x="74.1" y="564.4" type="line"/>
    </contour>
  </outline>
</glyph>
<glyph name="dbldanda-deva" format="2">
  <advance width="547.8000000000001"/>
  <unicode hex="0965"/>
  <outline>
    <contour>
      <point x="324.1" y="0.0" type="line"/>
      <point x="473.7" y="0.0" type="line"/>
      <point x="473.7" y="564.4" type="line"/>
      <point x="324.1" y="564.4" type="line"/>
    </contour>
    <contour>
      <point x="74.1" y="0.0" type="line"/>
      <point x="223.7" y="0.0" type="line"/>
      <point x="223.7" y="564.4" type="line"/>
      <point x="74.1" y="564.4" type="line"/>
    </contour>
  </outline>
</glyph>
<glyph name="anusvara-tamil" format="2">
  <unicode hex="0B82"/>
  <note>
uni0B82
</note>
  <anchor x="0.0" y="564.4" name="_top"/>
  <outline>
    <contour>
      <point x="0.0" y="625.6" type="curve" smooth="yes"/>
      <point x="73.4" y="625.6"/>
      <point x="131.79999999999998" y="680.3"/>
      <point x="131.79999999999998" y="754.6" type="curve" smooth="yes"/>
      <point x="131.79999999999998" y="828.9"/>
      <point x="73.4" y="882.9"/>
      <point x="0.0" y="882.9" type="curve" smooth="yes"/>
      <point x="-73.4" y="882.9"/>
      <point x="-131.79999999999998" y="828.9"/>
      <point x="-131.79999999999998" y="754.6" type="curve" smooth="yes"/>
      <point x="-131.79999999999998" y="680.3"/>
      <point x="-73.4" y="625.6"/>
    </contour>
    <contour>
      <point x="0.0" y="697.7" type="curve" smooth="yes"/>
      <point x="-30.5" y="697.7"/>
      <point x="-56.0" y="722.5"/>
      <point x="-56.0" y="754.6" type="curve" smooth="yes"/>
      <point x="-56.0" y="786.4"/>
      <point x="-30.5" y="811.2"/>
      <point x="0.0" y="811.2" type="curve" smooth="yes"/>
      <point x="30.5" y="811.2"/>
      <point x="56.0" y="786.4"/>
      <point x="56.0" y="754.6" type="curve" smooth="yes"/>
      <point x="56.0" y="722.5"/>
      <point x="30.5" y="697.7"/>
    </contour>
  </outline>
</glyph>
<glyph name="visarga-tamil" format="2">
  <advance width="783.5"/>
  <unicode hex="0B83"/>
  <note>
uni0B83
</note>
  <outline>
    <contour>
      <point x="579.0" y="-2.9000000000000004" type="curve" smooth="yes"/>
      <point x="676.1" y="-2.9000000000000004"/>
      <point x="738.3000000000001" y="67.9"/>
      <point x="738.3000000000001" y="185.4" type="curve" smooth="yes"/>
      <point x="738.3000000000001" y="302.2"/>
      <point x="676.0999999999999" y="372.7"/>
      <point x="580.4" y="372.7" type="curve" smooth="yes"/>
      <point x="485.2" y="372.7"/>
      <point x="430.4" y="295.0"/>
      <point x="430.4" y="183.3" type="curve" smooth="yes"/>
      <point x="430.4" y="73.7"/>
      <point x="483.1" y="-2.9000000000000004"/>
    </contour>
    <contour>
      <point x="195.79999999999998" y="-2.9000000000000004" type="curve" smooth="yes"/>
      <point x="292.90000000000003" y="-2.9000000000000004"/>
      <point x="354.1" y="67.9"/>
      <point x="354.1" y="185.4" type="curve" smooth="yes"/>
      <point x="354.1" y="302.2"/>
      <point x="292.2" y="372.7"/>
      <point x="196.5" y="372.7" type="curve" smooth="yes"/>
      <point x="101.0" y="372.7"/>
      <point x="46.2" y="295.0"/>
      <point x="46.2" y="183.3" type="curve" smooth="yes"/>
      <point x="46.2" y="73.7"/>
      <point x="98.9" y="-2.9000000000000004"/>
    </contour>
    <contour>
      <point x="389.7" y="429.6" type="curve" smooth="yes"/>
      <point x="486.8" y="429.6"/>
      <point x="548.7" y="501.6"/>
      <point x="548.7" y="617.6" type="curve" smooth="yes"/>
      <point x="548.7" y="734.4"/>
      <point x="486.8" y="804.9"/>
      <point x="391.09999999999997" y="804.9" type="curve" smooth="yes"/>
      <point x="295.90000000000003" y="804.9"/>
      <point x="240.79999999999998" y="727.2"/>
      <point x="240.79999999999998" y="616.2" type="curve" smooth="yes"/>
      <point x="240.79999999999998" y="506.6"/>
      <point x="293.79999999999995" y="429.6"/>
    </contour>
    <contour>
      <point x="177.0" y="59.4" type="curve" smooth="yes"/>
      <point x="131.0" y="59.4"/>
      <point x="106.39999999999999" y="107.5"/>
      <point x="106.39999999999999" y="185.4" type="curve" smooth="yes"/>
      <point x="106.39999999999999" y="261.59999999999997"/>
      <point x="131.7" y="310.4"/>
      <point x="178.4" y="310.4" type="curve" smooth="yes"/>
      <point x="223.6" y="310.4"/>
      <point x="246.89999999999998" y="266.5"/>
      <point x="246.89999999999998" y="185.4" type="curve" smooth="yes"/>
      <point x="246.89999999999998" y="102.6"/>
      <point x="223.6" y="59.4"/>
    </contour>
    <contour>
      <point x="371.9" y="491.9" type="curve" smooth="yes"/>
      <point x="325.6" y="491.9"/>
      <point x="301.3" y="540.4"/>
      <point x="301.3" y="617.6" type="curve" smooth="yes"/>
      <point x="301.3" y="693.8"/>
      <point x="325.6" y="742.6"/>
      <point x="372.59999999999997" y="742.6" type="curve" smooth="yes"/>
      <point x="418.5" y="742.6"/>
      <point x="441.5" y="698.7"/>
      <point x="441.5" y="617.6" type="curve" smooth="yes"/>
      <point x="441.5" y="534.8"/>
      <point x="417.8" y="491.9"/>
    </contour>
    <contour>
      <point x="561.2" y="59.4" type="curve" smooth="yes"/>
      <point x="515.2" y="59.4"/>
      <point x="489.90000000000003" y="107.5"/>
      <point x="489.90000000000003" y="185.4" type="curve" smooth="yes"/>
      <point x="489.90000000000003" y="261.59999999999997"/>
      <point x="515.2" y="310.4"/>
      <point x="561.9" y="310.4" type="curve" smooth="yes"/>
      <point x="607.8" y="310.4"/>
      <point x="630.8000000000001" y="266.5"/>
      <point x="630.8000000000001" y="185.4" type="curve" smooth="yes"/>
      <point x="630.8000000000001" y="102.6"/>
      <point x="607.1" y="59.4"/>
    </contour>
  </outline>
</glyph>
<glyph name="a-tamil" format="2">
  <advance width="1175.8"/>
  <unicode hex="0B85"/>
  <note>
uni0B85
</note>
  <anchor x="570.1999999999999" y="0.0" name="bottom"/>
  <anchor x="392.0" y="-143.3" name="nukta"/>
  <anchor x="571.4" y="564.4" name="top"/>
  <anchor x="572.1" y="564.4" name="vedic"/>
  <outline>
    <contour>
      <point x="956.3" y="-210.5" type="line"/>
      <point x="1104.4" y="-210.5" type="line"/>
      <point x="1104.4" y="564.4" type="line"/>
      <point x="956.3" y="564.4" type="line"/>
      <point x="956.3" y="164.3" type="line"/>
      <point x="111.2" y="164.3" type="line" smooth="yes"/>
      <point x="58.199999999999996" y="164.3"/>
      <point x="27.6" y="131.8"/>
      <point x="27.6" y="83.6" type="curve" smooth="yes"/>
      <point x="27.6" y="-27.6"/>
      <point x="174.4" y="-143.3"/>
      <point x="392.0" y="-143.3" type="curve" smooth="yes"/>
      <point x="669.6" y="-143.3"/>
      <point x="857.5" y="-1.7999999999999998"/>
      <point x="857.5" y="239.5" type="curve" smooth="yes"/>
      <point x="857.5" y="440.3"/>
      <point x="726.4" y="569.4"/>
      <point x="544.8" y="569.4" type="curve" smooth="yes"/>
      <point x="401.8" y="569.4"/>
      <point x="324.8" y="485.8"/>
      <point x="324.8" y="378.4" type="curve" smooth="yes"/>
      <point x="324.8" y="290.1"/>
      <point x="385.9" y="226.0"/>
      <point x="473.3" y="226.0" type="curve" smooth="yes"/>
      <point x="562.5" y="226.0"/>
      <point x="620.7" y="281.2"/>
      <point x="620.7" y="368.2" type="curve" smooth="yes"/>
      <point x="620.7" y="445.4"/>
      <point x="566.6" y="512.1"/>
      <point x="494.0" y="526.1" type="curve"/>
      <point x="437.09999999999997" y="518.3" type="line"/>
      <point x="487.2" y="497.6"/>
      <point x="525.4" y="443.9"/>
      <point x="525.4" y="384.6" type="curve" smooth="yes"/>
      <point x="525.4" y="338.2"/>
      <point x="501.7" y="300.1"/>
      <point x="457.3" y="300.1" type="curve" smooth="yes"/>
      <point x="422.8" y="300.1"/>
      <point x="390.8" y="326.5"/>
      <point x="390.8" y="384.5" type="curve" smooth="yes"/>
      <point x="390.8" y="449.9"/>
      <point x="435.70000000000005" y="507.4"/>
      <point x="527.1" y="507.4" type="curve" smooth="yes"/>
      <point x="630.6" y="507.4"/>
      <point x="714.7" y="423.1"/>
      <point x="714.7" y="255.8" type="curve" smooth="yes"/>
      <point x="714.7" y="25.4"/>
      <point x="556.4" y="-81.3"/>
      <point x="372.29999999999995" y="-81.3" type="curve" smooth="yes"/>
      <point x="208.8" y="-81.3"/>
      <point x="97.0" y="5.399999999999999"/>
      <point x="97.0" y="75.0" type="curve" smooth="yes"/>
      <point x="97.0" y="92.3"/>
      <point x="106.0" y="103.3"/>
      <point x="127.4" y="103.3" type="curve" smooth="yes"/>
      <point x="956.3" y="103.3" type="line"/>
    </contour>
  </outline>
</glyph>
<glyph name="aa-tamil" format="2">
  <advance width="1378.7"/>
  <unicode hex="0B86"/>
  <note>
uni0B86
</note>
  <anchor x="682.6" y="0.0" name="bottom"/>
  <anchor x="392.0" y="-143.3" name="nukta"/>
  <anchor x="683.5" y="564.4" name="top"/>
  <anchor x="684.5" y="564.4" name="vedic"/>
  <outline>
    <contour>
      <point x="936.0" y="-423.59999999999997" type="curve" smooth="yes"/>
      <point x="1157.6999999999998" y="-423.59999999999997"/>
      <point x="1360.1000000000001" y="-304.7"/>
      <point x="1360.1000000000001" y="-82.80000000000001" type="curve" smooth="yes"/>
      <point x="1360.1000000000001" y="22.9"/>
      <point x="1307.3999999999999" y="83.3"/>
      <point x="1224.8" y="83.3" type="curve" smooth="yes"/>
      <point x="1140.5" y="83.3"/>
      <point x="1083.7" y="17.9"/>
      <point x="1075.0" y="-97.2" type="curve"/>
      <point x="1102.3000000000002" y="-104.9" type="line"/>
      <point x="1101.6000000000001" y="-48.800000000000004"/>
      <point x="1132.3000000000002" y="-20.8"/>
      <point x="1163.9" y="-20.8" type="curve" smooth="yes"/>
      <point x="1199.2" y="-20.8"/>
      <point x="1219.6999999999998" y="-48.199999999999996"/>
      <point x="1219.6999999999998" y="-94.89999999999999" type="curve" smooth="yes"/>
      <point x="1219.0" y="-267.3"/>
      <point x="1083.6999999999998" y="-363.3"/>
      <point x="927.1999999999999" y="-363.3" type="curve" smooth="yes"/>
      <point x="840.7" y="-363.3"/>
      <point x="756.5" y="-335.59999999999997"/>
      <point x="756.5" y="-270.8" type="curve" smooth="yes"/>
      <point x="756.5" y="-224.2"/>
      <point x="792.9" y="-199.20000000000002"/>
      <point x="848.3" y="-188.3" type="curve"/>
      <point x="835.0" y="-129.70000000000002" type="line"/>
      <point x="748.5" y="-149.2"/>
      <point x="692.0999999999999" y="-192.79999999999998"/>
      <point x="692.0999999999999" y="-267.5" type="curve" smooth="yes"/>
      <point x="692.0999999999999" y="-370.1"/>
      <point x="799.2" y="-423.59999999999997"/>
    </contour>
    <component base="a-tamil"/>
  </outline>
</glyph>
<glyph name="i-tamil" format="2">
  <advance width="914.6999999999999"/>
  <unicode hex="0B87"/>
  <note>
uni0B87
</note>
  <anchor x="436.7" y="0.0" name="bottom"/>
  <anchor x="434.7" y="-277.90000000000003" name="nukta"/>
  <anchor x="455.90000000000003" y="840.6" name="top"/>
  <anchor x="442.7" y="564.4" name="vedic"/>
  <outline>
    <contour>
      <point x="209.8" y="-317.3" type="curve" smooth="yes"/>
      <point x="492.3" y="-317.3"/>
      <point x="718.8000000000001" y="-62.7"/>
      <point x="718.8000000000001" y="231.5" type="curve" smooth="yes"/>
      <point x="718.8000000000001" y="437.2"/>
      <point x="608.2" y="569.4"/>
      <point x="431.4" y="569.4" type="curve" smooth="yes"/>
      <point x="294.5" y="569.4"/>
      <point x="220.1" y="487.8"/>
      <point x="220.1" y="378.8" type="curve" smooth="yes"/>
      <point x="220.1" y="290.4"/>
      <point x="279.8" y="229.0"/>
      <point x="360.29999999999995" y="229.0" type="curve" smooth="yes"/>
      <point x="446.8" y="229.0"/>
      <point x="504.3" y="282.5"/>
      <point x="504.3" y="369.1" type="curve" smooth="yes"/>
      <point x="504.3" y="444.2"/>
      <point x="446.0" y="510.2"/>
      <point x="372.4" y="528.4" type="curve"/>
      <point x="322.3" y="520.3" type="line"/>
      <point x="375.2" y="499.3"/>
      <point x="408.0" y="444.8"/>
      <point x="408.0" y="384.4" type="curve" smooth="yes"/>
      <point x="408.0" y="337.2"/>
      <point x="386.3" y="302.5"/>
      <point x="344.7" y="302.5" type="curve" smooth="yes"/>
      <point x="310.40000000000003" y="302.5"/>
      <point x="283.40000000000003" y="331.0"/>
      <point x="283.40000000000003" y="383.8" type="curve" smooth="yes"/>
      <point x="283.40000000000003" y="449.9"/>
      <point x="321.9" y="507.7"/>
      <point x="414.1" y="507.7" type="curve" smooth="yes"/>
      <point x="531.6999999999999" y="507.7"/>
      <point x="578.1" y="396.9"/>
      <point x="578.1" y="246.0" type="curve" smooth="yes"/>
      <point x="578.1" y="-11.400000000000006"/>
      <point x="463.4" y="-254.6"/>
      <point x="211.9" y="-254.6" type="curve" smooth="yes"/>
      <point x="143.9" y="-254.6"/>
      <point x="103.7" y="-220.9"/>
      <point x="103.7" y="-159.4" type="curve" smooth="yes"/>
      <point x="103.7" y="-33.9"/>
      <point x="275.8" y="48.1"/>
      <point x="436.7" y="48.1" type="curve" smooth="yes"/>
      <point x="601.9" y="48.1"/>
      <point x="779.0" y="-27.299999999999997"/>
      <point x="779.0" y="-155.9" type="curve" smooth="yes"/>
      <point x="779.0" y="-226.5"/>
      <point x="730.8" y="-254.6"/>
      <point x="664.1" y="-254.6" type="curve" smooth="yes"/>
      <point x="421.79999999999995" y="-254.6"/>
      <point x="120.0" y="61.7"/>
      <point x="120.0" y="364.5" type="curve" smooth="yes"/>
      <point x="120.0" y="616.5"/>
      <point x="266.5" y="722.8"/>
      <point x="455.29999999999995" y="722.8" type="curve" smooth="yes"/>
      <point x="661.6" y="722.8"/>
      <point x="802.5999999999999" y="590.1"/>
      <point x="802.5999999999999" y="340.90000000000003" type="curve" smooth="yes"/>
      <point x="802.5999999999999" y="97.7" type="line"/>
      <point x="869.1" y="97.7" type="line"/>
      <point x="869.1" y="346.70000000000005" type="line" smooth="yes"/>
      <point x="869.1" y="681.6"/>
      <point x="704.6999999999999" y="840.6"/>
      <point x="455.90000000000003" y="840.6" type="curve" smooth="yes"/>
      <point x="213.0" y="840.6"/>
      <point x="47.6" y="677.9"/>
      <point x="47.6" y="410.3" type="curve" smooth="yes"/>
      <point x="47.6" y="36.900000000000006"/>
      <point x="388.5" y="-317.0"/>
      <point x="682.0" y="-317.0" type="curve" smooth="yes"/>
      <point x="783.6" y="-317.0"/>
      <point x="852.1" y="-262.40000000000003"/>
      <point x="852.1" y="-170.7" type="curve" smooth="yes"/>
      <point x="852.1" y="17.900000000000002"/>
      <point x="644.4" y="107.0"/>
      <point x="436.29999999999995" y="107.0" type="curve" smooth="yes"/>
      <point x="235.1" y="107.0"/>
      <point x="33.4" y="7.6"/>
      <point x="33.4" y="-160.5" type="curve" smooth="yes"/>
      <point x="33.4" y="-261.90000000000003"/>
      <point x="104.9" y="-317.3"/>
    </contour>
  </outline>
</glyph>
<glyph name="ii-tamil" format="2">
  <advance width="750.4000000000001"/>
  <unicode hex="0B88"/>
  <note>
uni0B88
</note>
  <anchor x="378.8" y="0.0" name="bottom"/>
  <anchor x="378.79999999999995" y="0.0" name="nukta"/>
  <anchor x="381.5" y="564.4" name="top"/>
  <anchor x="381.79999999999995" y="564.4" name="vedic"/>
  <outline>
    <contour>
      <point x="71.80000000000001" y="0.0" type="line"/>
      <point x="138.29999999999998" y="0.0" type="line"/>
      <point x="138.29999999999998" y="504.1" type="line"/>
      <point x="364.90000000000003" y="504.1" type="line"/>
      <point x="364.90000000000003" y="0.0" type="line"/>
      <point x="516.5" y="0.0" type="line"/>
      <point x="516.5" y="504.1" type="line"/>
      <point x="704.3000000000001" y="504.1" type="line"/>
      <point x="704.3000000000001" y="564.4" type="line"/>
      <point x="71.80000000000001" y="564.4" type="line"/>
    </contour>
    <contour>
      <point x="250.9" y="201.79999999999998" type="curve" smooth="yes"/>
      <point x="289.20000000000005" y="201.79999999999998"/>
      <point x="320.59999999999997" y="232.5"/>
      <point x="320.59999999999997" y="268.09999999999997" type="curve" smooth="yes"/>
      <point x="320.59999999999997" y="303.4"/>
      <point x="289.90000000000003" y="334.1"/>
      <point x="251.60000000000002" y="334.1" type="curve" smooth="yes"/>
      <point x="212.60000000000002" y="334.1"/>
      <point x="181.89999999999998" y="303.4"/>
      <point x="181.89999999999998" y="268.09999999999997" type="curve" smooth="yes"/>
      <point x="181.89999999999998" y="232.5"/>
      <point x="212.60000000000002" y="201.79999999999998"/>
    </contour>
    <contour>
      <point x="628.8" y="201.79999999999998" type="curve" smooth="yes"/>
      <point x="667.4" y="201.79999999999998"/>
      <point x="698.5" y="232.5"/>
      <point x="698.5" y="268.09999999999997" type="curve" smooth="yes"/>
      <point x="698.5" y="303.4"/>
      <point x="668.1" y="334.1"/>
      <point x="629.5" y="334.1" type="curve" smooth="yes"/>
      <point x="590.5" y="334.1"/>
      <point x="559.8000000000001" y="303.4"/>
      <point x="559.8000000000001" y="268.09999999999997" type="curve" smooth="yes"/>
      <point x="559.8000000000001" y="232.5"/>
      <point x="590.5" y="201.79999999999998"/>
    </contour>
  </outline>
</glyph>
<glyph name="u-tamil" format="2">
  <advance width="846.7"/>
  <unicode hex="0B89"/>
  <note>
uni0B89
</note>
  <anchor x="427.8" y="0.0" name="bottom"/>
  <anchor x="427.8" y="0.0" name="nukta"/>
  <anchor x="431.8" y="564.4" name="top"/>
  <anchor x="430.8" y="564.4" name="vedic"/>
  <outline>
    <contour>
      <point x="131.8" y="0.0" type="curve" smooth="yes"/>
      <point x="834.9000000000001" y="0.0" type="line"/>
      <point x="834.9000000000001" y="61.0" type="line"/>
      <point x="129.3" y="61.0" type="line" smooth="yes"/>
      <point x="111.39999999999999" y="61.0"/>
      <point x="96.3" y="75.0"/>
      <point x="96.3" y="96.4" type="curve" smooth="yes"/>
      <point x="96.3" y="118.1"/>
      <point x="110.69999999999999" y="131.8"/>
      <point x="129.3" y="131.8" type="curve" smooth="yes"/>
      <point x="340.5" y="131.8" type="line" smooth="yes"/>
      <point x="497.4" y="131.8"/>
      <point x="605.5" y="196.0"/>
      <point x="605.5" y="337.1" type="curve" smooth="yes"/>
      <point x="605.5" y="487.1"/>
      <point x="489.70000000000005" y="569.4"/>
      <point x="327.6" y="569.4" type="curve" smooth="yes"/>
      <point x="182.1" y="569.4"/>
      <point x="102.0" y="488.7"/>
      <point x="102.0" y="383.2" type="curve" smooth="yes"/>
      <point x="102.0" y="295.2"/>
      <point x="159.8" y="241.6"/>
      <point x="238.20000000000002" y="241.6" type="curve" smooth="yes"/>
      <point x="326.6" y="241.6"/>
      <point x="379.3" y="293.09999999999997"/>
      <point x="379.3" y="370.29999999999995" type="curve" smooth="yes"/>
      <point x="379.3" y="445.8"/>
      <point x="327.9" y="510.90000000000003"/>
      <point x="254.5" y="524.7" type="curve"/>
      <point x="198.2" y="520.4" type="line"/>
      <point x="254.1" y="495.5"/>
      <point x="286.09999999999997" y="443.7"/>
      <point x="286.09999999999997" y="386.79999999999995" type="curve" smooth="yes"/>
      <point x="286.09999999999997" y="340.3"/>
      <point x="263.1" y="309.9"/>
      <point x="225.60000000000002" y="309.9" type="curve" smooth="yes"/>
      <point x="191.1" y="309.9"/>
      <point x="168.0" y="337.79999999999995"/>
      <point x="168.0" y="386.59999999999997" type="curve" smooth="yes"/>
      <point x="168.0" y="453.5"/>
      <point x="217.1" y="508.8"/>
      <point x="305.7" y="508.8" type="curve" smooth="yes"/>
      <point x="399.7" y="508.8"/>
      <point x="463.40000000000003" y="451.4"/>
      <point x="463.40000000000003" y="347.4" type="curve" smooth="yes"/>
      <point x="463.40000000000003" y="243.3"/>
      <point x="408.90000000000003" y="190.1"/>
      <point x="319.0" y="190.1" type="curve" smooth="yes"/>
      <point x="131.8" y="190.1" type="line" smooth="yes"/>
      <point x="74.1" y="190.1"/>
      <point x="35.5" y="157.0"/>
      <point x="35.5" y="96.4" type="curve" smooth="yes"/>
      <point x="35.5" y="35.4"/>
      <point x="74.8" y="0.0"/>
    </contour>
  </outline>
</glyph>
<glyph name="uu-tamil" format="2">
  <advance width="1557.5"/>
  <unicode hex="0B8A"/>
  <note>
uni0B8A
</note>
  <anchor x="786.0" y="0.0" name="bottom"/>
  <anchor x="786.0" y="0.0" name="nukta"/>
  <anchor x="786.9" y="564.4" name="top"/>
  <anchor x="789.0" y="564.4" name="vedic"/>
  <outline>
    <contour>
      <point x="130.4" y="0.0" type="curve" smooth="yes"/>
      <point x="1508.3" y="0.0" type="line"/>
      <point x="1508.3" y="61.0" type="line"/>
      <point x="127.89999999999999" y="61.0" type="line" smooth="yes"/>
      <point x="109.3" y="61.0"/>
      <point x="96.3" y="75.0"/>
      <point x="96.3" y="96.4" type="curve" smooth="yes"/>
      <point x="96.3" y="118.1"/>
      <point x="109.3" y="131.8"/>
      <point x="127.89999999999999" y="131.8" type="curve" smooth="yes"/>
      <point x="340.5" y="131.8" type="line" smooth="yes"/>
      <point x="497.4" y="131.8"/>
      <point x="605.5" y="196.0"/>
      <point x="605.5" y="337.1" type="curve" smooth="yes"/>
      <point x="605.5" y="487.1"/>
      <point x="489.70000000000005" y="569.4"/>
      <point x="327.6" y="569.4" type="curve" smooth="yes"/>
      <point x="182.1" y="569.4"/>
      <point x="102.0" y="488.7"/>
      <point x="102.0" y="383.2" type="curve" smooth="yes"/>
      <point x="102.0" y="295.2"/>
      <point x="159.8" y="241.6"/>
      <point x="238.20000000000002" y="241.6" type="curve" smooth="yes"/>
      <point x="326.6" y="241.6"/>
      <point x="379.3" y="293.09999999999997"/>
      <point x="379.3" y="370.29999999999995" type="curve" smooth="yes"/>
      <point x="379.3" y="445.8"/>
      <point x="327.9" y="510.90000000000003"/>
      <point x="254.5" y="524.7" type="curve"/>
      <point x="198.2" y="520.4" type="line"/>
      <point x="254.1" y="495.5"/>
      <point x="286.09999999999997" y="443.7"/>
      <point x="286.09999999999997" y="386.79999999999995" type="curve" smooth="yes"/>
      <point x="286.09999999999997" y="340.3"/>
      <point x="263.1" y="309.9"/>
      <point x="225.60000000000002" y="309.9" type="curve" smooth="yes"/>
      <point x="191.1" y="309.9"/>
      <point x="168.0" y="337.79999999999995"/>
      <point x="168.0" y="386.59999999999997" type="curve" smooth="yes"/>
      <point x="168.0" y="453.5"/>
      <point x="217.1" y="508.8"/>
      <point x="305.7" y="508.8" type="curve" smooth="yes"/>
      <point x="399.7" y="508.8"/>
      <point x="463.40000000000003" y="451.4"/>
      <point x="463.40000000000003" y="347.4" type="curve" smooth="yes"/>
      <point x="463.40000000000003" y="243.3"/>
      <point x="408.90000000000003" y="190.1"/>
      <point x="319.0" y="190.1" type="curve" smooth="yes"/>
      <point x="130.4" y="190.1" type="line" smooth="yes"/>
      <point x="72.0" y="190.1"/>
      <point x="35.5" y="157.0"/>
      <point x="35.5" y="96.4" type="curve" smooth="yes"/>
      <point x="35.5" y="35.4"/>
      <point x="72.7" y="0.0"/>
    </contour>
    <contour>
      <point x="843.1" y="116.3" type="curve" smooth="yes"/>
      <point x="929.1" y="116.3"/>
      <point x="992.6999999999999" y="165.6"/>
      <point x="992.6999999999999" y="256.5" type="curve" smooth="yes"/>
      <point x="992.6999999999999" y="347.3"/>
      <point x="935.9000000000001" y="395.9"/>
      <point x="861.0" y="395.9" type="curve" smooth="yes"/>
      <point x="775.3000000000001" y="395.9"/>
      <point x="727.9" y="324.1"/>
      <point x="724.3" y="231.1" type="curve"/>
      <point x="755.3" y="203.6" type="line"/>
      <point x="758.5" y="272.5"/>
      <point x="789.3000000000001" y="330.7"/>
      <point x="834.4" y="330.7" type="curve" smooth="yes"/>
      <point x="867.5" y="330.7"/>
      <point x="892.5999999999999" y="305.1"/>
      <point x="892.5999999999999" y="259.0" type="curve" smooth="yes"/>
      <point x="892.5999999999999" y="208.1"/>
      <point x="865.6" y="178.6"/>
      <point x="823.8" y="178.6" type="curve" smooth="yes"/>
      <point x="772.0999999999999" y="178.6"/>
      <point x="725.0" y="228.3"/>
      <point x="725.0" y="332.8" type="curve" smooth="yes"/>
      <point x="725.0" y="443.3"/>
      <point x="791.8000000000001" y="509.1"/>
      <point x="884.5999999999999" y="509.1" type="curve" smooth="yes"/>
      <point x="982.8000000000001" y="509.1"/>
      <point x="1053.2" y="436.9"/>
      <point x="1053.8" y="322.4" type="curve"/>
      <point x="1113.4" y="322.4" type="line"/>
      <point x="1109.4" y="481.2"/>
      <point x="1010.4" y="569.4"/>
      <point x="886.0999999999999" y="569.4" type="curve" smooth="yes"/>
      <point x="752.8" y="569.4"/>
      <point x="662.6" y="472.5"/>
      <point x="662.6" y="331.4" type="curve" smooth="yes"/>
      <point x="662.6" y="199.3"/>
      <point x="740.8" y="116.3"/>
    </contour>
    <contour>
      <point x="1053.8" y="118.7" type="line"/>
      <point x="1180.1000000000001" y="118.7" type="line"/>
      <point x="1180.1000000000001" y="506.9" type="line"/>
      <point x="1301.0" y="506.9" type="line"/>
      <point x="1301.0" y="118.7" type="line"/>
      <point x="1426.8999999999999" y="118.7" type="line"/>
      <point x="1426.8999999999999" y="506.9" type="line"/>
      <point x="1508.3" y="506.9" type="line"/>
      <point x="1508.3" y="564.4" type="line"/>
      <point x="1081.2" y="564.4" type="line"/>
      <point x="1083.3000000000002" y="383.5" type="line"/>
      <point x="1053.8" y="381.4" type="line"/>
    </contour>
  </outline>
</glyph>
<glyph name="e-tamil" format="2">
  <advance width="839.1999999999999"/>
  <unicode hex="0B8E"/>
  <note>
uni0B8E
</note>
  <anchor x="442.4" y="0.0" name="bottom"/>
  <anchor x="442.7" y="0.0" name="nukta"/>
  <anchor x="445.1" y="564.4" name="top"/>
  <anchor x="445.4" y="564.4" name="vedic"/>
  <outline>
    <contour>
      <point x="250.79999999999998" y="-5.0" type="curve" smooth="yes"/>
      <point x="358.6" y="-5.0"/>
      <point x="427.20000000000005" y="62.39999999999999"/>
      <point x="427.20000000000005" y="162.8" type="curve" smooth="yes"/>
      <point x="427.20000000000005" y="253.29999999999998"/>
      <point x="372.9" y="323.0"/>
      <point x="278.5" y="323.0" type="curve" smooth="yes"/>
      <point x="175.29999999999998" y="323.0"/>
      <point x="117.3" y="235.5"/>
      <point x="111.3" y="113.7" type="curve"/>
      <point x="150.1" y="89.8" type="line"/>
      <point x="152.7" y="180.0"/>
      <point x="184.60000000000002" y="237.7"/>
      <point x="233.7" y="237.7" type="curve" smooth="yes"/>
      <point x="276.2" y="237.7"/>
      <point x="297.9" y="198.9"/>
      <point x="297.9" y="153.9" type="curve" smooth="yes"/>
      <point x="297.9" y="102.0"/>
      <point x="275.09999999999997" y="62.4"/>
      <point x="222.7" y="62.4" type="curve" smooth="yes"/>
      <point x="155.8" y="62.4"/>
      <point x="110.0" y="139.89999999999998"/>
      <point x="110.0" y="258.3" type="curve" smooth="yes"/>
      <point x="110.0" y="408.0"/>
      <point x="193.10000000000002" y="504.1"/>
      <point x="371.3" y="504.1" type="curve" smooth="yes"/>
      <point x="552.2" y="504.1" type="line"/>
      <point x="552.2" y="0.0" type="line"/>
      <point x="701.3" y="0.0" type="line"/>
      <point x="701.3" y="504.1" type="line"/>
      <point x="821.5" y="504.1" type="line"/>
      <point x="821.5" y="564.4" type="line"/>
      <point x="361.8" y="564.4" type="line" smooth="yes"/>
      <point x="154.8" y="564.4"/>
      <point x="46.3" y="440.59999999999997"/>
      <point x="46.3" y="260.3" type="curve" smooth="yes"/>
      <point x="46.3" y="102.6"/>
      <point x="125.4" y="-5.0"/>
    </contour>
  </outline>
</glyph>
<glyph name="ee-tamil" format="2">
  <advance width="839.1999999999999"/>
  <unicode hex="0B8F"/>
  <note>
uni0B8F
</note>
  <anchor x="442.4" y="0.0" name="bottom"/>
  <anchor x="442.7" y="-178.7" name="nukta"/>
  <anchor x="445.40000000000003" y="564.4" name="top"/>
  <anchor x="445.4" y="564.4" name="vedic"/>
  <outline>
    <contour>
      <point x="431.2" y="-238.0" type="line"/>
      <point x="701.3" y="39.400000000000006" type="line"/>
      <point x="701.3" y="504.1" type="line"/>
      <point x="821.5" y="504.1" type="line"/>
      <point x="821.5" y="564.4" type="line"/>
      <point x="361.8" y="564.4" type="line" smooth="yes"/>
      <point x="154.8" y="564.4"/>
      <point x="46.3" y="440.59999999999997"/>
      <point x="46.3" y="260.3" type="curve" smooth="yes"/>
      <point x="46.3" y="102.6"/>
      <point x="125.4" y="-5.0"/>
      <point x="250.79999999999998" y="-5.0" type="curve" smooth="yes"/>
      <point x="358.6" y="-5.0"/>
      <point x="427.20000000000005" y="62.400000000000006"/>
      <point x="427.20000000000005" y="162.8" type="curve" smooth="yes"/>
      <point x="427.20000000000005" y="253.29999999999998"/>
      <point x="372.9" y="323.0"/>
      <point x="278.5" y="323.0" type="curve" smooth="yes"/>
      <point x="175.29999999999998" y="323.0"/>
      <point x="117.3" y="235.5"/>
      <point x="111.3" y="113.69999999999999" type="curve"/>
      <point x="150.1" y="89.8" type="line"/>
      <point x="152.7" y="180.0"/>
      <point x="186.0" y="237.7"/>
      <point x="234.4" y="237.7" type="curve" smooth="yes"/>
      <point x="276.9" y="237.7"/>
      <point x="297.9" y="198.9"/>
      <point x="297.9" y="153.9" type="curve" smooth="yes"/>
      <point x="297.9" y="102.0"/>
      <point x="275.09999999999997" y="62.4"/>
      <point x="223.4" y="62.4" type="curve" smooth="yes"/>
      <point x="157.20000000000002" y="62.4"/>
      <point x="110.7" y="138.39999999999998"/>
      <point x="110.7" y="258.3" type="curve" smooth="yes"/>
      <point x="110.7" y="408.0"/>
      <point x="193.10000000000002" y="504.1"/>
      <point x="371.3" y="504.1" type="curve" smooth="yes"/>
      <point x="552.2" y="504.1" type="line"/>
      <point x="552.2" y="-15.200000000000001" type="line"/>
      <point x="384.0" y="-193.7" type="line"/>
    </contour>
  </outline>
</glyph>
<glyph name="ai-tamil" format="2">
  <advance width="901.0"/>
  <unicode hex="0B90"/>
  <note>
uni0B90
</note>
  <anchor x="449.79999999999995" y="0.0" name="bottom"/>
  <anchor x="448.4" y="-317.0" name="nukta"/>
  <anchor x="466.9" y="564.4" name="top"/>
  <anchor x="465.8" y="564.4" name="vedic"/>
  <outline>
    <contour>
      <point x="265.0" y="-317.0" type="curve" smooth="yes"/>
      <point x="367.6" y="-317.0"/>
      <point x="444.8" y="-271.1"/>
      <point x="464.4" y="-181.1" type="curve"/>
      <point x="479.7" y="-251.2"/>
      <point x="537.5" y="-317.0"/>
      <point x="653.4" y="-317.0" type="curve" smooth="yes"/>
      <point x="776.6" y="-317.0"/>
      <point x="855.0" y="-245.20000000000002"/>
      <point x="855.0" y="-113.0" type="curve" smooth="yes"/>
      <point x="855.0" y="-47.5"/>
      <point x="832.7" y="8.1"/>
      <point x="795.9" y="67.6" type="curve"/>
      <point x="742.3000000000001" y="36.6" type="line"/>
      <point x="773.8000000000001" y="-14.5"/>
      <point x="790.4" y="-58.5"/>
      <point x="790.4" y="-106.5" type="curve" smooth="yes"/>
      <point x="790.4" y="-201.20000000000002"/>
      <point x="739.4" y="-251.8"/>
      <point x="654.8000000000001" y="-251.8" type="curve" smooth="yes"/>
      <point x="571.4" y="-251.8"/>
      <point x="530.0" y="-184.3"/>
      <point x="530.0" y="-90.5" type="curve" smooth="yes"/>
      <point x="530.0" y="-31.4" type="line"/>
      <point x="401.0" y="-31.4" type="line"/>
      <point x="401.0" y="-101.7" type="line" smooth="yes"/>
      <point x="401.0" y="-205.1"/>
      <point x="358.0" y="-253.2"/>
      <point x="293.9" y="-253.2" type="curve" smooth="yes"/>
      <point x="231.2" y="-253.2"/>
      <point x="188.5" y="-211.4"/>
      <point x="188.5" y="-121.9" type="curve" smooth="yes"/>
      <point x="188.5" y="27.0"/>
      <point x="280.20000000000005" y="58.10000000000001"/>
      <point x="482.59999999999997" y="77.9" type="curve" smooth="yes"/>
      <point x="695.8" y="99.0"/>
      <point x="854.3000000000001" y="151.1"/>
      <point x="854.3000000000001" y="348.6" type="curve" smooth="yes"/>
      <point x="854.3000000000001" y="501.1"/>
      <point x="767.9" y="569.7"/>
      <point x="644.4000000000001" y="569.7" type="curve" smooth="yes"/>
      <point x="558.5" y="569.7"/>
      <point x="492.3" y="532.5"/>
      <point x="468.0" y="449.0" type="curve"/>
      <point x="439.59999999999997" y="530.5"/>
      <point x="364.59999999999997" y="569.7"/>
      <point x="269.5" y="569.7" type="curve" smooth="yes"/>
      <point x="140.0" y="569.7"/>
      <point x="51.3" y="484.6"/>
      <point x="51.3" y="349.2" type="curve" smooth="yes"/>
      <point x="51.3" y="236.5"/>
      <point x="117.10000000000001" y="155.5"/>
      <point x="210.5" y="155.5" type="curve" smooth="yes"/>
      <point x="287.5" y="155.5"/>
      <point x="344.0" y="200.4"/>
      <point x="344.0" y="282.8" type="curve" smooth="yes"/>
      <point x="344.0" y="362.3"/>
      <point x="298.2" y="410.7"/>
      <point x="229.7" y="410.7" type="curve" smooth="yes"/>
      <point x="165.1" y="410.7"/>
      <point x="109.1" y="369.0"/>
      <point x="101.19999999999999" y="242.0" type="curve"/>
      <point x="131.2" y="220.2" type="line"/>
      <point x="135.5" y="314.5"/>
      <point x="167.6" y="344.7"/>
      <point x="200.0" y="344.7" type="curve" smooth="yes"/>
      <point x="230.5" y="344.7"/>
      <point x="247.39999999999998" y="320.1"/>
      <point x="247.39999999999998" y="282.8" type="curve" smooth="yes"/>
      <point x="247.39999999999998" y="242.39999999999998"/>
      <point x="227.0" y="218.9"/>
      <point x="193.6" y="218.9" type="curve" smooth="yes"/>
      <point x="148.5" y="218.9"/>
      <point x="114.3" y="260.0"/>
      <point x="114.3" y="347.1" type="curve" smooth="yes"/>
      <point x="114.3" y="452.3"/>
      <point x="181.2" y="507.0"/>
      <point x="263.3" y="507.0" type="curve" smooth="yes"/>
      <point x="347.90000000000003" y="507.0"/>
      <point x="401.0" y="464.5"/>
      <point x="401.0" y="366.2" type="curve" smooth="yes"/>
      <point x="401.0" y="212.8" type="line"/>
      <point x="530.0" y="212.8" type="line"/>
      <point x="530.0" y="383.1" type="line" smooth="yes"/>
      <point x="530.0" y="461.5"/>
      <point x="561.7" y="506.3"/>
      <point x="619.0" y="506.3" type="curve" smooth="yes"/>
      <point x="681.4000000000001" y="506.3"/>
      <point x="712.0999999999999" y="453.9"/>
      <point x="712.0999999999999" y="363.3" type="curve" smooth="yes"/>
      <point x="712.0999999999999" y="198.6"/>
      <point x="616.4" y="143.4"/>
      <point x="390.59999999999997" y="120.8" type="curve" smooth="yes"/>
      <point x="213.4" y="103.80000000000001"/>
      <point x="46.3" y="63.3"/>
      <point x="46.3" y="-113.1" type="curve" smooth="yes"/>
      <point x="46.3" y="-245.6"/>
      <point x="138.2" y="-317.0"/>
    </contour>
  </outline>
</glyph>
<glyph name="o-tamil" format="2">
  <advance width="928.3"/>
  <unicode hex="0B92"/>
  <note>
uni0B92
</note>
  <anchor x="466.9" y="0.0" name="bottom"/>
  <anchor x="464.9" y="-335.0" name="nukta"/>
  <anchor x="459.9" y="564.4" name="top"/>
  <anchor x="459.9" y="564.4" name="vedic"/>
  <outline>
    <contour>
      <point x="336.09999999999997" y="-331.0" type="curve" smooth="yes"/>
      <point x="544.9" y="-331.0"/>
      <point x="564.0" y="-141.0"/>
      <point x="710.8000000000001" y="-141.0" type="curve" smooth="yes"/>
      <point x="765.9" y="-141.0" type="line"/>
      <point x="765.9" y="-79.19999999999999" type="line"/>
      <point x="689.9" y="-79.19999999999999" type="line" smooth="yes"/>
      <point x="536.7" y="-79.19999999999999"/>
      <point x="468.0" y="55.2"/>
      <point x="555.5" y="211.5" type="curve"/>
      <point x="561.5" y="208.5" type="line"/>
      <point x="534.8" y="97.4"/>
      <point x="567.4000000000001" y="-4.3"/>
      <point x="702.2" y="-4.3" type="curve" smooth="yes"/>
      <point x="805.4" y="-4.3"/>
      <point x="882.3000000000001" y="69.3"/>
      <point x="882.3000000000001" y="197.8" type="curve" smooth="yes"/>
      <point x="882.3000000000001" y="435.7"/>
      <point x="682.4" y="569.4"/>
      <point x="437.5" y="569.4" type="curve" smooth="yes"/>
      <point x="217.1" y="569.4"/>
      <point x="46.3" y="429.70000000000005"/>
      <point x="46.3" y="241.4" type="curve" smooth="yes"/>
      <point x="46.3" y="93.2"/>
      <point x="125.4" y="-5.0"/>
      <point x="249.29999999999998" y="-5.0" type="curve" smooth="yes"/>
      <point x="355.90000000000003" y="-5.0"/>
      <point x="424.20000000000005" y="62.400000000000006"/>
      <point x="424.20000000000005" y="162.8" type="curve" smooth="yes"/>
      <point x="424.20000000000005" y="253.29999999999998"/>
      <point x="369.9" y="323.0"/>
      <point x="277.0" y="323.0" type="curve" smooth="yes"/>
      <point x="173.79999999999998" y="323.0"/>
      <point x="114.3" y="234.3"/>
      <point x="108.6" y="110.69999999999999" type="curve"/>
      <point x="147.1" y="86.8" type="line"/>
      <point x="149.70000000000002" y="178.5"/>
      <point x="183.10000000000002" y="237.7"/>
      <point x="232.2" y="237.7" type="curve" smooth="yes"/>
      <point x="273.5" y="237.7"/>
      <point x="294.9" y="198.9"/>
      <point x="294.9" y="153.9" type="curve" smooth="yes"/>
      <point x="294.9" y="102.0"/>
      <point x="272.09999999999997" y="62.4"/>
      <point x="221.2" y="62.4" type="curve" smooth="yes"/>
      <point x="155.79999999999998" y="62.4"/>
      <point x="110.0" y="128.10000000000002"/>
      <point x="110.0" y="240.7" type="curve" smooth="yes"/>
      <point x="110.0" y="401.3"/>
      <point x="265.0" y="509.8"/>
      <point x="428.4" y="509.8" type="curve" smooth="yes"/>
      <point x="611.0" y="509.8"/>
      <point x="742.6" y="405.0"/>
      <point x="742.6" y="217.0" type="curve" smooth="yes"/>
      <point x="742.6" y="123.8"/>
      <point x="714.8" y="65.9"/>
      <point x="661.7" y="65.9" type="curve" smooth="yes"/>
      <point x="599.1" y="65.9"/>
      <point x="585.5" y="159.3"/>
      <point x="628.0" y="264.8" type="curve"/>
      <point x="556.1999999999999" y="302.40000000000003" type="line"/>
      <point x="416.9" y="113.9"/>
      <point x="444.20000000000005" y="-38.2"/>
      <point x="572.8000000000001" y="-101.69999999999999" type="curve"/>
      <point x="572.8000000000001" y="-106.69999999999999" type="line"/>
      <point x="448.90000000000003" y="-129.3"/>
      <point x="418.9" y="-260.9"/>
      <point x="305.8" y="-260.9" type="curve" smooth="yes"/>
      <point x="255.20000000000002" y="-260.9"/>
      <point x="222.3" y="-232.1"/>
      <point x="222.3" y="-185.20000000000002" type="curve" smooth="yes"/>
      <point x="222.3" y="-151.4"/>
      <point x="239.5" y="-125.79999999999998"/>
      <point x="271.2" y="-98.7" type="curve"/>
      <point x="232.29999999999998" y="-57.599999999999994" type="line"/>
      <point x="187.7" y="-96.0"/>
      <point x="163.5" y="-133.5"/>
      <point x="163.5" y="-182.4" type="curve" smooth="yes"/>
      <point x="163.5" y="-269.7"/>
      <point x="229.1" y="-331.0"/>
    </contour>
  </outline>
</glyph>
<glyph name="oo-tamil" format="2">
  <advance width="928.3"/>
  <unicode hex="0B93"/>
  <note>
uni0B93
</note>
  <anchor x="459.0" y="0.0" name="bottom"/>
  <anchor x="457.0" y="-310.7" name="nukta"/>
  <anchor x="452.0" y="564.4" name="top"/>
  <anchor x="452.0" y="564.4" name="vedic"/>
  <outline>
    <contour>
      <point x="313.29999999999995" y="-347.7" type="curve" smooth="yes"/>
      <point x="537.2" y="-347.7"/>
      <point x="568.2" y="-141.0"/>
      <point x="710.5" y="-141.0" type="curve" smooth="yes"/>
      <point x="763.8000000000001" y="-141.0" type="line"/>
      <point x="763.8000000000001" y="-79.19999999999999" type="line"/>
      <point x="692.6" y="-79.19999999999999" type="line" smooth="yes"/>
      <point x="537.9" y="-79.19999999999999"/>
      <point x="468.90000000000003" y="58.50000000000001"/>
      <point x="551.3" y="211.5" type="curve"/>
      <point x="557.6" y="208.2" type="line"/>
      <point x="532.1" y="97.1"/>
      <point x="567.4000000000001" y="-4.3"/>
      <point x="702.2" y="-4.3" type="curve" smooth="yes"/>
      <point x="805.4" y="-4.3"/>
      <point x="882.3000000000001" y="69.3"/>
      <point x="882.3000000000001" y="197.8" type="curve" smooth="yes"/>
      <point x="882.3000000000001" y="435.7"/>
      <point x="682.4" y="569.4"/>
      <point x="437.5" y="569.4" type="curve" smooth="yes"/>
      <point x="217.1" y="569.4"/>
      <point x="46.3" y="429.70000000000005"/>
      <point x="46.3" y="241.4" type="curve" smooth="yes"/>
      <point x="46.3" y="93.2"/>
      <point x="125.4" y="-5.0"/>
      <point x="249.29999999999998" y="-5.0" type="curve" smooth="yes"/>
      <point x="355.90000000000003" y="-5.0"/>
      <point x="424.20000000000005" y="62.400000000000006"/>
      <point x="424.20000000000005" y="162.8" type="curve" smooth="yes"/>
      <point x="424.20000000000005" y="253.29999999999998"/>
      <point x="369.9" y="323.0"/>
      <point x="277.0" y="323.0" type="curve" smooth="yes"/>
      <point x="173.79999999999998" y="323.0"/>
      <point x="114.3" y="234.3"/>
      <point x="108.6" y="110.69999999999999" type="curve"/>
      <point x="147.1" y="86.8" type="line"/>
      <point x="149.70000000000002" y="178.5"/>
      <point x="183.10000000000002" y="237.7"/>
      <point x="232.2" y="237.7" type="curve" smooth="yes"/>
      <point x="273.5" y="237.7"/>
      <point x="294.9" y="198.9"/>
      <point x="294.9" y="153.9" type="curve" smooth="yes"/>
      <point x="294.9" y="102.0"/>
      <point x="272.09999999999997" y="62.4"/>
      <point x="221.2" y="62.4" type="curve" smooth="yes"/>
      <point x="155.79999999999998" y="62.4"/>
      <point x="110.0" y="128.10000000000002"/>
      <point x="110.0" y="240.7" type="curve" smooth="yes"/>
      <point x="110.0" y="401.3"/>
      <point x="265.0" y="509.8"/>
      <point x="428.4" y="509.8" type="curve" smooth="yes"/>
      <point x="611.0" y="509.8"/>
      <point x="742.6" y="405.0"/>
      <point x="742.6" y="217.0" type="curve" smooth="yes"/>
      <point x="742.6" y="123.8"/>
      <point x="714.8" y="65.9"/>
      <point x="661.7" y="65.9" type="curve" smooth="yes"/>
      <point x="599.1" y="65.9"/>
      <point x="581.0" y="159.3"/>
      <point x="623.8" y="264.8" type="curve"/>
      <point x="552.0" y="302.40000000000003" type="line"/>
      <point x="411.1" y="112.7"/>
      <point x="447.20000000000005" y="-38.8"/>
      <point x="577.3000000000001" y="-102.3" type="curve"/>
      <point x="577.3000000000001" y="-107.3" type="line"/>
      <point x="451.29999999999995" y="-127.8"/>
      <point x="406.8" y="-280.59999999999997"/>
      <point x="280.70000000000005" y="-280.59999999999997" type="curve" smooth="yes"/>
      <point x="217.39999999999998" y="-280.59999999999997"/>
      <point x="185.4" y="-246.39999999999998"/>
      <point x="185.4" y="-200.9" type="curve" smooth="yes"/>
      <point x="185.4" y="-163.60000000000002"/>
      <point x="213.3" y="-134.89999999999998"/>
      <point x="247.2" y="-134.89999999999998" type="curve" smooth="yes"/>
      <point x="284.4" y="-134.89999999999998"/>
      <point x="308.79999999999995" y="-155.3"/>
      <point x="322.6" y="-201.9" type="curve"/>
      <point x="360.09999999999997" y="-185.0"/>
      <point x="383.40000000000003" y="-159.3"/>
      <point x="383.40000000000003" y="-127.3" type="curve" smooth="yes"/>
      <point x="383.40000000000003" y="-82.0"/>
      <point x="336.0" y="-53.2"/>
      <point x="278.7" y="-53.2" type="curve" smooth="yes"/>
      <point x="191.7" y="-53.2"/>
      <point x="127.1" y="-112.8"/>
      <point x="127.1" y="-196.3" type="curve" smooth="yes"/>
      <point x="127.1" y="-286.2"/>
      <point x="206.3" y="-347.7"/>
    </contour>
  </outline>
</glyph>
<glyph name="au-tamil" format="2">
  <advance width="2050.4"/>
  <unicode hex="0B94"/>
  <note>
uni0B94
</note>
  <anchor x="1056.4" y="0.0" name="bottom"/>
  <anchor x="1161.1" y="0.0" name="nukta"/>
  <anchor x="1050.1000000000001" y="564.4" name="top"/>
  <anchor x="1050.1000000000001" y="564.4" name="vedic"/>
  <outline>
    <contour>
      <point x="1160.1" y="-5.0" type="curve" smooth="yes"/>
      <point x="1267.2" y="-5.0"/>
      <point x="1336.2" y="62.400000000000006"/>
      <point x="1336.2" y="162.8" type="curve" smooth="yes"/>
      <point x="1336.2" y="253.29999999999998"/>
      <point x="1281.8999999999999" y="323.0"/>
      <point x="1187.8" y="323.0" type="curve" smooth="yes"/>
      <point x="1084.6" y="323.0"/>
      <point x="1026.6" y="235.5"/>
      <point x="1020.6" y="113.69999999999999" type="curve"/>
      <point x="1058.7" y="89.8" type="line"/>
      <point x="1061.3" y="180.0"/>
      <point x="1093.9" y="237.7"/>
      <point x="1143.0" y="237.7" type="curve" smooth="yes"/>
      <point x="1184.8000000000002" y="237.7"/>
      <point x="1206.5" y="198.9"/>
      <point x="1206.5" y="153.9" type="curve" smooth="yes"/>
      <point x="1206.5" y="102.0"/>
      <point x="1183.7" y="62.4"/>
      <point x="1132.0" y="62.4" type="curve" smooth="yes"/>
      <point x="1065.1" y="62.4"/>
      <point x="1019.3000000000001" y="139.89999999999998"/>
      <point x="1019.3000000000001" y="258.3" type="curve" smooth="yes"/>
      <point x="1019.3000000000001" y="408.1"/>
      <point x="1104.0" y="504.2"/>
      <point x="1247.6" y="504.2" type="curve" smooth="yes"/>
      <point x="1366.7" y="504.2"/>
      <point x="1460.1000000000001" y="427.7"/>
      <point x="1460.1000000000001" y="291.7" type="curve"/>
      <point x="1521.8" y="302.6" type="line"/>
      <point x="1507.5" y="489.7"/>
      <point x="1378.4" y="569.4"/>
      <point x="1241.9" y="569.4" type="curve" smooth="yes"/>
      <point x="1062.1999999999998" y="569.4"/>
      <point x="955.6" y="441.4"/>
      <point x="955.6" y="260.3" type="curve" smooth="yes"/>
      <point x="955.6" y="102.6"/>
      <point x="1034.0" y="-5.0"/>
    </contour>
    <contour>
      <point x="1460.1000000000001" y="0.0" type="line"/>
      <point x="1609.2" y="0.0" type="line"/>
      <point x="1609.2" y="504.1" type="line"/>
      <point x="1764.3999999999999" y="504.1" type="line"/>
      <point x="1764.3999999999999" y="0.0" type="line"/>
      <point x="1912.8000000000002" y="0.0" type="line"/>
      <point x="1912.8000000000002" y="504.1" type="line"/>
      <point x="2032.7" y="504.1" type="line"/>
      <point x="2032.7" y="564.4" type="line"/>
      <point x="1494.1" y="564.4" type="line"/>
      <point x="1494.1" y="357.5" type="line"/>
      <point x="1460.1000000000001" y="367.6" type="line"/>
    </contour>
    <component base="o-tamil"/>
  </outline>
</glyph>
<glyph name="nga-tamil" format="2">
  <advance width="916.7"/>
  <unicode hex="0B99"/>
  <note>
uni0B99
</note>
  <anchor x="456.0" y="0.0" name="bottom"/>
  <anchor x="498.4" y="564.4" name="imatra"/>
  <anchor x="454.20000000000005" y="0.0" name="nukta"/>
  <anchor x="468.4" y="564.4" name="top"/>
  <anchor x="457.0" y="564.4" name="vedic"/>
  <outline>
    <contour>
      <point x="71.80000000000001" y="0.0" type="line"/>
      <point x="137.6" y="0.0" type="line"/>
      <point x="137.6" y="504.1" type="line"/>
      <point x="247.4" y="504.1" type="line"/>
      <point x="247.4" y="182.0" type="line"/>
      <point x="383.5" y="182.0" type="line"/>
      <point x="383.5" y="236.6" type="line" smooth="yes"/>
      <point x="383.5" y="272.3"/>
      <point x="402.3" y="294.29999999999995"/>
      <point x="429.6" y="294.29999999999995" type="curve" smooth="yes"/>
      <point x="458.90000000000003" y="294.29999999999995"/>
      <point x="478.8" y="268.40000000000003"/>
      <point x="478.8" y="211.2" type="curve" smooth="yes"/>
      <point x="478.8" y="120.9"/>
      <point x="430.3" y="61.0"/>
      <point x="352.1" y="61.0" type="curve" smooth="yes"/>
      <point x="247.4" y="61.0" type="line"/>
      <point x="247.4" y="0.0" type="line"/>
      <point x="845.3" y="0.0" type="line"/>
      <point x="845.3" y="564.4" type="line"/>
      <point x="695.0" y="564.4" type="line"/>
      <point x="695.0" y="61.0" type="line"/>
      <point x="491.40000000000003" y="61.0" type="line"/>
      <point x="557.1" y="80.7"/>
      <point x="617.1999999999999" y="139.3"/>
      <point x="617.1999999999999" y="236.0" type="curve" smooth="yes"/>
      <point x="617.1999999999999" y="329.40000000000003"/>
      <point x="568.5999999999999" y="387.2"/>
      <point x="491.3" y="387.2" type="curve" smooth="yes"/>
      <point x="438.5" y="387.2"/>
      <point x="405.70000000000005" y="357.7"/>
      <point x="388.8" y="330.0" type="curve"/>
      <point x="388.8" y="504.1" type="line"/>
      <point x="522.0" y="504.1" type="line"/>
      <point x="522.0" y="564.4" type="line"/>
      <point x="71.80000000000001" y="564.4" type="line"/>
    </contour>
  </outline>
</glyph>
<glyph name="ja-tamil" format="2">
  <advance width="900.7"/>
  <unicode hex="0B9C"/>
  <note>
uni0B9C
</note>
  <anchor x="449.79999999999995" y="0.0" name="bottom"/>
  <anchor x="448.4" y="-317.0" name="nukta"/>
  <anchor x="462.0" y="564.4" name="top"/>
  <anchor x="456.0" y="564.4" name="vedic"/>
  <outline>
    <contour>
      <point x="246.29999999999998" y="-317.0" type="curve" smooth="yes"/>
      <point x="466.8" y="-317.0"/>
      <point x="468.2" y="-23.8"/>
      <point x="622.0" y="-23.8" type="curve" smooth="yes"/>
      <point x="681.1" y="-23.8"/>
      <point x="714.7" y="-67.3"/>
      <point x="714.7" y="-132.0" type="curve" smooth="yes"/>
      <point x="714.7" y="-203.0"/>
      <point x="680.6" y="-250.3"/>
      <point x="616.1" y="-250.3" type="curve" smooth="yes"/>
      <point x="590.1" y="-250.3"/>
      <point x="563.8000000000001" y="-241.70000000000002"/>
      <point x="531.8" y="-222.39999999999998" type="curve"/>
      <point x="507.59999999999997" y="-268.7" type="line"/>
      <point x="555.5" y="-303.0"/>
      <point x="604.0" y="-317.0"/>
      <point x="659.9000000000001" y="-317.0" type="curve" smooth="yes"/>
      <point x="770.6" y="-317.0"/>
      <point x="854.0" y="-252.1"/>
      <point x="854.0" y="-138.6" type="curve" smooth="yes"/>
      <point x="854.0" y="-16.6"/>
      <point x="782.8" y="43.7"/>
      <point x="670.0999999999999" y="43.7" type="curve" smooth="yes"/>
      <point x="430.5" y="43.7"/>
      <point x="429.20000000000005" y="-249.0"/>
      <point x="282.40000000000003" y="-249.0" type="curve" smooth="yes"/>
      <point x="222.9" y="-249.0"/>
      <point x="188.5" y="-203.8"/>
      <point x="188.5" y="-117.7" type="curve" smooth="yes"/>
      <point x="188.5" y="30.9"/>
      <point x="280.59999999999997" y="60.699999999999996"/>
      <point x="484.29999999999995" y="83.8" type="curve" smooth="yes"/>
      <point x="698.8000000000001" y="107.8"/>
      <point x="854.7" y="154.0"/>
      <point x="854.7" y="349.5" type="curve" smooth="yes"/>
      <point x="854.7" y="499.8"/>
      <point x="768.9" y="569.7"/>
      <point x="645.6999999999999" y="569.7" type="curve" smooth="yes"/>
      <point x="564.2" y="569.7"/>
      <point x="493.0" y="531.8"/>
      <point x="469.4" y="448.3" type="curve"/>
      <point x="440.3" y="529.8"/>
      <point x="373.1" y="569.7"/>
      <point x="277.3" y="569.7" type="curve" smooth="yes"/>
      <point x="146.6" y="569.7"/>
      <point x="52.0" y="484.6"/>
      <point x="52.0" y="349.2" type="curve" smooth="yes"/>
      <point x="52.0" y="235.0"/>
      <point x="116.0" y="155.5"/>
      <point x="211.2" y="155.5" type="curve" smooth="yes"/>
      <point x="288.20000000000005" y="155.5"/>
      <point x="345.3" y="198.9"/>
      <point x="345.3" y="282.8" type="curve" smooth="yes"/>
      <point x="345.3" y="364.40000000000003"/>
      <point x="299.5" y="410.7"/>
      <point x="232.2" y="410.7" type="curve" smooth="yes"/>
      <point x="168.9" y="410.7"/>
      <point x="112.5" y="367.8"/>
      <point x="105.5" y="242.0" type="curve"/>
      <point x="135.60000000000002" y="220.2" type="line"/>
      <point x="140.4" y="316.6"/>
      <point x="172.20000000000002" y="344.7"/>
      <point x="203.7" y="344.7" type="curve" smooth="yes"/>
      <point x="230.0" y="344.7"/>
      <point x="246.9" y="322.2"/>
      <point x="246.9" y="285.5" type="curve" smooth="yes"/>
      <point x="246.9" y="244.8"/>
      <point x="227.10000000000002" y="218.9"/>
      <point x="194.29999999999998" y="218.9" type="curve" smooth="yes"/>
      <point x="147.4" y="218.9"/>
      <point x="118.0" y="260.0"/>
      <point x="118.0" y="347.1" type="curve" smooth="yes"/>
      <point x="118.0" y="450.8"/>
      <point x="185.6" y="507.0"/>
      <point x="268.40000000000003" y="507.0" type="curve" smooth="yes"/>
      <point x="353.0" y="507.0"/>
      <point x="401.70000000000005" y="462.40000000000003"/>
      <point x="401.70000000000005" y="366.9" type="curve" smooth="yes"/>
      <point x="401.70000000000005" y="212.8" type="line"/>
      <point x="530.6999999999999" y="212.8" type="line"/>
      <point x="530.6999999999999" y="383.8" type="line" smooth="yes"/>
      <point x="530.6999999999999" y="460.1"/>
      <point x="564.6" y="506.3"/>
      <point x="621.9" y="506.3" type="curve" smooth="yes"/>
      <point x="681.8000000000001" y="506.3"/>
      <point x="712.5" y="455.4"/>
      <point x="712.5" y="362.7" type="curve" smooth="yes"/>
      <point x="712.5" y="205.5"/>
      <point x="634.6" y="148.2"/>
      <point x="392.0" y="122.0" type="curve" smooth="yes"/>
      <point x="227.6" y="104.60000000000001"/>
      <point x="46.3" y="68.7"/>
      <point x="46.3" y="-114.4" type="curve" smooth="yes"/>
      <point x="46.3" y="-249.8"/>
      <point x="127.3" y="-317.0"/>
    </contour>
  </outline>
</glyph>
<glyph name="tta-tamil" format="2">
  <advance width="806.9"/>
  <unicode hex="0B9F"/>
  <note>
uni0B9F
</note>
  <anchor x="410.09999999999997" y="0.0" name="bottom"/>
  <anchor x="410.09999999999997" y="0.0" name="nukta"/>
  <anchor x="444.0" y="564.4" name="top"/>
  <anchor x="432.6" y="564.4" name="vedic"/>
  <outline>
    <contour>
      <point x="71.80000000000001" y="0.0" type="line"/>
      <point x="794.8000000000001" y="0.0" type="line"/>
      <point x="794.8000000000001" y="61.0" type="line"/>
      <point x="222.1" y="61.0" type="line"/>
      <point x="222.1" y="564.4" type="line"/>
      <point x="71.80000000000001" y="564.4" type="line"/>
    </contour>
  </outline>
</glyph>
<glyph name="nna-tamil" format="2">
  <advance width="1607.5"/>
  <unicode hex="0BA3"/>
  <note>
uni0BA3
</note>
  <anchor x="847.6" y="0.0" name="bottom"/>
  <anchor x="1477.6" y="564.4" name="imatra"/>
  <anchor x="846.9" y="0.0" name="nukta"/>
  <anchor x="837.6" y="564.4" name="top"/>
  <anchor x="822.1" y="564.4" name="vedic"/>
  <outline>
    <contour>
      <point x="652.4" y="-4.3" type="curve" smooth="yes"/>
      <point x="758.1" y="-4.3"/>
      <point x="824.7" y="68.19999999999999"/>
      <point x="824.7" y="194.5" type="curve" smooth="yes"/>
      <point x="824.7" y="412.7"/>
      <point x="650.5999999999999" y="569.4"/>
      <point x="401.9" y="569.4" type="curve" smooth="yes"/>
      <point x="196.70000000000002" y="569.4"/>
      <point x="46.3" y="449.1"/>
      <point x="46.3" y="249.20000000000002" type="curve" smooth="yes"/>
      <point x="46.3" y="93.60000000000001"/>
      <point x="126.8" y="-5.0"/>
      <point x="251.1" y="-5.0" type="curve" smooth="yes"/>
      <point x="358.2" y="-5.0"/>
      <point x="427.2" y="62.400000000000006"/>
      <point x="427.2" y="162.8" type="curve" smooth="yes"/>
      <point x="427.2" y="253.29999999999998"/>
      <point x="372.9" y="323.0"/>
      <point x="278.1" y="323.0" type="curve" smooth="yes"/>
      <point x="173.79999999999998" y="323.0"/>
      <point x="113.7" y="231.60000000000002"/>
      <point x="111.60000000000001" y="113.69999999999999" type="curve"/>
      <point x="150.4" y="89.8" type="line"/>
      <point x="153.0" y="180.0"/>
      <point x="184.9" y="237.7"/>
      <point x="233.29999999999998" y="237.7" type="curve" smooth="yes"/>
      <point x="276.5" y="237.7"/>
      <point x="297.5" y="198.9"/>
      <point x="297.5" y="153.9" type="curve" smooth="yes"/>
      <point x="297.5" y="102.0"/>
      <point x="274.7" y="62.4"/>
      <point x="223.0" y="62.4" type="curve" smooth="yes"/>
      <point x="156.60000000000002" y="62.4"/>
      <point x="110.0" y="130.9"/>
      <point x="110.0" y="247.8" type="curve" smooth="yes"/>
      <point x="110.0" y="413.4"/>
      <point x="232.79999999999998" y="507.0"/>
      <point x="386.9" y="507.0" type="curve" smooth="yes"/>
      <point x="578.4" y="507.0"/>
      <point x="690.5999999999999" y="380.2"/>
      <point x="690.5999999999999" y="187.4" type="curve" smooth="yes"/>
      <point x="690.5999999999999" y="106.9"/>
      <point x="667.0" y="64.6"/>
      <point x="622.9" y="64.6" type="curve" smooth="yes"/>
      <point x="581.3" y="64.6"/>
      <point x="555.0" y="108.1"/>
      <point x="555.0" y="190.3" type="curve" smooth="yes"/>
      <point x="555.0" y="359.90000000000003"/>
      <point x="653.4000000000001" y="507.0"/>
      <point x="832.6" y="507.0" type="curve" smooth="yes"/>
      <point x="1007.9" y="507.0"/>
      <point x="1092.0" y="367.20000000000005"/>
      <point x="1092.0" y="187.4" type="curve" smooth="yes"/>
      <point x="1092.0" y="108.4"/>
      <point x="1068.6" y="64.6"/>
      <point x="1024.8999999999999" y="64.6" type="curve" smooth="yes"/>
      <point x="982.0" y="64.6"/>
      <point x="955.6999999999999" y="106.9"/>
      <point x="955.6999999999999" y="189.1" type="curve" smooth="yes"/>
      <point x="955.6999999999999" y="370.8"/>
      <point x="1068.6999999999998" y="504.1"/>
      <point x="1262.2" y="504.1" type="curve" smooth="yes"/>
      <point x="1589.8" y="504.1" type="line"/>
      <point x="1589.8" y="564.4" type="line"/>
      <point x="1256.1999999999998" y="564.4" type="line" smooth="yes"/>
      <point x="1016.8" y="564.4"/>
      <point x="892.4" y="394.8"/>
      <point x="892.4" y="194.7" type="curve" smooth="yes"/>
      <point x="892.4" y="69.8"/>
      <point x="943.7" y="-4.3"/>
      <point x="1051.8999999999999" y="-4.3" type="curve" smooth="yes"/>
      <point x="1158.2" y="-4.3"/>
      <point x="1226.1" y="67.9"/>
      <point x="1226.1" y="193.9" type="curve" smooth="yes"/>
      <point x="1226.1" y="407.5"/>
      <point x="1075.0" y="569.4"/>
      <point x="845.3000000000001" y="569.4" type="curve" smooth="yes"/>
      <point x="625.7" y="569.4"/>
      <point x="491.0" y="390.2"/>
      <point x="491.0" y="194.70000000000002" type="curve" smooth="yes"/>
      <point x="491.0" y="69.8"/>
      <point x="544.8000000000001" y="-4.3"/>
    </contour>
    <contour>
      <point x="1321.5" y="0.0" type="line"/>
      <point x="1469.9" y="0.0" type="line"/>
      <point x="1469.9" y="534.2" type="line"/>
      <point x="1321.5" y="534.2" type="line"/>
    </contour>
  </outline>
</glyph>
<glyph name="ta-tamil" format="2">
  <advance width="784.3000000000001"/>
  <unicode hex="0BA4"/>
  <note>
uni0BA4
</note>
  <anchor x="382.1" y="0.0" name="bottom"/>
  <anchor x="517.2" y="564.4" name="imatra"/>
  <anchor x="438.2" y="-135.5" name="nukta"/>
  <anchor x="404.0" y="564.4" name="top"/>
  <anchor x="399.59999999999997" y="564.4" name="vedic"/>
  <outline>
    <contour>
      <point x="170.5" y="-267.4" type="curve"/>
      <point x="170.5" y="-181.39999999999998"/>
      <point x="191.3" y="-128.5"/>
      <point x="291.6" y="-128.5" type="curve" smooth="yes"/>
      <point x="429.8" y="-128.5" type="line" smooth="yes"/>
      <point x="615.1999999999999" y="-128.5"/>
      <point x="738.3" y="-58.699999999999996"/>
      <point x="738.3" y="109.7" type="curve" smooth="yes"/>
      <point x="738.3" y="261.6"/>
      <point x="636.8" y="329.3"/>
      <point x="499.79999999999995" y="329.3" type="curve" smooth="yes"/>
      <point x="484.9" y="329.3" type="line"/>
      <point x="484.9" y="503.4" type="line"/>
      <point x="620.2" y="503.4" type="line"/>
      <point x="620.2" y="564.4" type="line"/>
      <point x="155.4" y="564.4" type="line"/>
      <point x="155.4" y="300.0" type="line"/>
      <point x="221.29999999999998" y="300.0" type="line"/>
      <point x="221.29999999999998" y="503.4" type="line"/>
      <point x="333.8" y="503.4" type="line"/>
      <point x="333.8" y="329.6" type="line"/>
      <point x="206.1" y="329.6" type="line" smooth="yes"/>
      <point x="115.2" y="329.6"/>
      <point x="47.8" y="264.2"/>
      <point x="47.8" y="170.0" type="curve" smooth="yes"/>
      <point x="47.8" y="66.8"/>
      <point x="116.7" y="-4.0"/>
      <point x="246.9" y="-4.0" type="curve" smooth="yes"/>
      <point x="399.09999999999997" y="-4.0"/>
      <point x="484.9" y="73.2"/>
      <point x="484.9" y="209.5" type="curve" smooth="yes"/>
      <point x="484.9" y="267.4" type="line"/>
      <point x="493.5" y="267.4" type="line" smooth="yes"/>
      <point x="551.2" y="267.4"/>
      <point x="598.3000000000001" y="217.8"/>
      <point x="598.3000000000001" y="110.5" type="curve" smooth="yes"/>
      <point x="598.3000000000001" y="-26.5"/>
      <point x="503.1" y="-75.5"/>
      <point x="381.7" y="-75.5" type="curve" smooth="yes"/>
      <point x="238.1" y="-75.5" type="line" smooth="yes"/>
      <point x="140.29999999999998" y="-75.5"/>
      <point x="53.2" y="-94.4"/>
      <point x="53.2" y="-180.1" type="curve" smooth="yes"/>
      <point x="53.2" y="-240.1"/>
      <point x="100.19999999999999" y="-267.4"/>
    </contour>
    <contour>
      <point x="219.79999999999998" y="63.1" type="curve" smooth="yes"/>
      <point x="153.89999999999998" y="63.1"/>
      <point x="115.6" y="102.8"/>
      <point x="115.6" y="168.3" type="curve" smooth="yes"/>
      <point x="115.6" y="227.1"/>
      <point x="144.8" y="268.6"/>
      <point x="212.8" y="268.6" type="curve" smooth="yes"/>
      <point x="333.8" y="268.6" type="line"/>
      <point x="333.8" y="198.1" type="line" smooth="yes"/>
      <point x="333.8" y="104.7"/>
      <point x="286.79999999999995" y="63.1"/>
    </contour>
  </outline>
</glyph>
<glyph name="nnna-tamil" format="2">
  <advance width="1218.9"/>
  <unicode hex="0BA9"/>
  <note>
uni0BA9
</note>
  <anchor x="592.3" y="0.0" name="bottom"/>
  <anchor x="1069.3" y="564.4" name="imatra"/>
  <anchor x="593.7" y="0.0" name="nukta"/>
  <anchor x="632.3000000000001" y="564.4" name="top"/>
  <anchor x="626.4000000000001" y="564.4" name="vedic"/>
  <outline>
    <contour>
      <point x="251.1" y="-5.0" type="curve" smooth="yes"/>
      <point x="358.2" y="-5.0"/>
      <point x="427.2" y="62.400000000000006"/>
      <point x="427.2" y="162.8" type="curve" smooth="yes"/>
      <point x="427.2" y="253.29999999999998"/>
      <point x="372.9" y="323.0"/>
      <point x="278.1" y="323.0" type="curve" smooth="yes"/>
      <point x="175.6" y="323.0"/>
      <point x="117.60000000000001" y="235.5"/>
      <point x="111.60000000000001" y="113.69999999999999" type="curve"/>
      <point x="150.4" y="89.8" type="line"/>
      <point x="153.0" y="180.0"/>
      <point x="184.9" y="237.7"/>
      <point x="233.29999999999998" y="237.7" type="curve" smooth="yes"/>
      <point x="276.5" y="237.7"/>
      <point x="297.5" y="198.9"/>
      <point x="297.5" y="153.9" type="curve" smooth="yes"/>
      <point x="297.5" y="102.0"/>
      <point x="274.7" y="62.4"/>
      <point x="223.0" y="62.4" type="curve" smooth="yes"/>
      <point x="156.60000000000002" y="62.4"/>
      <point x="110.0" y="133.3"/>
      <point x="110.0" y="247.8" type="curve" smooth="yes"/>
      <point x="110.0" y="416.7"/>
      <point x="243.29999999999998" y="507.0"/>
      <point x="392.9" y="507.0" type="curve" smooth="yes"/>
      <point x="576.5999999999999" y="507.0"/>
      <point x="690.5999999999999" y="375.7"/>
      <point x="690.5999999999999" y="184.10000000000002" type="curve" smooth="yes"/>
      <point x="690.5999999999999" y="106.0"/>
      <point x="666.9" y="63.1"/>
      <point x="621.3000000000001" y="63.1" type="curve" smooth="yes"/>
      <point x="577.9" y="63.1"/>
      <point x="555.0" y="111.39999999999999"/>
      <point x="555.0" y="187.60000000000002" type="curve" smooth="yes"/>
      <point x="555.0" y="367.8"/>
      <point x="673.1" y="504.1"/>
      <point x="867.0" y="504.1" type="curve" smooth="yes"/>
      <point x="1201.2" y="504.1" type="line"/>
      <point x="1201.2" y="564.4" type="line"/>
      <point x="865.0999999999999" y="564.4" type="line" smooth="yes"/>
      <point x="631.0" y="564.4"/>
      <point x="491.0" y="399.3"/>
      <point x="491.0" y="194.70000000000002" type="curve" smooth="yes"/>
      <point x="491.0" y="71.6"/>
      <point x="539.9" y="-4.3"/>
      <point x="650.1999999999999" y="-4.3" type="curve" smooth="yes"/>
      <point x="756.4000000000001" y="-4.3"/>
      <point x="824.7" y="68.19999999999999"/>
      <point x="824.7" y="194.5" type="curve" smooth="yes"/>
      <point x="824.7" y="414.8"/>
      <point x="648.5" y="569.4"/>
      <point x="403.4" y="569.4" type="curve" smooth="yes"/>
      <point x="198.20000000000002" y="569.4"/>
      <point x="46.3" y="448.2"/>
      <point x="46.3" y="250.1" type="curve" smooth="yes"/>
      <point x="46.3" y="96.3"/>
      <point x="126.5" y="-5.0"/>
    </contour>
    <contour>
      <point x="932.6" y="0.0" type="line"/>
      <point x="1081.0" y="0.0" type="line"/>
      <point x="1081.0" y="534.2" type="line"/>
      <point x="932.6" y="534.2" type="line"/>
    </contour>
  </outline>
</glyph>
<glyph name="pa-tamil" format="2">
  <advance width="807.1"/>
  <unicode hex="0BAA"/>
  <note>
uni0BAA
</note>
  <anchor x="406.7" y="0.0" name="bottom"/>
  <anchor x="727.4" y="564.4" name="imatra"/>
  <anchor x="406.7" y="0.0" name="nukta"/>
  <anchor x="406.2" y="564.4" name="top"/>
  <anchor x="403.90000000000003" y="564.4" name="vedic"/>
  <outline>
    <contour>
      <point x="71.80000000000001" y="0.0" type="line"/>
      <point x="735.7" y="0.0" type="line"/>
      <point x="735.7" y="564.4" type="line"/>
      <point x="586.0999999999999" y="564.4" type="line"/>
      <point x="586.0999999999999" y="61.0" type="line"/>
      <point x="220.9" y="61.0" type="line"/>
      <point x="220.9" y="564.4" type="line"/>
      <point x="71.80000000000001" y="564.4" type="line"/>
    </contour>
  </outline>
</glyph>
<glyph name="ma-tamil" format="2">
  <advance width="813.3"/>
  <unicode hex="0BAE"/>
  <note>
uni0BAE
</note>
  <anchor x="403.0" y="0.0" name="bottom"/>
  <anchor x="748.5" y="564.4" name="imatra"/>
  <anchor x="403.7" y="0.0" name="nukta"/>
  <anchor x="424.8" y="564.4" name="top"/>
  <anchor x="420.40000000000003" y="564.4" name="vedic"/>
  <outline>
    <contour>
      <point x="71.80000000000001" y="0.0" type="line"/>
      <point x="619.1" y="0.0" type="line" smooth="yes"/>
      <point x="717.5" y="0.0"/>
      <point x="763.4" y="69.4"/>
      <point x="763.4" y="233.7" type="curve" smooth="yes"/>
      <point x="763.4" y="448.20000000000005"/>
      <point x="679.3" y="569.7"/>
      <point x="541.3" y="569.7" type="curve" smooth="yes"/>
      <point x="430.0" y="569.7"/>
      <point x="379.9" y="499.0"/>
      <point x="379.9" y="391.5" type="curve" smooth="yes"/>
      <point x="379.9" y="61.0" type="line"/>
      <point x="222.1" y="61.0" type="line"/>
      <point x="222.1" y="564.4" type="line"/>
      <point x="71.80000000000001" y="564.4" type="line"/>
    </contour>
    <contour>
      <point x="529.6" y="61.0" type="line"/>
      <point x="529.6" y="397.6" type="line" smooth="yes"/>
      <point x="529.6" y="466.4"/>
      <point x="548.1" y="494.1"/>
      <point x="584.7" y="494.1" type="curve" smooth="yes"/>
      <point x="636.5" y="494.1"/>
      <point x="696.5" y="410.0"/>
      <point x="696.5" y="234.6" type="curve" smooth="yes"/>
      <point x="696.5" y="112.4"/>
      <point x="674.4" y="61.0"/>
      <point x="614.1" y="61.0" type="curve" smooth="yes"/>
    </contour>
  </outline>
</glyph>
<glyph name="ya-tamil" format="2">
  <advance width="899.4"/>
  <unicode hex="0BAF"/>
  <note>
uni0BAF
</note>
  <anchor x="467.29999999999995" y="0.0" name="bottom"/>
  <anchor x="821.5" y="564.4" name="imatra"/>
  <anchor x="466.6" y="0.0" name="nukta"/>
  <anchor x="470.0" y="564.4" name="top"/>
  <anchor x="450.5" y="564.4" name="vedic"/>
  <outline>
    <contour>
      <point x="216.6" y="-8.6" type="curve" smooth="yes"/>
      <point x="286.7" y="-8.6"/>
      <point x="324.2" y="27.5"/>
      <point x="345.5" y="60.9" type="curve"/>
      <point x="345.5" y="0.0" type="line"/>
      <point x="828.0" y="0.0" type="line"/>
      <point x="828.0" y="564.4" type="line"/>
      <point x="678.0" y="564.4" type="line"/>
      <point x="678.0" y="61.0" type="line"/>
      <point x="478.0" y="61.0" type="line"/>
      <point x="478.0" y="564.4" type="line"/>
      <point x="332.1" y="564.4" type="line"/>
      <point x="332.1" y="143.6" type="line" smooth="yes"/>
      <point x="332.1" y="93.89999999999999"/>
      <point x="306.1" y="65.5"/>
      <point x="272.4" y="65.5" type="curve" smooth="yes"/>
      <point x="239.5" y="65.5"/>
      <point x="217.70000000000002" y="86.5"/>
      <point x="217.70000000000002" y="144.2" type="curve" smooth="yes"/>
      <point x="217.70000000000002" y="564.4" type="line"/>
      <point x="68.4" y="564.4" type="line"/>
      <point x="68.4" y="156.9" type="line" smooth="yes"/>
      <point x="68.4" y="48.1"/>
      <point x="127.7" y="-8.6"/>
    </contour>
  </outline>
</glyph>
<glyph name="ra-tamil" format="2">
  <advance width="577.6"/>
  <unicode hex="0BB0"/>
  <note>
uni0BB0
</note>
  <anchor x="283.40000000000003" y="0.0" name="bottom"/>
  <anchor x="485.59999999999997" y="564.4" name="imatra"/>
  <anchor x="283.40000000000003" y="-226.6" name="nukta"/>
  <anchor x="298.6" y="564.4" name="top"/>
  <anchor x="314.09999999999997" y="564.4" name="vedic"/>
  <outline>
    <contour>
      <point x="168.5" y="-238.0" type="line"/>
      <point x="440.0" y="40.5" type="line"/>
      <point x="440.0" y="504.1" type="line"/>
      <point x="559.9000000000001" y="504.1" type="line"/>
      <point x="559.9000000000001" y="564.4" type="line"/>
      <point x="71.80000000000001" y="564.4" type="line"/>
      <point x="71.80000000000001" y="0.0" type="line"/>
      <point x="139.0" y="0.0" type="line"/>
      <point x="139.0" y="504.1" type="line"/>
      <point x="289.09999999999997" y="504.1" type="line"/>
      <point x="289.09999999999997" y="-16.6" type="line"/>
      <point x="121.3" y="-193.7" type="line"/>
    </contour>
  </outline>
</glyph>
<glyph name="la-tamil" format="2">
  <advance width="966.1"/>
  <unicode hex="0BB2"/>
  <note>
uni0BB2
</note>
  <anchor x="479.2" y="0.0" name="bottom"/>
  <anchor x="478.5" y="0.0" name="nukta"/>
  <anchor x="502.09999999999997" y="564.4" name="top"/>
  <anchor x="479.7" y="564.4" name="vedic"/>
  <outline>
    <contour>
      <point x="250.8" y="-5.0" type="curve" smooth="yes"/>
      <point x="358.6" y="-5.0"/>
      <point x="427.20000000000005" y="62.400000000000006"/>
      <point x="427.20000000000005" y="162.8" type="curve" smooth="yes"/>
      <point x="427.20000000000005" y="253.29999999999998"/>
      <point x="372.9" y="323.0"/>
      <point x="278.5" y="323.0" type="curve" smooth="yes"/>
      <point x="175.3" y="323.0"/>
      <point x="117.30000000000001" y="235.5"/>
      <point x="111.30000000000001" y="113.69999999999999" type="curve"/>
      <point x="150.1" y="89.8" type="line"/>
      <point x="152.7" y="180.0"/>
      <point x="184.6" y="237.7"/>
      <point x="233.7" y="237.7" type="curve" smooth="yes"/>
      <point x="276.2" y="237.7"/>
      <point x="297.9" y="198.9"/>
      <point x="297.9" y="153.9" type="curve" smooth="yes"/>
      <point x="297.9" y="102.0"/>
      <point x="275.1" y="62.4"/>
      <point x="222.70000000000002" y="62.4" type="curve" smooth="yes"/>
      <point x="155.79999999999998" y="62.4"/>
      <point x="110.0" y="139.9"/>
      <point x="110.0" y="258.3" type="curve" smooth="yes"/>
      <point x="110.0" y="409.4"/>
      <point x="193.70000000000002" y="504.9"/>
      <point x="324.0" y="504.9" type="curve" smooth="yes"/>
      <point x="454.0" y="504.9"/>
      <point x="510.5" y="424.5"/>
      <point x="511.2" y="293.5" type="curve" smooth="yes"/>
      <point x="511.2" y="174.9" type="line" smooth="yes"/>
      <point x="511.2" y="60.800000000000004"/>
      <point x="570.3000000000001" y="-2.9000000000000004"/>
      <point x="689.4" y="-2.9000000000000004" type="curve" smooth="yes"/>
      <point x="824.3000000000001" y="-2.9000000000000004"/>
      <point x="916.1999999999999" y="110.89999999999999"/>
      <point x="916.1999999999999" y="295.0" type="curve" smooth="yes"/>
      <point x="916.1999999999999" y="396.8"/>
      <point x="888.1999999999999" y="475.7"/>
      <point x="826.8" y="569.1" type="curve"/>
      <point x="772.6" y="536.6" type="line"/>
      <point x="826.0" y="454.3"/>
      <point x="851.8000000000001" y="381.90000000000003"/>
      <point x="851.8000000000001" y="291.4" type="curve" smooth="yes"/>
      <point x="851.8000000000001" y="156.0"/>
      <point x="790.9000000000001" y="66.5"/>
      <point x="725.9000000000001" y="66.5" type="curve" smooth="yes"/>
      <point x="682.6" y="66.5"/>
      <point x="661.3" y="97.0"/>
      <point x="661.3" y="167.4" type="curve" smooth="yes"/>
      <point x="661.3" y="301.40000000000003" type="line" smooth="yes"/>
      <point x="661.3" y="472.6"/>
      <point x="542.5999999999999" y="569.4"/>
      <point x="355.2" y="569.4" type="curve" smooth="yes"/>
      <point x="154.0" y="569.4"/>
      <point x="46.3" y="440.8"/>
      <point x="46.3" y="260.29999999999995" type="curve" smooth="yes"/>
      <point x="46.3" y="102.60000000000001"/>
      <point x="125.4" y="-5.0"/>
    </contour>
  </outline>
</glyph>
<glyph name="llla-tamil" format="2">
  <advance width="813.3"/>
  <unicode hex="0BB4"/>
  <note>
uni0BB4
</note>
  <anchor x="407.2" y="0.0" name="bottom"/>
  <anchor x="410.0" y="-330.3" name="nukta"/>
  <anchor x="447.4" y="564.4" name="top"/>
  <anchor x="413.4" y="564.4" name="vedic"/>
  <anchor x="748.5" y="564.4" name="imatra"/>
  <outline>
    <contour>
      <point x="274.5" y="-353.5" type="curve" smooth="yes"/>
      <point x="479.5" y="-353.5"/>
      <point x="513.9" y="-168.79999999999998"/>
      <point x="658.5" y="-168.79999999999998" type="curve" smooth="yes"/>
      <point x="696.4000000000001" y="-168.79999999999998" type="line"/>
      <point x="696.4000000000001" y="-107.0" type="line"/>
      <point x="651.8" y="-107.0" type="line" smooth="yes"/>
      <point x="582.5" y="-107.0"/>
      <point x="529.6" y="-74.10000000000001"/>
      <point x="529.6" y="8.5" type="curve" smooth="yes"/>
      <point x="529.6" y="112.9" type="line"/>
      <point x="380.6" y="112.9" type="line"/>
      <point x="380.6" y="12.1" type="line" smooth="yes"/>
      <point x="380.6" y="-59.400000000000006"/>
      <point x="444.4" y="-118.2"/>
      <point x="523.1" y="-130.1" type="curve"/>
      <point x="523.1" y="-135.79999999999998" type="line"/>
      <point x="388.6" y="-152.4"/>
      <point x="357.70000000000005" y="-284.4"/>
      <point x="243.5" y="-284.4" type="curve" smooth="yes"/>
      <point x="191.0" y="-284.4"/>
      <point x="152.1" y="-254.2"/>
      <point x="152.1" y="-203.10000000000002" type="curve" smooth="yes"/>
      <point x="152.1" y="-158.5"/>
      <point x="180.79999999999998" y="-128.3"/>
      <point x="225.10000000000002" y="-128.3" type="curve" smooth="yes"/>
      <point x="254.3" y="-128.3"/>
      <point x="279.4" y="-141.29999999999998"/>
      <point x="303.0" y="-164.10000000000002" type="curve"/>
      <point x="339.0" y="-121.1" type="line"/>
      <point x="303.7" y="-86.7"/>
      <point x="266.8" y="-70.1"/>
      <point x="220.79999999999998" y="-70.1" type="curve" smooth="yes"/>
      <point x="142.60000000000002" y="-70.1"/>
      <point x="89.8" y="-127.30000000000001"/>
      <point x="89.8" y="-201.70000000000002" type="curve" smooth="yes"/>
      <point x="89.8" y="-294.0"/>
      <point x="166.7" y="-353.5"/>
    </contour>
    <component base="ma-tamil"/>
  </outline>
</glyph>
<glyph name="va-tamil" format="2">
  <advance width="1022.6"/>
  <unicode hex="0BB5"/>
  <note>
uni0BB5
</note>
  <anchor x="534.9" y="0.0" name="bottom"/>
  <anchor x="814.1" y="564.4" name="imatra"/>
  <anchor x="530.7" y="0.0" name="nukta"/>
  <anchor x="522.0" y="564.4" name="top"/>
  <anchor x="505.6" y="564.4" name="vedic"/>
  <outline>
    <contour>
      <point x="250.8" y="-5.0" type="curve" smooth="yes"/>
      <point x="358.6" y="-5.0"/>
      <point x="427.20000000000005" y="62.400000000000006"/>
      <point x="427.20000000000005" y="162.8" type="curve" smooth="yes"/>
      <point x="427.20000000000005" y="253.29999999999998"/>
      <point x="372.9" y="323.0"/>
      <point x="278.5" y="323.0" type="curve" smooth="yes"/>
      <point x="175.3" y="323.0"/>
      <point x="117.30000000000001" y="235.5"/>
      <point x="111.30000000000001" y="113.69999999999999" type="curve"/>
      <point x="150.1" y="89.8" type="line"/>
      <point x="152.7" y="180.0"/>
      <point x="184.6" y="237.7"/>
      <point x="233.7" y="237.7" type="curve" smooth="yes"/>
      <point x="276.2" y="237.7"/>
      <point x="297.9" y="198.9"/>
      <point x="297.9" y="153.9" type="curve" smooth="yes"/>
      <point x="297.9" y="102.0"/>
      <point x="275.1" y="62.4"/>
      <point x="222.70000000000002" y="62.4" type="curve" smooth="yes"/>
      <point x="155.79999999999998" y="62.4"/>
      <point x="110.0" y="139.9"/>
      <point x="110.0" y="258.3" type="curve" smooth="yes"/>
      <point x="110.0" y="405.79999999999995"/>
      <point x="193.4" y="504.9"/>
      <point x="331.8" y="504.9" type="curve" smooth="yes"/>
      <point x="465.59999999999997" y="504.9"/>
      <point x="543.8000000000001" y="407.7"/>
      <point x="543.8000000000001" y="260.9" type="curve" smooth="yes"/>
      <point x="543.8000000000001" y="168.1"/>
      <point x="519.8" y="96.39999999999999"/>
      <point x="483.0" y="44.0" type="curve"/>
      <point x="503.0" y="0.0" type="line"/>
      <point x="951.1999999999999" y="0.0" type="line"/>
      <point x="951.1999999999999" y="564.4" type="line"/>
      <point x="801.1999999999999" y="564.4" type="line"/>
      <point x="801.1999999999999" y="61.0" type="line"/>
      <point x="592.4" y="61.0" type="line"/>
      <point x="648.6" y="118.7"/>
      <point x="686.4000000000001" y="189.6"/>
      <point x="686.4000000000001" y="278.9" type="curve" smooth="yes"/>
      <point x="686.4000000000001" y="459.0"/>
      <point x="549.8000000000001" y="569.4"/>
      <point x="363.5" y="569.4" type="curve" smooth="yes"/>
      <point x="155.5" y="569.4"/>
      <point x="46.3" y="436.5"/>
      <point x="46.3" y="260.29999999999995" type="curve" smooth="yes"/>
      <point x="46.3" y="102.60000000000001"/>
      <point x="125.4" y="-5.0"/>
    </contour>
  </outline>
</glyph>
<glyph name="ssa-tamil" format="2">
  <advance width="1354.8000000000002"/>
  <unicode hex="0BB7"/>
  <note>
uni0BB7
</note>
  <anchor x="682.8" y="0.0" name="bottom"/>
  <anchor x="571.4" y="0.0" name="nukta"/>
  <anchor x="703.1" y="564.4" name="top"/>
  <anchor x="684.7" y="564.4" name="vedic"/>
  <outline>
    <contour>
      <point x="250.8" y="-5.0" type="curve" smooth="yes"/>
      <point x="358.6" y="-5.0"/>
      <point x="427.20000000000005" y="62.400000000000006"/>
      <point x="427.20000000000005" y="162.8" type="curve" smooth="yes"/>
      <point x="427.20000000000005" y="253.29999999999998"/>
      <point x="372.9" y="323.0"/>
      <point x="278.5" y="323.0" type="curve" smooth="yes"/>
      <point x="175.3" y="323.0"/>
      <point x="117.30000000000001" y="235.5"/>
      <point x="111.30000000000001" y="113.69999999999999" type="curve"/>
      <point x="150.1" y="89.8" type="line"/>
      <point x="152.7" y="180.0"/>
      <point x="184.6" y="237.7"/>
      <point x="233.7" y="237.7" type="curve" smooth="yes"/>
      <point x="276.2" y="237.7"/>
      <point x="297.9" y="198.9"/>
      <point x="297.9" y="153.9" type="curve" smooth="yes"/>
      <point x="297.9" y="102.0"/>
      <point x="275.1" y="62.4"/>
      <point x="222.70000000000002" y="62.4" type="curve" smooth="yes"/>
      <point x="155.79999999999998" y="62.4"/>
      <point x="110.0" y="139.9"/>
      <point x="110.0" y="258.3" type="curve" smooth="yes"/>
      <point x="110.0" y="405.79999999999995"/>
      <point x="192.7" y="504.9"/>
      <point x="331.8" y="504.9" type="curve" smooth="yes"/>
      <point x="465.59999999999997" y="504.9"/>
      <point x="543.8000000000001" y="407.7"/>
      <point x="543.8000000000001" y="260.9" type="curve" smooth="yes"/>
      <point x="543.8000000000001" y="168.1"/>
      <point x="519.8" y="96.39999999999999"/>
      <point x="483.0" y="44.0" type="curve"/>
      <point x="503.0" y="0.0" type="line"/>
      <point x="1302.8" y="0.0" type="line"/>
      <point x="1302.8" y="332.2" type="line"/>
      <point x="1155.2" y="278.6" type="line"/>
      <point x="1155.2" y="61.0" type="line"/>
      <point x="592.4" y="61.0" type="line"/>
      <point x="648.6" y="118.7"/>
      <point x="686.4000000000001" y="189.6"/>
      <point x="686.4000000000001" y="278.9" type="curve" smooth="yes"/>
      <point x="686.4000000000001" y="459.0"/>
      <point x="549.8000000000001" y="569.4"/>
      <point x="363.5" y="569.4" type="curve" smooth="yes"/>
      <point x="154.8" y="569.4"/>
      <point x="46.3" y="436.5"/>
      <point x="46.3" y="260.29999999999995" type="curve" smooth="yes"/>
      <point x="46.3" y="102.60000000000001"/>
      <point x="125.4" y="-5.0"/>
    </contour>
    <contour>
      <point x="913.6" y="-282.70000000000005" type="line"/>
      <point x="1059.2" y="-282.70000000000005" type="line"/>
      <point x="1059.2" y="421.2" type="line" smooth="yes"/>
      <point x="1059.2" y="520.8000000000001"/>
      <point x="997.9" y="569.7"/>
      <point x="909.3" y="569.7" type="curve" smooth="yes"/>
      <point x="811.6999999999999" y="569.7"/>
      <point x="753.2" y="503.4"/>
      <point x="753.2" y="409.5" type="curve" smooth="yes"/>
      <point x="753.2" y="281.4"/>
      <point x="834.1" y="203.1"/>
      <point x="976.5" y="203.1" type="curve" smooth="yes"/>
      <point x="1102.6" y="203.1"/>
      <point x="1191.3999999999999" y="241.5"/>
      <point x="1302.8" y="325.0" type="curve"/>
      <point x="1302.8" y="336.9" type="line"/>
      <point x="1268.6" y="372.0" type="line"/>
      <point x="1170.5" y="300.0"/>
      <point x="1090.6" y="260.0"/>
      <point x="981.7" y="260.0" type="curve" smooth="yes"/>
      <point x="871.8" y="260.0"/>
      <point x="813.5" y="304.9"/>
      <point x="813.5" y="409.9" type="curve" smooth="yes"/>
      <point x="813.5" y="455.2"/>
      <point x="835.1" y="484.3"/>
      <point x="865.9" y="484.3" type="curve" smooth="yes"/>
      <point x="894.9000000000001" y="484.3"/>
      <point x="913.6" y="466.4"/>
      <point x="913.6" y="427.8" type="curve" smooth="yes"/>
    </contour>
  </outline>
</glyph>
<glyph name="sa-tamil" format="2">
  <advance width="1262.7"/>
  <unicode hex="0BB8"/>
  <note>
uni0BB8
</note>
  <anchor x="648.0" y="0.0" name="bottom"/>
  <anchor x="645.9" y="0.0" name="nukta"/>
  <anchor x="638.3000000000001" y="564.4" name="top"/>
  <anchor x="645.1999999999999" y="564.4" name="vedic"/>
  <outline>
    <contour>
      <point x="526.0" y="0.0" type="line"/>
      <point x="673.7" y="0.0" type="line"/>
      <point x="673.7" y="421.1" type="line" smooth="yes"/>
      <point x="673.7" y="479.6"/>
      <point x="699.4" y="506.6"/>
      <point x="743.5" y="506.6" type="curve" smooth="yes"/>
      <point x="785.3000000000001" y="506.6"/>
      <point x="807.9" y="479.0"/>
      <point x="807.9" y="431.3" type="curve" smooth="yes"/>
      <point x="807.9" y="174.9" type="line" smooth="yes"/>
      <point x="807.9" y="60.8"/>
      <point x="866.3" y="-2.9000000000000004"/>
      <point x="985.4" y="-2.9000000000000004" type="curve" smooth="yes"/>
      <point x="1119.6" y="-2.9000000000000004"/>
      <point x="1212.8" y="110.6"/>
      <point x="1212.8" y="295.0" type="curve" smooth="yes"/>
      <point x="1212.8" y="396.8"/>
      <point x="1185.4" y="475.7"/>
      <point x="1124.0" y="569.1" type="curve"/>
      <point x="1069.1999999999998" y="536.3000000000001" type="line"/>
      <point x="1122.6" y="454.0"/>
      <point x="1147.8000000000002" y="381.6"/>
      <point x="1147.8000000000002" y="291.1" type="curve" smooth="yes"/>
      <point x="1147.8000000000002" y="155.4"/>
      <point x="1086.9" y="66.5"/>
      <point x="1022.2" y="66.5" type="curve" smooth="yes"/>
      <point x="978.6" y="66.5"/>
      <point x="957.6" y="97.0"/>
      <point x="957.6" y="167.4" type="curve" smooth="yes"/>
      <point x="957.6" y="395.59999999999997" type="line" smooth="yes"/>
      <point x="957.6" y="508.3"/>
      <point x="873.2" y="568.7"/>
      <point x="759.0999999999999" y="568.7" type="curve" smooth="yes"/>
      <point x="652.4" y="568.7"/>
      <point x="573.0" y="513.9"/>
      <point x="573.0" y="419.6" type="curve" smooth="yes"/>
      <point x="573.0" y="352.0" type="line"/>
      <point x="526.0" y="352.0" type="line"/>
    </contour>
    <contour>
      <point x="253.20000000000002" y="-5.0" type="curve" smooth="yes"/>
      <point x="360.3" y="-5.0"/>
      <point x="428.4" y="62.400000000000006"/>
      <point x="428.4" y="162.8" type="curve" smooth="yes"/>
      <point x="428.4" y="253.29999999999998"/>
      <point x="375.0" y="323.0"/>
      <point x="279.90000000000003" y="323.0" type="curve" smooth="yes"/>
      <point x="170.5" y="323.0"/>
      <point x="117.3" y="228.60000000000002"/>
      <point x="113.10000000000001" y="113.39999999999999" type="curve"/>
      <point x="151.60000000000002" y="89.8" type="line"/>
      <point x="154.2" y="175.8"/>
      <point x="181.89999999999998" y="237.7"/>
      <point x="236.1" y="237.7" type="curve" smooth="yes"/>
      <point x="278.6" y="237.7"/>
      <point x="299.4" y="198.9"/>
      <point x="299.4" y="153.9" type="curve" smooth="yes"/>
      <point x="299.4" y="102.0"/>
      <point x="276.5" y="62.4"/>
      <point x="224.8" y="62.4" type="curve" smooth="yes"/>
      <point x="157.89999999999998" y="62.4"/>
      <point x="111.5" y="140.2"/>
      <point x="111.5" y="258.59999999999997" type="curve" smooth="yes"/>
      <point x="111.5" y="408.0"/>
      <point x="197.8" y="503.0"/>
      <point x="327.29999999999995" y="503.0" type="curve" smooth="yes"/>
      <point x="449.7" y="503.0"/>
      <point x="526.7" y="436.6"/>
      <point x="526.7" y="291.4" type="curve"/>
      <point x="595.7" y="298.4" type="line"/>
      <point x="590.0999999999999" y="484.5"/>
      <point x="473.6" y="569.7"/>
      <point x="330.3" y="569.7" type="curve" smooth="yes"/>
      <point x="158.1" y="569.7"/>
      <point x="47.8" y="444.8"/>
      <point x="47.8" y="260.3" type="curve" smooth="yes"/>
      <point x="47.8" y="102.6"/>
      <point x="127.5" y="-5.0"/>
    </contour>
  </outline>
</glyph>
<glyph name="aaMatra-tamil" format="2">
  <advance width="577.5"/>
  <unicode hex="0BBE"/>
  <note>
uni0BBE
</note>
  <anchor x="302.90000000000003" y="0.0" name="bottom"/>
  <anchor x="301.90000000000003" y="0.0" name="nukta"/>
  <anchor x="295.90000000000003" y="564.4" name="top"/>
  <anchor x="295.90000000000003" y="564.4" name="vedic"/>
  <outline>
    <contour>
      <point x="71.80000000000001" y="0.0" type="line"/>
      <point x="139.0" y="0.0" type="line"/>
      <point x="139.0" y="504.1" type="line"/>
      <point x="290.8" y="504.1" type="line"/>
      <point x="290.8" y="0.0" type="line"/>
      <point x="439.9" y="0.0" type="line"/>
      <point x="439.9" y="504.1" type="line"/>
      <point x="559.8" y="504.1" type="line"/>
      <point x="559.8" y="564.4" type="line"/>
      <point x="71.80000000000001" y="564.4" type="line"/>
    </contour>
  </outline>
</glyph>
<glyph name="iMatra-tamil" format="2">
  <advance width="197.7"/>
  <unicode hex="0BBF"/>
  <note>
uni0BBF
</note>
  <anchor x="-141.29999999999998" y="842.1" name="top"/>
  <outline>
    <contour>
      <point x="59.1" y="0.0" type="line"/>
      <point x="126.3" y="0.0" type="line"/>
      <point x="126.3" y="563.5" type="line" smooth="yes"/>
      <point x="126.3" y="745.1999999999999"/>
      <point x="10.100000000000001" y="842.1"/>
      <point x="-141.29999999999998" y="842.1" type="curve" smooth="yes"/>
      <point x="-277.4" y="842.1"/>
      <point x="-352.2" y="761.6"/>
      <point x="-352.2" y="660.5" type="curve" smooth="yes"/>
      <point x="-352.2" y="565.6"/>
      <point x="-291.1" y="510.0"/>
      <point x="-185.70000000000002" y="510.0" type="curve" smooth="yes"/>
      <point x="-183.0" y="510.0" type="line"/>
      <point x="-183.0" y="564.4" type="line"/>
      <point x="-185.70000000000002" y="564.4" type="line" smooth="yes"/>
      <point x="-233.5" y="564.4"/>
      <point x="-271.0" y="587.4"/>
      <point x="-271.0" y="635.0" type="curve" smooth="yes"/>
      <point x="-271.0" y="688.6"/>
      <point x="-224.8" y="723.5"/>
      <point x="-141.8" y="723.5" type="curve" smooth="yes"/>
      <point x="-32.9" y="723.5"/>
      <point x="59.1" y="663.9"/>
      <point x="59.1" y="526.3" type="curve" smooth="yes"/>
    </contour>
  </outline>
</glyph>
<glyph name="iiMatra-tamil" format="2">
  <unicode hex="0BC0"/>
  <note>
uni0BC0
</note>
  <anchor x="0.0" y="564.4" name="_imatra"/>
  <anchor x="6.100000000000001" y="905.4" name="top"/>
  <outline>
    <contour>
      <point x="-29.099999999999998" y="505.5" type="curve" smooth="yes"/>
      <point x="0.0" y="505.5" type="line"/>
      <point x="0.0" y="564.4" type="line"/>
      <point x="-26.3" y="564.4" type="line" smooth="yes"/>
      <point x="-93.80000000000001" y="564.4"/>
      <point x="-138.9" y="611.4"/>
      <point x="-138.9" y="693.3" type="curve" smooth="yes"/>
      <point x="-138.9" y="781.6"/>
      <point x="-90.8" y="843.3"/>
      <point x="-7.399999999999999" y="843.3" type="curve" smooth="yes"/>
      <point x="50.6" y="843.3"/>
      <point x="83.0" y="805.9"/>
      <point x="83.0" y="748.3" type="curve" smooth="yes"/>
      <point x="83.0" y="708.4000000000001"/>
      <point x="61.9" y="680.6"/>
      <point x="29.000000000000004" y="680.6" type="curve" smooth="yes"/>
      <point x="-34.0" y="680.6"/>
      <point x="-46.8" y="776.8"/>
      <point x="-8.499999999999998" y="866.6" type="curve"/>
      <point x="-56.5" y="870.6" type="line"/>
      <point x="-119.1" y="746.9"/>
      <point x="-79.6" y="606.1"/>
      <point x="54.900000000000006" y="606.1" type="curve" smooth="yes"/>
      <point x="134.8" y="606.1"/>
      <point x="192.10000000000002" y="660.2"/>
      <point x="192.10000000000002" y="740.8000000000001" type="curve" smooth="yes"/>
      <point x="192.10000000000002" y="841.9000000000001"/>
      <point x="118.5" y="905.4"/>
      <point x="6.100000000000001" y="905.4" type="curve" smooth="yes"/>
      <point x="-121.2" y="905.4"/>
      <point x="-203.39999999999998" y="817.2"/>
      <point x="-203.39999999999998" y="696.9" type="curve" smooth="yes"/>
      <point x="-203.39999999999998" y="579.7"/>
      <point x="-136.5" y="505.5"/>
    </contour>
  </outline>
</glyph>
<glyph name="uuMatra-tamil" format="2">
  <advance width="799.4"/>
  <unicode hex="0BC2"/>
  <note>
uni0BC2
</note>
  <anchor x="391.70000000000005" y="785.5" name="top"/>
  <outline>
    <contour>
      <point x="340.1" y="5.800000000000001" type="curve" smooth="yes"/>
      <point x="572.0" y="5.800000000000001"/>
      <point x="741.4000000000001" y="154.2"/>
      <point x="741.4000000000001" y="403.7" type="curve" smooth="yes"/>
      <point x="741.4000000000001" y="632.8"/>
      <point x="606.9" y="785.5"/>
      <point x="391.70000000000005" y="785.5" type="curve" smooth="yes"/>
      <point x="195.3" y="785.5"/>
      <point x="112.2" y="651.6"/>
      <point x="112.2" y="529.1" type="curve" smooth="yes"/>
      <point x="112.2" y="405.9" type="line" smooth="yes"/>
      <point x="112.2" y="280.2"/>
      <point x="176.5" y="222.6"/>
      <point x="279.0" y="222.6" type="curve" smooth="yes"/>
      <point x="375.4" y="222.6"/>
      <point x="458.5" y="275.4"/>
      <point x="458.5" y="395.2" type="curve" smooth="yes"/>
      <point x="458.5" y="564.4" type="line"/>
      <point x="-254.3" y="564.4" type="line"/>
      <point x="-208.20000000000002" y="504.1" type="line"/>
      <point x="308.7" y="504.1" type="line"/>
      <point x="308.7" y="380.5" type="line" smooth="yes"/>
      <point x="308.7" y="322.7"/>
      <point x="279.8" y="295.90000000000003"/>
      <point x="241.29999999999998" y="295.90000000000003" type="curve" smooth="yes"/>
      <point x="197.90000000000003" y="295.90000000000003"/>
      <point x="176.8" y="325.7"/>
      <point x="176.8" y="396.40000000000003" type="curve" smooth="yes"/>
      <point x="176.8" y="529.1" type="line" smooth="yes"/>
      <point x="176.8" y="624.0"/>
      <point x="241.6" y="715.7"/>
      <point x="362.40000000000003" y="715.7" type="curve" smooth="yes"/>
      <point x="522.5" y="715.7"/>
      <point x="585.1" y="585.9"/>
      <point x="585.1" y="414.1" type="curve" smooth="yes"/>
      <point x="585.1" y="203.39999999999998"/>
      <point x="486.9" y="74.1"/>
      <point x="324.7" y="74.1" type="curve" smooth="yes"/>
      <point x="219.79999999999998" y="74.1"/>
      <point x="146.70000000000002" y="113.8"/>
      <point x="80.9" y="201.9" type="curve"/>
      <point x="31.500000000000004" y="160.4" type="line"/>
      <point x="104.30000000000001" y="65.2"/>
      <point x="196.0" y="5.800000000000001"/>
    </contour>
  </outline>
</glyph>
<glyph name="eMatra-tamil" format="2">
  <advance width="748.2"/>
  <unicode hex="0BC6"/>
  <note>
uni0BC6
</note>
  <outline>
    <contour>
      <point x="297.90000000000003" y="-5.0" type="curve" smooth="yes"/>
      <point x="405.7" y="-5.0"/>
      <point x="474.0" y="62.400000000000006"/>
      <point x="474.0" y="163.5" type="curve" smooth="yes"/>
      <point x="474.0" y="256.8"/>
      <point x="419.7" y="327.2"/>
      <point x="325.29999999999995" y="327.2" type="curve" smooth="yes"/>
      <point x="220.7" y="327.2"/>
      <point x="161.3" y="235.5"/>
      <point x="155.60000000000002" y="113.7" type="curve"/>
      <point x="194.8" y="89.1" type="line"/>
      <point x="197.4" y="180.7"/>
      <point x="230.0" y="241.9"/>
      <point x="280.8" y="241.9" type="curve" smooth="yes"/>
      <point x="323.3" y="241.9"/>
      <point x="345.0" y="202.4"/>
      <point x="345.0" y="154.6" type="curve" smooth="yes"/>
      <point x="345.0" y="102.0"/>
      <point x="322.2" y="62.4"/>
      <point x="270.5" y="62.4" type="curve" smooth="yes"/>
      <point x="188.4" y="62.4"/>
      <point x="115.7" y="189.7"/>
      <point x="115.7" y="382.3" type="curve" smooth="yes"/>
      <point x="115.7" y="594.4"/>
      <point x="229.8" y="720.0"/>
      <point x="386.9" y="720.0" type="curve" smooth="yes"/>
      <point x="525.7" y="720.0"/>
      <point x="610.3" y="641.6"/>
      <point x="610.3" y="447.40000000000003" type="curve" smooth="yes"/>
      <point x="610.3" y="0.0" type="line"/>
      <point x="676.8000000000001" y="0.0" type="line"/>
      <point x="676.8000000000001" y="485.4" type="line" smooth="yes"/>
      <point x="676.8000000000001" y="721.4"/>
      <point x="576.5" y="840.6"/>
      <point x="390.59999999999997" y="840.6" type="curve" smooth="yes"/>
      <point x="171.29999999999998" y="840.6"/>
      <point x="52.0" y="649.4"/>
      <point x="52.0" y="387.3" type="curve" smooth="yes"/>
      <point x="52.0" y="154.7"/>
      <point x="157.39999999999998" y="-5.0"/>
    </contour>
  </outline>
</glyph>
<glyph name="eeMatra-tamil" format="2">
  <advance width="578.1"/>
  <unicode hex="0BC7"/>
  <note>
uni0BC7
</note>
  <outline>
    <contour>
      <point x="356.90000000000003" y="-5.0" type="curve" smooth="yes"/>
      <point x="460.70000000000005" y="-5.0"/>
      <point x="536.8" y="55.400000000000006"/>
      <point x="536.8" y="163.5" type="curve" smooth="yes"/>
      <point x="536.8" y="256.8"/>
      <point x="481.8" y="327.2"/>
      <point x="387.7" y="327.2" type="curve" smooth="yes"/>
      <point x="280.7" y="327.2"/>
      <point x="220.39999999999998" y="232.20000000000002"/>
      <point x="217.0" y="98.8" type="curve"/>
      <point x="259.0" y="74.9" type="line"/>
      <point x="259.59999999999997" y="176.4"/>
      <point x="292.8" y="241.9"/>
      <point x="343.6" y="241.9" type="curve" smooth="yes"/>
      <point x="386.09999999999997" y="241.9"/>
      <point x="407.8" y="202.4"/>
      <point x="407.8" y="154.6" type="curve" smooth="yes"/>
      <point x="407.8" y="96.3"/>
      <point x="377.3" y="62.4"/>
      <point x="328.0" y="62.4" type="curve" smooth="yes"/>
      <point x="240.39999999999998" y="62.4"/>
      <point x="116.4" y="200.20000000000002"/>
      <point x="116.4" y="417.79999999999995" type="curve" smooth="yes"/>
      <point x="116.4" y="634.4"/>
      <point x="240.39999999999998" y="772.9"/>
      <point x="328.0" y="772.9" type="curve" smooth="yes"/>
      <point x="377.3" y="772.9"/>
      <point x="407.8" y="739.0"/>
      <point x="407.8" y="680.3" type="curve" smooth="yes"/>
      <point x="407.8" y="632.9"/>
      <point x="386.09999999999997" y="593.4"/>
      <point x="343.6" y="593.4" type="curve" smooth="yes"/>
      <point x="292.8" y="593.4"/>
      <point x="259.59999999999997" y="658.2"/>
      <point x="259.0" y="761.4000000000001" type="curve"/>
      <point x="217.0" y="736.8" type="line"/>
      <point x="220.39999999999998" y="603.4"/>
      <point x="280.7" y="508.1"/>
      <point x="387.7" y="508.1" type="curve" smooth="yes"/>
      <point x="481.8" y="508.1"/>
      <point x="536.8" y="578.1"/>
      <point x="536.8" y="671.8" type="curve" smooth="yes"/>
      <point x="536.8" y="779.9"/>
      <point x="460.70000000000005" y="840.3000000000001"/>
      <point x="356.90000000000003" y="840.3000000000001" type="curve" smooth="yes"/>
      <point x="202.0" y="840.3000000000001"/>
      <point x="52.7" y="670.2"/>
      <point x="52.7" y="418.5" type="curve" smooth="yes"/>
      <point x="52.7" y="165.8"/>
      <point x="202.0" y="-5.0"/>
    </contour>
  </outline>
</glyph>
<glyph name="aiMatra-tamil" format="2">
  <advance width="1186.6"/>
  <unicode hex="0BC8"/>
  <note>
uni0BC8
</note>
  <outline>
    <contour>
      <point x="945.0" y="-13.700000000000003" type="line"/>
      <point x="1062.3" y="40.5"/>
      <point x="1140.6" y="125.6"/>
      <point x="1140.6" y="268.5" type="curve" smooth="yes"/>
      <point x="1140.6" y="455.3"/>
      <point x="1001.9" y="569.4"/>
      <point x="815.1999999999999" y="569.4" type="curve" smooth="yes"/>
      <point x="610.6" y="569.4"/>
      <point x="491.0" y="391.40000000000003"/>
      <point x="491.0" y="194.10000000000002" type="curve" smooth="yes"/>
      <point x="491.0" y="69.5"/>
      <point x="544.8000000000001" y="-4.6"/>
      <point x="652.4" y="-4.6" type="curve" smooth="yes"/>
      <point x="758.1" y="-4.6"/>
      <point x="824.7" y="67.89999999999999"/>
      <point x="824.7" y="194.2" type="curve" smooth="yes"/>
      <point x="824.7" y="412.1"/>
      <point x="650.5999999999999" y="569.1"/>
      <point x="401.9" y="569.1" type="curve" smooth="yes"/>
      <point x="196.70000000000002" y="569.1"/>
      <point x="46.3" y="448.5"/>
      <point x="46.3" y="248.9" type="curve" smooth="yes"/>
      <point x="46.3" y="93.3"/>
      <point x="126.8" y="-5.300000000000001"/>
      <point x="251.1" y="-5.300000000000001" type="curve" smooth="yes"/>
      <point x="358.2" y="-5.300000000000001"/>
      <point x="427.2" y="61.8"/>
      <point x="427.2" y="162.5" type="curve" smooth="yes"/>
      <point x="427.2" y="252.7"/>
      <point x="372.9" y="322.40000000000003"/>
      <point x="278.1" y="322.40000000000003" type="curve" smooth="yes"/>
      <point x="173.79999999999998" y="322.40000000000003"/>
      <point x="113.7" y="231.0"/>
      <point x="111.60000000000001" y="113.1" type="curve"/>
      <point x="150.4" y="89.2" type="line"/>
      <point x="153.0" y="179.7"/>
      <point x="184.9" y="237.4"/>
      <point x="233.29999999999998" y="237.4" type="curve" smooth="yes"/>
      <point x="276.5" y="237.4"/>
      <point x="297.5" y="198.3"/>
      <point x="297.5" y="153.3" type="curve" smooth="yes"/>
      <point x="297.5" y="101.39999999999999"/>
      <point x="274.7" y="62.1"/>
      <point x="223.0" y="62.1" type="curve" smooth="yes"/>
      <point x="156.60000000000002" y="62.1"/>
      <point x="110.0" y="130.6"/>
      <point x="110.0" y="247.5" type="curve" smooth="yes"/>
      <point x="110.0" y="413.09999999999997"/>
      <point x="232.79999999999998" y="506.7"/>
      <point x="386.9" y="506.7" type="curve" smooth="yes"/>
      <point x="578.4" y="506.7"/>
      <point x="690.5999999999999" y="379.2"/>
      <point x="690.5999999999999" y="186.8" type="curve" smooth="yes"/>
      <point x="690.5999999999999" y="106.3"/>
      <point x="667.0" y="64.0"/>
      <point x="622.9" y="64.0" type="curve" smooth="yes"/>
      <point x="581.3" y="64.0"/>
      <point x="555.0" y="107.5"/>
      <point x="555.0" y="190.0" type="curve" smooth="yes"/>
      <point x="555.0" y="359.59999999999997"/>
      <point x="642.7" y="507.0"/>
      <point x="804.0" y="507.0" type="curve" smooth="yes"/>
      <point x="928.2" y="507.0"/>
      <point x="1006.9" y="419.8"/>
      <point x="1006.9" y="263.0" type="curve" smooth="yes"/>
      <point x="1006.9" y="164.4"/>
      <point x="977.6" y="91.1"/>
      <point x="916.2" y="29.0" type="curve"/>
    </contour>
  </outline>
</glyph>
<glyph name="halant-tamil" format="2">
  <unicode hex="0BCD"/>
  <note>
uni0BCD
</note>
  <anchor x="0.0" y="564.4" name="_top"/>
  <outline>
    <contour>
      <point x="0.0" y="632.7" type="curve" smooth="yes"/>
      <point x="44.4" y="632.7"/>
      <point x="80.9" y="667.8"/>
      <point x="80.9" y="709.5" type="curve" smooth="yes"/>
      <point x="80.9" y="750.1999999999999"/>
      <point x="44.4" y="785.3"/>
      <point x="0.0" y="785.3" type="curve" smooth="yes"/>
      <point x="-44.4" y="785.3"/>
      <point x="-80.2" y="750.1999999999999"/>
      <point x="-80.2" y="709.5" type="curve" smooth="yes"/>
      <point x="-80.2" y="667.8"/>
      <point x="-44.4" y="632.7"/>
    </contour>
  </outline>
</glyph>
<glyph name="om-tamil" format="2">
  <advance width="928.3"/>
  <unicode hex="0BD0"/>
  <note>
uni0BD0
</note>
  <outline>
    <contour>
      <point x="327.5" y="-378.29999999999995" type="curve" smooth="yes"/>
      <point x="591.8" y="-378.29999999999995"/>
      <point x="591.6999999999999" y="-150.8"/>
      <point x="735.2" y="-150.8" type="curve" smooth="yes"/>
      <point x="783.0" y="-150.8" type="line"/>
      <point x="783.0" y="-89.0" type="line"/>
      <point x="714.3000000000001" y="-89.0" type="line" smooth="yes"/>
      <point x="552.4" y="-89.0"/>
      <point x="468.3" y="59.400000000000006"/>
      <point x="551.3" y="212.10000000000002" type="curve"/>
      <point x="557.6" y="208.8" type="line"/>
      <point x="532.1" y="97.7"/>
      <point x="567.4000000000001" y="0.20000000000000107"/>
      <point x="702.2" y="0.20000000000000107" type="curve" smooth="yes"/>
      <point x="805.4" y="0.20000000000000107"/>
      <point x="882.3000000000001" y="73.8"/>
      <point x="882.3000000000001" y="201.4" type="curve" smooth="yes"/>
      <point x="882.3000000000001" y="439.3"/>
      <point x="682.4" y="569.4"/>
      <point x="437.5" y="569.4" type="curve" smooth="yes"/>
      <point x="217.10000000000002" y="569.4"/>
      <point x="46.3" y="434.4"/>
      <point x="46.3" y="250.60000000000002" type="curve" smooth="yes"/>
      <point x="46.3" y="102.6"/>
      <point x="125.4" y="8.600000000000001"/>
      <point x="249.29999999999998" y="8.600000000000001" type="curve" smooth="yes"/>
      <point x="355.90000000000003" y="8.600000000000001"/>
      <point x="424.20000000000005" y="75.3"/>
      <point x="424.20000000000005" y="175.1" type="curve" smooth="yes"/>
      <point x="424.20000000000005" y="265.40000000000003"/>
      <point x="369.9" y="335.1"/>
      <point x="277.0" y="335.1" type="curve" smooth="yes"/>
      <point x="173.79999999999998" y="335.1"/>
      <point x="114.3" y="243.70000000000002"/>
      <point x="108.6" y="120.8" type="curve"/>
      <point x="147.1" y="93.4" type="line"/>
      <point x="149.70000000000002" y="188.6"/>
      <point x="183.10000000000002" y="249.8"/>
      <point x="232.2" y="249.8" type="curve" smooth="yes"/>
      <point x="273.5" y="249.8"/>
      <point x="294.9" y="211.0"/>
      <point x="294.9" y="166.6" type="curve" smooth="yes"/>
      <point x="294.9" y="115.60000000000001"/>
      <point x="272.09999999999997" y="76.0"/>
      <point x="221.2" y="76.0" type="curve" smooth="yes"/>
      <point x="155.79999999999998" y="76.0"/>
      <point x="110.0" y="137.5"/>
      <point x="110.0" y="249.2" type="curve" smooth="yes"/>
      <point x="110.0" y="406.3"/>
      <point x="265.0" y="509.8"/>
      <point x="428.40000000000003" y="509.8" type="curve" smooth="yes"/>
      <point x="611.0" y="509.8"/>
      <point x="742.6" y="408.59999999999997"/>
      <point x="742.6" y="220.60000000000002" type="curve" smooth="yes"/>
      <point x="742.6" y="128.3"/>
      <point x="714.8" y="70.4"/>
      <point x="661.7" y="70.4" type="curve" smooth="yes"/>
      <point x="599.1" y="70.4"/>
      <point x="581.0" y="159.9"/>
      <point x="623.8" y="265.4" type="curve"/>
      <point x="552.0" y="303.0" type="line"/>
      <point x="412.1" y="113.99999999999999"/>
      <point x="458.4" y="-51.39999999999999"/>
      <point x="597.2" y="-112.2" type="curve"/>
      <point x="597.2" y="-117.2" type="line"/>
      <point x="492.90000000000003" y="-133.0"/>
      <point x="490.9" y="-312.7"/>
      <point x="290.5" y="-312.7" type="curve" smooth="yes"/>
      <point x="185.7" y="-312.7"/>
      <point x="128.5" y="-252.8"/>
      <point x="143.6" y="-164.20000000000002" type="curve"/>
      <point x="87.9" y="-154.0" type="line"/>
      <point x="64.1" y="-292.2"/>
      <point x="164.20000000000002" y="-378.29999999999995"/>
    </contour>
    <contour>
      <point x="196.0" y="-246.6" type="line"/>
      <point x="244.2" y="-246.6" type="line"/>
      <point x="244.2" y="-91.0" type="line"/>
      <point x="196.0" y="-91.0" type="line"/>
    </contour>
    <contour>
      <point x="212.89999999999998" y="-246.6" type="line"/>
      <point x="393.9" y="-246.6" type="line"/>
      <point x="393.9" y="-202.29999999999998" type="line"/>
      <point x="212.89999999999998" y="-202.29999999999998" type="line"/>
    </contour>
    <contour>
      <point x="282.0" y="-246.6" type="line"/>
      <point x="328.90000000000003" y="-246.6" type="line"/>
      <point x="328.90000000000003" y="-153.4" type="line" smooth="yes"/>
      <point x="328.90000000000003" y="-140.8"/>
      <point x="335.4" y="-131.3"/>
      <point x="347.40000000000003" y="-131.3" type="curve" smooth="yes"/>
      <point x="360.40000000000003" y="-131.3"/>
      <point x="365.9" y="-140.8"/>
      <point x="365.9" y="-153.4" type="curve" smooth="yes"/>
      <point x="365.9" y="-246.6" type="line"/>
      <point x="415.1" y="-246.6" type="line"/>
      <point x="415.1" y="-159.29999999999998" type="line" smooth="yes"/>
      <point x="415.1" y="-108.0"/>
      <point x="383.2" y="-89.0"/>
      <point x="347.40000000000003" y="-89.0" type="curve" smooth="yes"/>
      <point x="311.59999999999997" y="-89.0"/>
      <point x="282.0" y="-108.0"/>
      <point x="282.0" y="-159.29999999999998" type="curve" smooth="yes"/>
    </contour>
    <contour>
      <point x="306.9" y="-73.3" type="curve" smooth="yes"/>
      <point x="323.8" y="-73.3"/>
      <point x="338.4" y="-59.4"/>
      <point x="338.4" y="-43.1" type="curve" smooth="yes"/>
      <point x="338.4" y="-25.800000000000004"/>
      <point x="323.8" y="-12.2"/>
      <point x="306.9" y="-12.2" type="curve" smooth="yes"/>
      <point x="289.0" y="-12.2"/>
      <point x="274.7" y="-25.800000000000004"/>
      <point x="274.7" y="-43.1" type="curve" smooth="yes"/>
      <point x="274.7" y="-59.4"/>
      <point x="289.0" y="-73.3"/>
    </contour>
  </outline>
</glyph>
<glyph name="zero-tamil" format="2">
  <advance width="560.6"/>
  <unicode hex="0BE6"/>
  <note>
uni0BE6
</note>
  <outline>
    <contour>
      <point x="273.40000000000003" y="-5.0" type="curve" smooth="yes"/>
      <point x="422.8" y="-5.0"/>
      <point x="514.6" y="101.5"/>
      <point x="514.6" y="282.7" type="curve" smooth="yes"/>
      <point x="514.6" y="464.7"/>
      <point x="423.5" y="569.4"/>
      <point x="278.3" y="569.4" type="curve" smooth="yes"/>
      <point x="130.3" y="569.4"/>
      <point x="46.3" y="455.3"/>
      <point x="46.3" y="279.9" type="curve" smooth="yes"/>
      <point x="46.3" y="111.7"/>
      <point x="124.7" y="-5.0"/>
    </contour>
    <contour>
      <point x="247.1" y="66.5" type="curve" smooth="yes"/>
      <point x="150.89999999999998" y="66.5"/>
      <point x="111.1" y="162.1"/>
      <point x="111.1" y="282.7" type="curve" smooth="yes"/>
      <point x="111.1" y="404.09999999999997"/>
      <point x="153.0" y="497.90000000000003"/>
      <point x="247.1" y="497.90000000000003" type="curve" smooth="yes"/>
      <point x="335.4" y="497.90000000000003"/>
      <point x="378.90000000000003" y="421.7"/>
      <point x="378.90000000000003" y="282.7" type="curve" smooth="yes"/>
      <point x="378.90000000000003" y="144.2"/>
      <point x="330.59999999999997" y="66.5"/>
    </contour>
  </outline>
</glyph>
<glyph name="one-tamil" format="2">
  <advance width="779.0999999999999"/>
  <unicode hex="0BE7"/>
  <note>
uni0BE7
</note>
  <outline>
    <contour>
      <point x="246.9" y="-4.3" type="curve" smooth="yes"/>
      <point x="399.09999999999997" y="-4.3"/>
      <point x="484.9" y="73.2"/>
      <point x="484.9" y="209.5" type="curve" smooth="yes"/>
      <point x="484.9" y="268.6" type="line"/>
      <point x="503.9" y="268.6" type="line" smooth="yes"/>
      <point x="557.4" y="268.6"/>
      <point x="588.1999999999999" y="231.8"/>
      <point x="588.1999999999999" y="160.1" type="curve" smooth="yes"/>
      <point x="588.1999999999999" y="92.2"/>
      <point x="555.3000000000001" y="62.4"/>
      <point x="515.2" y="62.4" type="curve" smooth="yes"/>
      <point x="480.3" y="62.4"/>
      <point x="456.8" y="82.0"/>
      <point x="435.6" y="118.3" type="curve"/>
      <point x="393.6" y="78.7" type="line"/>
      <point x="430.7" y="24.7"/>
      <point x="475.09999999999997" y="-5.0"/>
      <point x="549.4" y="-5.0" type="curve" smooth="yes"/>
      <point x="641.1999999999999" y="-5.0"/>
      <point x="730.9" y="42.7"/>
      <point x="730.9" y="159.2" type="curve" smooth="yes"/>
      <point x="730.9" y="275.9"/>
      <point x="645.3" y="329.6"/>
      <point x="510.5" y="329.6" type="curve" smooth="yes"/>
      <point x="484.9" y="329.6" type="line"/>
      <point x="484.9" y="503.4" type="line"/>
      <point x="616.0" y="503.4" type="line"/>
      <point x="616.0" y="564.4" type="line"/>
      <point x="155.4" y="564.4" type="line"/>
      <point x="155.4" y="295.5" type="line"/>
      <point x="221.29999999999998" y="295.5" type="line"/>
      <point x="221.29999999999998" y="503.4" type="line"/>
      <point x="333.8" y="503.4" type="line"/>
      <point x="333.8" y="329.6" type="line"/>
      <point x="206.1" y="329.6" type="line" smooth="yes"/>
      <point x="115.2" y="329.6"/>
      <point x="47.8" y="264.2"/>
      <point x="47.8" y="170.0" type="curve" smooth="yes"/>
      <point x="47.8" y="66.80000000000001"/>
      <point x="116.7" y="-4.3"/>
    </contour>
    <contour>
      <point x="219.79999999999998" y="63.1" type="curve" smooth="yes"/>
      <point x="153.9" y="63.1"/>
      <point x="115.6" y="102.80000000000001"/>
      <point x="115.6" y="168.3" type="curve" smooth="yes"/>
      <point x="115.6" y="227.10000000000002"/>
      <point x="144.8" y="268.6"/>
      <point x="212.8" y="268.6" type="curve" smooth="yes"/>
      <point x="333.8" y="268.6" type="line"/>
      <point x="333.8" y="198.1" type="line" smooth="yes"/>
      <point x="333.8" y="104.7"/>
      <point x="286.79999999999995" y="63.1"/>
    </contour>
  </outline>
</glyph>
<glyph name="two-tamil" format="2">
  <advance width="857.4"/>
  <unicode hex="0BE8"/>
  <note>
uni0BE8
</note>
  <outline>
    <contour>
      <point x="146.0" y="0.0" type="curve" smooth="yes"/>
      <point x="839.6999999999999" y="0.0" type="line"/>
      <point x="839.6999999999999" y="61.0" type="line"/>
      <point x="143.1" y="61.0" type="line" smooth="yes"/>
      <point x="125.4" y="61.0"/>
      <point x="111.0" y="75.9"/>
      <point x="111.0" y="97.3" type="curve" smooth="yes"/>
      <point x="111.0" y="118.4"/>
      <point x="125.4" y="133.3"/>
      <point x="143.1" y="133.3" type="curve" smooth="yes"/>
      <point x="345.3" y="133.3" type="line" smooth="yes"/>
      <point x="506.8" y="133.3"/>
      <point x="611.6" y="209.79999999999998"/>
      <point x="611.6" y="349.2" type="curve" smooth="yes"/>
      <point x="611.6" y="498.1"/>
      <point x="499.2" y="569.4"/>
      <point x="348.40000000000003" y="569.4" type="curve" smooth="yes"/>
      <point x="202.10000000000002" y="569.4"/>
      <point x="107.2" y="491.8"/>
      <point x="107.2" y="352.7" type="curve" smooth="yes"/>
      <point x="107.2" y="216.2"/>
      <point x="191.20000000000002" y="153.4"/>
      <point x="317.5" y="153.4" type="curve"/>
      <point x="317.5" y="191.6" type="line"/>
      <point x="216.6" y="191.6"/>
      <point x="170.6" y="253.4"/>
      <point x="170.6" y="351.4" type="curve" smooth="yes"/>
      <point x="170.6" y="452.3"/>
      <point x="227.79999999999998" y="508.4"/>
      <point x="318.90000000000003" y="508.4" type="curve" smooth="yes"/>
      <point x="407.90000000000003" y="508.4"/>
      <point x="471.0" y="456.5"/>
      <point x="471.0" y="351.4" type="curve" smooth="yes"/>
      <point x="471.0" y="248.5"/>
      <point x="411.7" y="191.6"/>
      <point x="317.5" y="191.6" type="curve" smooth="yes"/>
      <point x="146.0" y="191.6" type="line" smooth="yes"/>
      <point x="89.1" y="191.6"/>
      <point x="50.099999999999994" y="156.0"/>
      <point x="50.099999999999994" y="97.3" type="curve" smooth="yes"/>
      <point x="50.099999999999994" y="38.3"/>
      <point x="89.1" y="0.0"/>
    </contour>
  </outline>
</glyph>
<glyph name="four-tamil" format="2">
  <advance width="790.2"/>
  <unicode hex="0BEA"/>
  <note>
uni0BEA
</note>
  <outline>
    <contour>
      <point x="246.9" y="-4.0" type="curve" smooth="yes"/>
      <point x="399.09999999999997" y="-4.0"/>
      <point x="484.2" y="73.2"/>
      <point x="484.2" y="209.5" type="curve" smooth="yes"/>
      <point x="484.2" y="268.6" type="line"/>
      <point x="756.8000000000001" y="268.6" type="line"/>
      <point x="756.8000000000001" y="564.4" type="line"/>
      <point x="689.5" y="564.4" type="line"/>
      <point x="689.5" y="329.6" type="line"/>
      <point x="484.2" y="329.6" type="line"/>
      <point x="484.2" y="503.4" type="line"/>
      <point x="616.0" y="503.4" type="line"/>
      <point x="616.0" y="564.4" type="line"/>
      <point x="155.4" y="564.4" type="line"/>
      <point x="155.4" y="300.0" type="line"/>
      <point x="221.29999999999998" y="300.0" type="line"/>
      <point x="221.29999999999998" y="503.4" type="line"/>
      <point x="334.5" y="503.4" type="line"/>
      <point x="334.5" y="329.6" type="line"/>
      <point x="206.1" y="329.6" type="line" smooth="yes"/>
      <point x="115.2" y="329.6"/>
      <point x="47.8" y="264.2"/>
      <point x="47.8" y="170.0" type="curve" smooth="yes"/>
      <point x="47.8" y="66.8"/>
      <point x="116.7" y="-4.0"/>
    </contour>
    <contour>
      <point x="219.79999999999998" y="63.1" type="curve" smooth="yes"/>
      <point x="153.89999999999998" y="63.1"/>
      <point x="115.6" y="102.8"/>
      <point x="115.6" y="168.3" type="curve" smooth="yes"/>
      <point x="115.6" y="227.1"/>
      <point x="144.8" y="268.6"/>
      <point x="212.8" y="268.6" type="curve" smooth="yes"/>
      <point x="334.5" y="268.6" type="line"/>
      <point x="334.5" y="198.1" type="line" smooth="yes"/>
      <point x="334.5" y="104.7"/>
      <point x="286.79999999999995" y="63.1"/>
    </contour>
  </outline>
</glyph>
<glyph name="five-tamil" format="2">
  <advance width="1028.8"/>
  <unicode hex="0BEB"/>
  <note>
uni0BEB
</note>
  <outline>
    <contour>
      <point x="500.9" y="-297.4" type="curve" smooth="yes"/>
      <point x="732.7" y="-297.4"/>
      <point x="920.1999999999999" y="-146.8"/>
      <point x="920.1999999999999" y="103.1" type="curve" smooth="yes"/>
      <point x="920.1999999999999" y="247.8"/>
      <point x="854.5999999999999" y="347.3"/>
      <point x="750.3000000000001" y="347.3" type="curve" smooth="yes"/>
      <point x="658.6" y="347.3"/>
      <point x="607.6" y="279.70000000000005"/>
      <point x="607.6" y="179.4" type="curve" smooth="yes"/>
      <point x="607.6" y="138.4" type="line"/>
      <point x="632.5" y="138.4" type="line"/>
      <point x="632.5" y="178.1" type="line" smooth="yes"/>
      <point x="632.5" y="226.8"/>
      <point x="657.9" y="260.4"/>
      <point x="697.4" y="260.4" type="curve" smooth="yes"/>
      <point x="751.8" y="260.4"/>
      <point x="778.3000000000001" y="199.2"/>
      <point x="778.3000000000001" y="102.2" type="curve" smooth="yes"/>
      <point x="778.3000000000001" y="-111.9"/>
      <point x="665.1" y="-234.3"/>
      <point x="484.2" y="-234.3" type="curve" smooth="yes"/>
      <point x="253.89999999999998" y="-234.3"/>
      <point x="120.3" y="-35.4"/>
      <point x="120.3" y="258.9" type="curve" smooth="yes"/>
      <point x="120.3" y="552.2"/>
      <point x="265.0" y="727.7"/>
      <point x="520.8" y="727.7" type="curve" smooth="yes"/>
      <point x="711.1999999999999" y="727.7"/>
      <point x="874.7" y="632.5"/>
      <point x="903.7" y="394.1" type="curve"/>
      <point x="970.3" y="394.1" type="line"/>
      <point x="943.6" y="689.3"/>
      <point x="766.1999999999999" y="844.8"/>
      <point x="518.9" y="844.8" type="curve" smooth="yes"/>
      <point x="224.7" y="844.8"/>
      <point x="52.699999999999996" y="605.9"/>
      <point x="52.699999999999996" y="258.9" type="curve" smooth="yes"/>
      <point x="52.699999999999996" y="-70.1"/>
      <point x="217.8" y="-297.4"/>
    </contour>
    <contour>
      <point x="295.5" y="0.0" type="line"/>
      <point x="362.40000000000003" y="0.0" type="line"/>
      <point x="362.40000000000003" y="504.1" type="line"/>
      <point x="482.5" y="504.1" type="line"/>
      <point x="482.5" y="0.0" type="line"/>
      <point x="632.5" y="0.0" type="line"/>
      <point x="632.5" y="504.1" type="line"/>
      <point x="765.0" y="504.1" type="line"/>
      <point x="765.0" y="564.4" type="line"/>
      <point x="295.5" y="564.4" type="line"/>
    </contour>
  </outline>
</glyph>
<glyph name="six-tamil" format="2">
  <advance width="1070.9"/>
  <unicode hex="0BEC"/>
  <note>
uni0BEC
</note>
  <outline>
    <contour>
      <point x="246.9" y="-4.0" type="curve" smooth="yes"/>
      <point x="400.5" y="-4.0"/>
      <point x="484.2" y="73.2"/>
      <point x="484.2" y="209.5" type="curve" smooth="yes"/>
      <point x="484.2" y="268.6" type="line"/>
      <point x="537.8" y="268.6" type="line" smooth="yes"/>
      <point x="567.7" y="268.6"/>
      <point x="585.5" y="249.8"/>
      <point x="585.5" y="215.7" type="curve" smooth="yes"/>
      <point x="585.5" y="0.0" type="line"/>
      <point x="725.1999999999999" y="0.0" type="line"/>
      <point x="725.1999999999999" y="215.7" type="line" smooth="yes"/>
      <point x="725.1999999999999" y="250.5"/>
      <point x="743.0" y="268.6"/>
      <point x="772.9" y="268.6" type="curve" smooth="yes"/>
      <point x="1032.6" y="268.6" type="line"/>
      <point x="1032.6" y="329.6" type="line"/>
      <point x="748.3" y="329.6" type="line" smooth="yes"/>
      <point x="701.9" y="329.6"/>
      <point x="665.6999999999999" y="304.2"/>
      <point x="655.7" y="261.1" type="curve"/>
      <point x="645.0" y="304.2"/>
      <point x="609.5" y="329.6"/>
      <point x="561.0" y="329.6" type="curve" smooth="yes"/>
      <point x="484.2" y="329.6" type="line"/>
      <point x="484.2" y="503.4" type="line"/>
      <point x="616.0" y="503.4" type="line"/>
      <point x="616.0" y="564.4" type="line"/>
      <point x="155.4" y="564.4" type="line"/>
      <point x="155.4" y="295.5" type="line"/>
      <point x="221.29999999999998" y="295.5" type="line"/>
      <point x="221.29999999999998" y="503.4" type="line"/>
      <point x="334.5" y="503.4" type="line"/>
      <point x="334.5" y="329.6" type="line"/>
      <point x="206.1" y="329.6" type="line" smooth="yes"/>
      <point x="115.2" y="329.6"/>
      <point x="47.8" y="264.2"/>
      <point x="47.8" y="170.0" type="curve" smooth="yes"/>
      <point x="47.8" y="66.8"/>
      <point x="116.7" y="-4.0"/>
    </contour>
    <contour>
      <point x="219.79999999999998" y="63.1" type="curve" smooth="yes"/>
      <point x="153.89999999999998" y="63.1"/>
      <point x="115.6" y="102.8"/>
      <point x="115.6" y="168.3" type="curve" smooth="yes"/>
      <point x="115.6" y="227.1"/>
      <point x="144.8" y="268.6"/>
      <point x="212.8" y="268.6" type="curve" smooth="yes"/>
      <point x="334.5" y="268.6" type="line"/>
      <point x="334.5" y="198.1" type="line" smooth="yes"/>
      <point x="334.5" y="104.7"/>
      <point x="288.2" y="63.1"/>
    </contour>
    <contour>
      <point x="827.1999999999999" y="0.0" type="line"/>
      <point x="968.5999999999999" y="0.0" type="line"/>
      <point x="968.5999999999999" y="293.5" type="line"/>
      <point x="827.1999999999999" y="293.5" type="line"/>
    </contour>
  </outline>
</glyph>
<glyph name="eight-tamil" format="2">
  <advance width="1168.3"/>
  <unicode hex="0BEE"/>
  <note>
uni0BEE
</note>
  <outline>
    <contour>
      <point x="949.1" y="-205.7" type="line"/>
      <point x="1096.9" y="-205.7" type="line"/>
      <point x="1096.9" y="564.4" type="line"/>
      <point x="949.1" y="564.4" type="line"/>
      <point x="949.1" y="164.3" type="line"/>
      <point x="111.2" y="164.3" type="line" smooth="yes"/>
      <point x="58.199999999999996" y="164.3"/>
      <point x="27.6" y="131.5"/>
      <point x="27.6" y="83.3" type="curve" smooth="yes"/>
      <point x="27.6" y="-31.5"/>
      <point x="178.1" y="-143.3"/>
      <point x="392.0" y="-143.3" type="curve" smooth="yes"/>
      <point x="653.5999999999999" y="-143.3"/>
      <point x="857.5" y="-6.500000000000001"/>
      <point x="857.5" y="244.29999999999998" type="curve" smooth="yes"/>
      <point x="857.5" y="439.2"/>
      <point x="734.9" y="569.4"/>
      <point x="558.1" y="569.4" type="curve" smooth="yes"/>
      <point x="398.7" y="569.4"/>
      <point x="319.79999999999995" y="457.3"/>
      <point x="319.79999999999995" y="323.9" type="curve" smooth="yes"/>
      <point x="319.79999999999995" y="259.4"/>
      <point x="341.0" y="193.4"/>
      <point x="381.79999999999995" y="132.1" type="curve"/>
      <point x="449.2" y="132.8" type="line"/>
      <point x="404.09999999999997" y="195.8"/>
      <point x="385.1" y="257.2"/>
      <point x="385.1" y="317.5" type="curve" smooth="yes"/>
      <point x="385.1" y="424.5"/>
      <point x="436.90000000000003" y="506.7"/>
      <point x="539.5" y="506.7" type="curve" smooth="yes"/>
      <point x="646.4" y="506.7"/>
      <point x="714.7" y="419.3"/>
      <point x="714.7" y="263.5" type="curve" smooth="yes"/>
      <point x="714.7" y="36.699999999999996"/>
      <point x="569.6" y="-81.3"/>
      <point x="372.29999999999995" y="-81.3" type="curve" smooth="yes"/>
      <point x="210.3" y="-81.3"/>
      <point x="97.0" y="5.399999999999999"/>
      <point x="97.0" y="75.0" type="curve" smooth="yes"/>
      <point x="97.0" y="92.3"/>
      <point x="106.0" y="103.3"/>
      <point x="127.4" y="103.3" type="curve" smooth="yes"/>
      <point x="949.1" y="103.3" type="line"/>
    </contour>
  </outline>
</glyph>
<glyph name="nine-tamil" format="2">
  <advance width="1118.8"/>
  <unicode hex="0BEF"/>
  <note>
uni0BEF
</note>
  <outline>
    <contour>
      <point x="930.4" y="-17.9" type="line"/>
      <point x="1021.2" y="22.5"/>
      <point x="1081.2" y="86.0"/>
      <point x="1081.2" y="193.7" type="curve" smooth="yes"/>
      <point x="1081.2" y="338.9"/>
      <point x="963.7" y="430.5"/>
      <point x="813.0" y="430.5" type="curve" smooth="yes"/>
      <point x="657.5" y="430.5"/>
      <point x="550.4" y="330.29999999999995"/>
      <point x="550.4" y="179.6" type="curve" smooth="yes"/>
      <point x="550.4" y="69.2"/>
      <point x="603.9" y="-5.0"/>
      <point x="707.8000000000001" y="-5.0" type="curve" smooth="yes"/>
      <point x="794.0" y="-5.0"/>
      <point x="862.8" y="48.3"/>
      <point x="862.8" y="148.5" type="curve" smooth="yes"/>
      <point x="862.8" y="262.0"/>
      <point x="775.9" y="329.6"/>
      <point x="648.8" y="329.6" type="curve" smooth="yes"/>
      <point x="484.2" y="329.6" type="line"/>
      <point x="484.2" y="503.4" type="line"/>
      <point x="616.0" y="503.4" type="line"/>
      <point x="616.0" y="564.4" type="line"/>
      <point x="155.4" y="564.4" type="line"/>
      <point x="155.4" y="295.5" type="line"/>
      <point x="221.29999999999998" y="295.5" type="line"/>
      <point x="221.29999999999998" y="503.4" type="line"/>
      <point x="334.5" y="503.4" type="line"/>
      <point x="334.5" y="329.6" type="line"/>
      <point x="206.1" y="329.6" type="line" smooth="yes"/>
      <point x="115.2" y="329.6"/>
      <point x="47.8" y="264.2"/>
      <point x="47.8" y="170.0" type="curve" smooth="yes"/>
      <point x="47.8" y="66.8"/>
      <point x="116.7" y="-4.3"/>
      <point x="246.9" y="-4.3" type="curve" smooth="yes"/>
      <point x="399.09999999999997" y="-4.3"/>
      <point x="484.2" y="73.2"/>
      <point x="484.2" y="209.5" type="curve" smooth="yes"/>
      <point x="484.2" y="268.6" type="line"/>
      <point x="631.6999999999999" y="268.6" type="line" smooth="yes"/>
      <point x="697.2" y="268.6"/>
      <point x="738.7" y="220.5"/>
      <point x="738.7" y="145.0" type="curve" smooth="yes"/>
      <point x="738.7" y="93.5"/>
      <point x="716.0" y="62.4"/>
      <point x="679.5" y="62.4" type="curve" smooth="yes"/>
      <point x="637.1" y="62.4"/>
      <point x="611.4" y="110.60000000000001"/>
      <point x="611.4" y="172.79999999999998" type="curve" smooth="yes"/>
      <point x="611.4" y="295.59999999999997"/>
      <point x="682.5" y="366.7"/>
      <point x="786.3" y="366.7" type="curve" smooth="yes"/>
      <point x="889.6" y="366.7"/>
      <point x="957.8" y="297.09999999999997"/>
      <point x="957.8" y="184.9" type="curve" smooth="yes"/>
      <point x="957.8" y="121.3"/>
      <point x="939.2" y="67.0"/>
      <point x="899.0999999999999" y="26.5" type="curve"/>
    </contour>
    <contour>
      <point x="219.79999999999998" y="63.1" type="curve" smooth="yes"/>
      <point x="153.89999999999998" y="63.1"/>
      <point x="115.6" y="102.8"/>
      <point x="115.6" y="168.3" type="curve" smooth="yes"/>
      <point x="115.6" y="227.1"/>
      <point x="144.8" y="268.6"/>
      <point x="212.8" y="268.6" type="curve" smooth="yes"/>
      <point x="334.5" y="268.6" type="line"/>
      <point x="334.5" y="198.1" type="line" smooth="yes"/>
      <point x="334.5" y="104.7"/>
      <point x="286.79999999999995" y="63.1"/>
    </contour>
  </outline>
</glyph>
<glyph name="ten-tamil" format="2">
  <advance width="799.2"/>
  <unicode hex="0BF0"/>
  <note>
uni0BF0
</note>
  <outline>
    <contour>
      <point x="501.2" y="-5.0" type="curve" smooth="yes"/>
      <point x="644.3" y="-5.0"/>
      <point x="746.3" y="129.5"/>
      <point x="746.3" y="344.4" type="curve" smooth="yes"/>
      <point x="746.3" y="579.4"/>
      <point x="640.6" y="785.1"/>
      <point x="325.4" y="819.1" type="curve"/>
      <point x="319.40000000000003" y="756.4" type="line"/>
      <point x="597.5" y="727.9"/>
      <point x="680.5" y="537.3"/>
      <point x="680.5" y="354.1" type="curve" smooth="yes"/>
      <point x="680.5" y="169.8"/>
      <point x="606.9" y="63.9"/>
      <point x="530.1" y="63.9" type="curve" smooth="yes"/>
      <point x="498.9" y="63.9"/>
      <point x="484.0" y="84.60000000000001"/>
      <point x="484.0" y="118.60000000000001" type="curve" smooth="yes"/>
      <point x="484.0" y="564.4" type="line"/>
      <point x="338.09999999999997" y="564.4" type="line"/>
      <point x="338.09999999999997" y="159.79999999999998" type="line" smooth="yes"/>
      <point x="338.09999999999997" y="57.800000000000004"/>
      <point x="394.9" y="-5.0"/>
    </contour>
    <contour>
      <point x="226.9" y="-6.4" type="curve" smooth="yes"/>
      <point x="305.5" y="-6.4"/>
      <point x="374.09999999999997" y="36.6"/>
      <point x="374.09999999999997" y="140.0" type="curve" smooth="yes"/>
      <point x="374.09999999999997" y="216.4" type="line"/>
      <point x="338.09999999999997" y="216.4" type="line"/>
      <point x="338.09999999999997" y="140.4" type="line" smooth="yes"/>
      <point x="338.09999999999997" y="90.0"/>
      <point x="313.8" y="63.9"/>
      <point x="280.8" y="63.9" type="curve" smooth="yes"/>
      <point x="246.4" y="63.9"/>
      <point x="224.70000000000002" y="84.1"/>
      <point x="224.70000000000002" y="137.9" type="curve" smooth="yes"/>
      <point x="224.70000000000002" y="564.4" type="line"/>
      <point x="74.7" y="564.4" type="line"/>
      <point x="74.7" y="152.7" type="line" smooth="yes"/>
      <point x="74.7" y="47.7"/>
      <point x="136.6" y="-6.4"/>
    </contour>
  </outline>
</glyph>
<glyph name="onehundred-tamil" format="2">
  <advance width="802.2"/>
  <unicode hex="0BF1"/>
  <note>
uni0BF1
</note>
  <outline>
    <contour>
      <point x="263.2" y="0.0" type="line"/>
      <point x="328.7" y="0.0" type="line"/>
      <point x="328.7" y="504.1" type="line"/>
      <point x="483.3" y="504.1" type="line"/>
      <point x="483.3" y="0.0" type="line"/>
      <point x="632.4" y="0.0" type="line"/>
      <point x="632.4" y="504.1" type="line"/>
      <point x="752.3" y="504.1" type="line"/>
      <point x="752.3" y="564.4" type="line"/>
      <point x="263.2" y="564.4" type="line"/>
    </contour>
    <contour>
      <point x="64.19999999999999" y="0.0" type="line"/>
      <point x="131.4" y="0.0" type="line"/>
      <point x="131.4" y="424.9" type="line" smooth="yes"/>
      <point x="131.4" y="480.9"/>
      <point x="154.79999999999998" y="509.9"/>
      <point x="197.4" y="509.9" type="curve" smooth="yes"/>
      <point x="238.8" y="509.9"/>
      <point x="263.2" y="478.7"/>
      <point x="263.2" y="418.59999999999997" type="curve"/>
      <point x="291.6" y="418.59999999999997" type="line"/>
      <point x="291.6" y="511.79999999999995"/>
      <point x="250.0" y="570.1"/>
      <point x="177.3" y="570.1" type="curve" smooth="yes"/>
      <point x="101.9" y="570.1"/>
      <point x="64.19999999999999" y="514.6999999999999"/>
      <point x="64.19999999999999" y="424.8" type="curve" smooth="yes"/>
    </contour>
  </outline>
</glyph>
<glyph name="onethousand-tamil" format="2">
  <advance width="1077.1"/>
  <unicode hex="0BF2"/>
  <note>
uni0BF2
</note>
  <outline>
    <contour>
      <point x="247.60000000000002" y="-4.0" type="curve" smooth="yes"/>
      <point x="399.8" y="-4.0"/>
      <point x="484.9" y="73.2"/>
      <point x="484.9" y="209.5" type="curve" smooth="yes"/>
      <point x="484.9" y="503.4" type="line"/>
      <point x="616.6999999999999" y="503.4" type="line"/>
      <point x="616.6999999999999" y="564.4" type="line"/>
      <point x="156.10000000000002" y="564.4" type="line"/>
      <point x="156.10000000000002" y="295.5" type="line"/>
      <point x="222.0" y="295.5" type="line"/>
      <point x="222.0" y="503.4" type="line"/>
      <point x="335.2" y="503.4" type="line"/>
      <point x="335.2" y="198.1" type="line" smooth="yes"/>
      <point x="335.2" y="104.7"/>
      <point x="287.5" y="63.1"/>
      <point x="220.5" y="63.1" type="curve" smooth="yes"/>
      <point x="154.6" y="63.1"/>
      <point x="116.30000000000001" y="102.8"/>
      <point x="116.30000000000001" y="168.3" type="curve" smooth="yes"/>
      <point x="116.30000000000001" y="227.1"/>
      <point x="145.5" y="268.6"/>
      <point x="213.5" y="268.6" type="curve" smooth="yes"/>
      <point x="951.6" y="268.6" type="line"/>
      <point x="951.6" y="329.6" type="line"/>
      <point x="206.79999999999998" y="329.6" type="line" smooth="yes"/>
      <point x="115.9" y="329.6"/>
      <point x="48.5" y="264.2"/>
      <point x="48.5" y="170.0" type="curve" smooth="yes"/>
      <point x="48.5" y="66.8"/>
      <point x="117.4" y="-4.0"/>
    </contour>
    <contour>
      <point x="484.19999999999993" y="-294.20000000000005" type="curve"/>
      <point x="484.19999999999993" y="-204.29999999999998"/>
      <point x="507.8" y="-156.89999999999998"/>
      <point x="609.8000000000001" y="-156.89999999999998" type="curve" smooth="yes"/>
      <point x="742.9000000000001" y="-156.89999999999998" type="line" smooth="yes"/>
      <point x="941.2" y="-156.89999999999998"/>
      <point x="1023.5000000000001" y="-86.3"/>
      <point x="1023.5000000000001" y="31.8" type="curve" smooth="yes"/>
      <point x="1023.5000000000001" y="153.8"/>
      <point x="937.0" y="201.1"/>
      <point x="815.1999999999999" y="201.1" type="curve" smooth="yes"/>
      <point x="647.1999999999999" y="201.1" type="line" smooth="yes"/>
      <point x="583.4" y="201.1"/>
      <point x="532.2" y="159.3"/>
      <point x="532.2" y="85.7" type="curve" smooth="yes"/>
      <point x="532.2" y="14.3"/>
      <point x="578.0" y="-34.2"/>
      <point x="667.3" y="-34.2" type="curve" smooth="yes"/>
      <point x="764.4" y="-34.2"/>
      <point x="827.1" y="17.7"/>
      <point x="827.1" y="113.8" type="curve" smooth="yes"/>
      <point x="827.1" y="294.9" type="line"/>
      <point x="703.5" y="294.9" type="line"/>
      <point x="703.5" y="106.1" type="line" smooth="yes"/>
      <point x="703.5" y="49.400000000000006"/>
      <point x="679.1999999999999" y="25.200000000000003"/>
      <point x="643.5" y="25.200000000000003" type="curve" smooth="yes"/>
      <point x="615.0" y="25.200000000000003"/>
      <point x="594.0" y="47.2"/>
      <point x="594.0" y="84.3" type="curve" smooth="yes"/>
      <point x="594.0" y="121.89999999999999"/>
      <point x="616.3000000000001" y="142.8"/>
      <point x="650.0999999999999" y="142.8" type="curve" smooth="yes"/>
      <point x="818.8000000000001" y="142.8" type="line" smooth="yes"/>
      <point x="870.0" y="142.8"/>
      <point x="898.6" y="106.6"/>
      <point x="898.6" y="34.1" type="curve" smooth="yes"/>
      <point x="898.6" y="-64.4"/>
      <point x="833.3000000000001" y="-99.1"/>
      <point x="743.0" y="-99.1" type="curve" smooth="yes"/>
      <point x="556.0" y="-99.1" type="line" smooth="yes"/>
      <point x="457.09999999999997" y="-99.1"/>
      <point x="369.4" y="-119.89999999999999"/>
      <point x="369.4" y="-205.9" type="curve" smooth="yes"/>
      <point x="369.4" y="-266.9"/>
      <point x="413.9" y="-294.20000000000005"/>
    </contour>
  </outline>
</glyph>
<glyph name="day-tamil" format="2">
  <advance width="770.9"/>
  <unicode hex="0BF3"/>
  <note>
uni0BF3
</note>
  <outline>
    <contour>
      <point x="224.10000000000002" y="-5.0" type="curve" smooth="yes"/>
      <point x="324.0" y="-5.0"/>
      <point x="382.59999999999997" y="64.7"/>
      <point x="382.59999999999997" y="167.20000000000002" type="curve" smooth="yes"/>
      <point x="382.59999999999997" y="265.0"/>
      <point x="327.6" y="330.2"/>
      <point x="241.0" y="330.2" type="curve" smooth="yes"/>
      <point x="146.4" y="330.2"/>
      <point x="98.0" y="248.10000000000002"/>
      <point x="87.5" y="150.5" type="curve"/>
      <point x="113.89999999999999" y="116.6" type="line"/>
      <point x="123.9" y="198.8"/>
      <point x="151.5" y="243.1"/>
      <point x="193.4" y="243.1" type="curve" smooth="yes"/>
      <point x="237.20000000000002" y="243.1"/>
      <point x="253.40000000000003" y="200.3"/>
      <point x="253.40000000000003" y="151.6" type="curve" smooth="yes"/>
      <point x="253.40000000000003" y="99.7"/>
      <point x="235.00000000000003" y="64.0"/>
      <point x="195.8" y="64.0" type="curve" smooth="yes"/>
      <point x="138.79999999999998" y="64.0"/>
      <point x="108.5" y="142.9"/>
      <point x="108.5" y="250.20000000000002" type="curve" smooth="yes"/>
      <point x="108.5" y="404.59999999999997"/>
      <point x="185.6" y="504.3"/>
      <point x="300.1" y="504.3" type="curve" smooth="yes"/>
      <point x="424.0" y="504.3"/>
      <point x="486.1" y="399.90000000000003"/>
      <point x="486.1" y="263.7" type="curve" smooth="yes"/>
      <point x="486.1" y="171.6"/>
      <point x="462.5" y="99.89999999999999"/>
      <point x="425.70000000000005" y="44.0" type="curve"/>
      <point x="445.0" y="0.0" type="line"/>
      <point x="756.0" y="0.0" type="line"/>
      <point x="756.0" y="61.0" type="line"/>
      <point x="532.3000000000001" y="61.0" type="line"/>
      <point x="587.8" y="122.19999999999999"/>
      <point x="624.1999999999999" y="195.9"/>
      <point x="624.1999999999999" y="284.5" type="curve" smooth="yes"/>
      <point x="624.1999999999999" y="452.9"/>
      <point x="514.3" y="569.4"/>
      <point x="332.9" y="569.4" type="curve" smooth="yes"/>
      <point x="150.8" y="569.4"/>
      <point x="46.3" y="441.4"/>
      <point x="46.3" y="254.89999999999998" type="curve" smooth="yes"/>
      <point x="46.3" y="93.60000000000001"/>
      <point x="107.50000000000001" y="-5.0"/>
    </contour>
  </outline>
</glyph>
<glyph name="month-tamil" format="2">
  <advance width="1037.8"/>
  <unicode hex="0BF4"/>
  <note>
uni0BF4
</note>
  <anchor x="403.0" y="0.0" name="bottom"/>
  <anchor x="748.5" y="564.4" name="imatra"/>
  <anchor x="403.7" y="0.0" name="nukta"/>
  <anchor x="424.8" y="564.4" name="top"/>
  <anchor x="420.40000000000003" y="564.4" name="vedic"/>
  <outline>
    <contour>
      <point x="665.4" y="473.7" type="curve"/>
      <point x="690.4" y="497.0" type="line"/>
      <point x="645.9" y="546.2"/>
      <point x="613.5999999999999" y="592.1"/>
      <point x="613.5999999999999" y="664.1" type="curve" smooth="yes"/>
      <point x="613.5999999999999" y="754.9"/>
      <point x="659.9" y="805.8"/>
      <point x="736.9000000000001" y="805.8" type="curve" smooth="yes"/>
      <point x="793.6" y="805.8"/>
      <point x="833.2" y="760.7"/>
      <point x="833.2" y="703.4" type="curve" smooth="yes"/>
      <point x="833.2" y="662.2"/>
      <point x="813.7" y="639.2"/>
      <point x="783.6" y="639.2" type="curve" smooth="yes"/>
      <point x="744.4000000000001" y="639.2"/>
      <point x="725.3000000000001" y="685.9"/>
      <point x="725.3000000000001" y="745.5" type="curve" smooth="yes"/>
      <point x="725.3000000000001" y="840.2"/>
      <point x="776.4" y="907.6"/>
      <point x="856.5" y="907.6" type="curve" smooth="yes"/>
      <point x="926.4" y="907.6"/>
      <point x="972.0999999999999" y="869.6"/>
      <point x="972.0999999999999" y="788.1" type="curve" smooth="yes"/>
      <point x="972.0999999999999" y="581.7" type="line"/>
      <point x="1074.5" y="581.7" type="line"/>
      <point x="1074.5" y="813.1" type="line" smooth="yes"/>
      <point x="1074.5" y="876.8"/>
      <point x="1100.1000000000001" y="915.0"/>
      <point x="1157.4" y="898.8" type="curve"/>
      <point x="1168.6" y="958.3" type="line"/>
      <point x="1084.1" y="975.0"/>
      <point x="1034.3" y="925.5"/>
      <point x="1024.6" y="858.4000000000001" type="curve"/>
      <point x="1020.3000000000001" y="858.4000000000001" type="line"/>
      <point x="999.3" y="925.6"/>
      <point x="937.6999999999999" y="965.1"/>
      <point x="860.8000000000001" y="965.1" type="curve" smooth="yes"/>
      <point x="746.0" y="965.1"/>
      <point x="667.5999999999999" y="869.3"/>
      <point x="667.5999999999999" y="742.8" type="curve" smooth="yes"/>
      <point x="667.5999999999999" y="647.7"/>
      <point x="711.9" y="576.0"/>
      <point x="797.1999999999999" y="576.0" type="curve" smooth="yes"/>
      <point x="868.0" y="576.0"/>
      <point x="917.2" y="623.8"/>
      <point x="917.2" y="697.9" type="curve" smooth="yes"/>
      <point x="917.2" y="799.8000000000001"/>
      <point x="846.8000000000001" y="864.7"/>
      <point x="736.4" y="864.7" type="curve" smooth="yes"/>
      <point x="626.4" y="864.7"/>
      <point x="554.0" y="783.2"/>
      <point x="554.0" y="674.3" type="curve" smooth="yes"/>
      <point x="554.0" y="594.7"/>
      <point x="593.0" y="537.5"/>
    </contour>
    <component base="ma-tamil"/>
  </outline>
</glyph>
<glyph name="year-tamil" format="2">
  <advance width="2009.8"/>
  <unicode hex="0BF5"/>
  <note>
uni0BF5
</note>
  <anchor x="780.0" y="0.0" name="bottom"/>
  <anchor x="1196.3" y="564.4" name="imatra"/>
  <anchor x="782.1" y="0.0" name="nukta"/>
  <anchor x="799.6" y="564.4" name="top"/>
  <anchor x="776.8000000000001" y="564.4" name="vedic"/>
  <outline>
    <contour>
      <point x="787.3" y="-282.70000000000005" type="curve" smooth="yes"/>
      <point x="1159.3" y="-282.70000000000005"/>
      <point x="1469.1" y="-158.6"/>
      <point x="1469.1" y="127.0" type="curve" smooth="yes"/>
      <point x="1469.1" y="264.1"/>
      <point x="1409.8" y="347.6"/>
      <point x="1307.0" y="347.6" type="curve" smooth="yes"/>
      <point x="1216.8" y="347.6"/>
      <point x="1164.3" y="279.2"/>
      <point x="1164.3" y="182.1" type="curve" smooth="yes"/>
      <point x="1164.3" y="139.3" type="line"/>
      <point x="1193.0" y="139.3" type="line"/>
      <point x="1193.0" y="177.7" type="line" smooth="yes"/>
      <point x="1193.0" y="224.8"/>
      <point x="1210.2" y="259.7"/>
      <point x="1251.7" y="259.7" type="curve" smooth="yes"/>
      <point x="1304.1000000000001" y="259.7"/>
      <point x="1325.0" y="213.3"/>
      <point x="1325.0" y="131.5" type="curve" smooth="yes"/>
      <point x="1325.0" y="-114.6"/>
      <point x="1094.3" y="-220.3"/>
      <point x="785.5" y="-220.3" type="curve" smooth="yes"/>
      <point x="403.9" y="-220.3"/>
      <point x="116.10000000000001" y="-55.9"/>
      <point x="116.10000000000001" y="273.8" type="curve" smooth="yes"/>
      <point x="116.10000000000001" y="609.1"/>
      <point x="411.7" y="782.4"/>
      <point x="851.5" y="782.4" type="curve" smooth="yes"/>
      <point x="1257.6999999999998" y="782.4"/>
      <point x="1558.1000000000001" y="618.8"/>
      <point x="1558.1000000000001" y="316.1" type="curve" smooth="yes"/>
      <point x="1558.1000000000001" y="174.9" type="line" smooth="yes"/>
      <point x="1558.1000000000001" y="60.8"/>
      <point x="1617.6" y="-2.9000000000000004"/>
      <point x="1736.0" y="-2.9000000000000004" type="curve" smooth="yes"/>
      <point x="1872.4" y="-2.9000000000000004"/>
      <point x="1959.5" y="111.2"/>
      <point x="1959.5" y="295.3" type="curve" smooth="yes"/>
      <point x="1959.5" y="397.1"/>
      <point x="1934.0" y="477.5"/>
      <point x="1871.6000000000001" y="569.4" type="curve"/>
      <point x="1817.1000000000001" y="536.6" type="line"/>
      <point x="1870.1999999999998" y="455.79999999999995"/>
      <point x="1896.1" y="381.90000000000003"/>
      <point x="1896.1" y="291.4" type="curve" smooth="yes"/>
      <point x="1896.1" y="156.0"/>
      <point x="1836.7" y="66.5"/>
      <point x="1773.5" y="66.5" type="curve" smooth="yes"/>
      <point x="1729.1999999999998" y="66.5"/>
      <point x="1708.2" y="97.0"/>
      <point x="1708.2" y="167.4" type="curve" smooth="yes"/>
      <point x="1708.2" y="318.0" type="line" smooth="yes"/>
      <point x="1708.2" y="670.5999999999999"/>
      <point x="1328.8" y="844.8"/>
      <point x="855.9000000000001" y="844.8" type="curve" smooth="yes"/>
      <point x="340.90000000000003" y="844.8"/>
      <point x="49.900000000000006" y="630.6999999999999"/>
      <point x="49.900000000000006" y="272.3" type="curve" smooth="yes"/>
      <point x="49.900000000000006" y="-87.9"/>
      <point x="365.40000000000003" y="-282.70000000000005"/>
    </contour>
    <component base="lla-tamil" xOffset="190.2"/>
  </outline>
</glyph>
